<svg height="512" viewBox="0 0 32 32" width="512" xmlns="http://www.w3.org/2000/svg"><g id="Layer_2" data-name="Layer 2"><path d="m16 1a15 15 0 1 0 15 15 15 15 0 0 0 -15-15zm1 20.76v1.13a1 1 0 0 1 -2 0v-1.12a3.5 3.5 0 0 1 -2.23-2 1 1 0 0 1 .93-1.34 1 1 0 0 1 .94.59 1.45 1.45 0 0 0 1.36.92 1.47 1.47 0 0 0 1.48-1.47 1.5 1.5 0 0 0 -1.48-1.54 3.54 3.54 0 0 1 -3.15-5.06 3.27 3.27 0 0 1 2.15-1.8v-1.15a1 1 0 0 1 2 0v1.18a3.48 3.48 0 0 1 1.45.84 3.59 3.59 0 0 1 .79 1.19 1 1 0 0 1 -.92 1.28 1 1 0 0 1 -.95-.57 1.71 1.71 0 0 0 -.33-.48 1.5 1.5 0 0 0 -1-.43 1.49 1.49 0 0 0 -1.47 1.48 1.53 1.53 0 0 0 1.42 1.52 3.65 3.65 0 0 1 3.51 3 3.5 3.5 0 0 1 -2.5 3.83z"/></g></svg>