<svg id="Layer_1" enable-background="new 0 0 512 512" height="512" viewBox="0 0 512 512" width="512" xmlns="http://www.w3.org/2000/svg"><path d="m307.294 262.928 79.206-45.729v91.458l-79.206 45.73zm-12-112.243-79.206 45.729 79.206 45.729 79.206-45.73zm216.706 105.315c0 141.159-114.841 256-256 256s-256-114.842-256-256c0-141.159 114.841-256 256-256s256 114.841 256 256zm-383.138-119.171c0 6.627 5.373 12 12 12h61.448c6.627 0 12-5.373 12-12s-5.373-12-12-12h-61.448c-6.627 0-12 5.372-12 12zm281.638 59.586c0-1.816-.327-4.098-1.605-5.982-1.174-1.731-2.58-3.366-4.395-4.411l-103.206-59.586c-1.824-1.053-3.894-1.607-6-1.607h-58.447c-6.627 0-12 5.373-12 12s5.373 12 12 12h13.662l-61.637 35.586h-75.372c-6.627 0-12 5.373-12 12s5.373 12 12 12h75.373l94.421 54.514v91.459l-85.206-49.194c-1.824-1.053-3.894-1.607-6-1.607h-78.588c-6.627 0-12 5.373-12 12s5.373 12 12 12h75.373l100.421 57.979c1.856 1.071 3.928 1.607 6 1.607s4.144-.536 6-1.607l103.206-59.587c3.713-2.144 6-6.105 6-10.393 0 0 0-119.079 0-119.171zm-269.638 71.586h49.403c6.627 0 12-5.373 12-12s-5.373-12-12-12h-49.403c-6.627 0-12 5.373-12 12s5.373 12 12 12z"/></svg>