<svg xmlns="http://www.w3.org/2000/svg" width="24.085" height="24.068" viewBox="0 0 24.085 24.068">
  <path id="Trazado_280" data-name="Trazado 280" d="M1429.435,1157.744a11.284,11.284,0,1,1,11.293-11.284,12.137,12.137,0,0,1-.222,2.237A11.213,11.213,0,0,1,1429.435,1157.744Zm7.072-13.681a.728.728,0,0,0,0-1.03l-1.031-1.029a.729.729,0,0,0-1.031,0l-6.833,6.827-3.19-3.188a.729.729,0,0,0-1.03,0l-1.031,1.03a.727.727,0,0,0,0,1.029l4.736,4.732a.729.729,0,0,0,1.03,0l1.927-1.926Z" transform="translate(-1417.393 -1134.426)" fill="none" stroke="#000" stroke-width="1.5"/>
</svg>
