<svg xmlns="http://www.w3.org/2000/svg" width="26.521" height="21.502" viewBox="0 0 26.521 21.502">
  <path id="Trazado_10" data-name="Trazado 10" d="M1500.805,1148.771v1.25a.627.627,0,0,1-.625.625H1498.3a3.753,3.753,0,0,1-7.507,0h-5a3.753,3.753,0,0,1-7.506,0h-.626a1.876,1.876,0,0,1-1.876-1.875v-12.5a1.876,1.876,0,0,1,1.876-1.875h12.511a1.877,1.877,0,0,1,1.877,1.875v1.875h1.724a1.877,1.877,0,0,1,1.326.551l3.906,3.9a1.873,1.873,0,0,1,.551,1.324v4.223h.626A.627.627,0,0,1,1500.805,1148.771Zm-16.889,1.875a1.877,1.877,0,1,0-1.877,1.875A1.876,1.876,0,0,0,1483.916,1150.646Zm13.762-6.723-3.906-3.9h-1.724v4.375h5.63Zm-1.251,6.723a1.877,1.877,0,1,0-1.877,1.875A1.876,1.876,0,0,0,1496.426,1150.646Z" transform="translate(-1475.034 -1133.645)" fill="none" stroke="#000" stroke-width="1.5"/>
</svg>
