<svg xmlns="http://www.w3.org/2000/svg" width="35" height="35" viewBox="0 0 35 35">
  <g id="Grupo_2157" data-name="Grupo 2157" transform="translate(-177.5 -1785)">
    <g id="Icons_icon-information" data-name="Icons/icon-information" transform="translate(177.5 1785)">
      <path id="icon-information" d="M17.5,0A17.5,17.5,0,1,0,35,17.5,17.519,17.519,0,0,0,17.5,0Zm3.876,26.664c-.964.379-4.3,1.975-6.23.279a2.444,2.444,0,0,1-.86-1.922c0-1.455.478-2.724,1.34-5.771a8.309,8.309,0,0,0,.337-1.915c0-1.022-.388-1.294-1.439-1.294a4.827,4.827,0,0,0-1.6.375l.284-1.165a11.141,11.141,0,0,1,3.822-1.035c1.851,0,3.213.923,3.213,2.679a8.145,8.145,0,0,1-.271,2.005L18.91,22.665c-.22.761-.618,2.44,0,2.937s2.043.23,2.752-.1Zm-1.759-15a2.188,2.188,0,1,1,2.188-2.188A2.188,2.188,0,0,1,19.618,11.667Z"/>
    </g>
  </g>
</svg>
