<svg id="Icons_icon-settings" data-name="Icons/icon-settings" xmlns="http://www.w3.org/2000/svg" width="15.6" height="15.6" viewBox="0 0 15.6 15.6">
  <path id="icon-settings" d="M17.07,7.889,15.6,7.4l.694-1.388a.78.78,0,0,0-.148-.889L14.48,3.459a.78.78,0,0,0-.9-.148L12.195,4,11.7,2.53A.78.78,0,0,0,10.97,2H8.63a.78.78,0,0,0-.741.53L7.4,4,6.009,3.31a.78.78,0,0,0-.889.148L3.459,5.12a.78.78,0,0,0-.148.9L4,7.405,2.53,7.9A.78.78,0,0,0,2,8.63v2.34a.78.78,0,0,0,.53.741L4,12.2,3.31,13.591a.78.78,0,0,0,.148.889L5.12,16.141a.78.78,0,0,0,.9.148L7.405,15.6,7.9,17.07a.78.78,0,0,0,.741.53h2.34a.78.78,0,0,0,.741-.53L12.21,15.6l1.388.694a.78.78,0,0,0,.881-.148l1.661-1.661a.78.78,0,0,0,.148-.9L15.6,12.195,17.07,11.7a.78.78,0,0,0,.53-.733V8.63A.78.78,0,0,0,17.07,7.889Zm-1.03,2.519-.936.312a1.56,1.56,0,0,0-.9,2.2l.445.889-.858.858L12.92,14.2a1.56,1.56,0,0,0-2.176.9l-.312.936H9.192L8.88,15.1a1.56,1.56,0,0,0-2.2-.9l-.889.445-.858-.858L5.4,12.92a1.56,1.56,0,0,0-.9-2.2l-.936-.312V9.192L4.5,8.88a1.56,1.56,0,0,0,.9-2.2l-.445-.866.858-.858L6.68,5.4a1.56,1.56,0,0,0,2.2-.9l.312-.936h1.217l.312.936a1.56,1.56,0,0,0,2.2.9l.889-.445.858.858L14.2,6.68a1.56,1.56,0,0,0,.9,2.176l.936.312ZM9.8,6.68a3.12,3.12,0,1,0,2.206.914A3.12,3.12,0,0,0,9.8,6.68Zm0,4.68A1.56,1.56,0,1,1,11.36,9.8,1.56,1.56,0,0,1,9.8,11.36Z" transform="translate(-2 -2)"/>
</svg>
