<svg xmlns="http://www.w3.org/2000/svg" width="18.333" height="20" viewBox="0 0 18.333 20">
  <path id="Trazado_4" data-name="Trazado 4" d="M-640.435-192.151a.831.831,0,0,0,.477.15.832.832,0,0,0,.478-.15c.253-.177,6.189-4.393,6.189-9.85a6.675,6.675,0,0,0-6.667-6.667A6.674,6.674,0,0,0-646.624-202C-646.624-196.544-640.687-192.328-640.435-192.151Zm.477-14.85a5.006,5.006,0,0,1,5,5c0,3.768-3.665,7.049-5,8.118-1.335-1.069-5-4.349-5-8.118A5.006,5.006,0,0,1-639.957-207Zm2.5,5a2.5,2.5,0,0,0-2.5-2.5,2.5,2.5,0,0,0-2.5,2.5,2.5,2.5,0,0,0,2.5,2.5A2.5,2.5,0,0,0-637.457-202Zm-3.333,0a.834.834,0,0,1,.833-.833.834.834,0,0,1,.833.833.834.834,0,0,1-.833.833A.834.834,0,0,1-640.79-202Zm9.9,12.1-2.5-4.583a.834.834,0,0,0-.732-.435h-.833a.834.834,0,0,0-.833.833.834.834,0,0,0,.833.833h.339l1.591,2.917h-13.859l1.591-2.917h.339a.834.834,0,0,0,.833-.833.834.834,0,0,0-.833-.833h-.833a.834.834,0,0,0-.732.435l-2.5,4.583a.834.834,0,0,0,.015.825.833.833,0,0,0,.717.408h16.667a.834.834,0,0,0,.717-.408A.834.834,0,0,0-630.892-189.9Z" transform="translate(649.124 208.667)"/>
</svg>
