<svg id="Grupo_2149" data-name="Grupo 2149" xmlns="http://www.w3.org/2000/svg" width="30" height="30" viewBox="0 0 30 30">
  <g id="Icons_icon-remove-fav" data-name="Icons/icon-remove-fav" transform="translate(0)">
    <rect id="Frame" width="30" height="30" rx="15" transform="translate(0 0)"/>
    <path id="icon-minus" d="M9.913,0a1.015,1.015,0,0,1,.927,1.084,1.015,1.015,0,0,1-.927,1.084H.927A1.015,1.015,0,0,1,0,1.084,1.015,1.015,0,0,1,.927,0Z" transform="translate(15.95 9.103) rotate(90)" fill="#fff"/>
    <path id="icon-minus-2" data-name="icon-minus" d="M9.913,0a1.015,1.015,0,0,1,.927,1.084,1.015,1.015,0,0,1-.927,1.084H.927A1.015,1.015,0,0,1,0,1.084,1.015,1.015,0,0,1,.927,0Z" transform="translate(9.446 13.439)" fill="#fff"/>
  </g>
</svg>
