<svg id="Icons_icon-bookmark-filled" data-name="Icons/icon-bookmark-filled" xmlns="http://www.w3.org/2000/svg" width="22.5" height="30" viewBox="0 0 22.5 30">
  <g id="Path" transform="translate(0 0)" fill="none">
    <path d="M21.964,0H.536A.5.5,0,0,0,0,.517V29.457a.539.539,0,0,0,.268.465.5.5,0,0,0,.536,0L11.25,23.876,21.7,29.922a.413.413,0,0,0,.268.052.5.5,0,0,0,.268-.052.539.539,0,0,0,.268-.465V.517A.5.5,0,0,0,21.964,0Z" stroke="none"/>
    <path d="M 3 2.999996185302734 L 3 25.18490791320801 L 9.747170448303223 21.27961730957031 L 11.25 20.40977478027344 L 12.75282955169678 21.27961730957031 L 19.5 25.18490409851074 L 19.5 2.999996185302734 L 3 2.999996185302734 M 0.5357093811035156 -3.814697265625e-06 L 21.96412086486816 -3.814697265625e-06 L 21.96429061889648 -3.814697265625e-06 C 22.28570938110352 -3.814697265625e-06 22.5 0.2067165374755859 22.5 0.5167961120605469 L 22.5 29.45739555358887 C 22.5 29.66409683227539 22.39286041259766 29.81913566589355 22.23213958740234 29.9224967956543 C 22.125 29.97417640686035 22.07143020629883 29.97417640686035 21.96429061889648 29.97417640686035 C 21.85714912414551 29.97417640686035 21.75000953674316 29.97417640686035 21.69643974304199 29.9224967956543 L 11.25 23.87605667114258 L 0.8035697937011719 29.9224967956543 C 0.7232208251953125 29.97417640686035 0.6294975280761719 30.00000190734863 0.5357456207275391 30.00000190734863 C 0.4419918060302734 30.00000190734863 0.3482093811035156 29.97415542602539 0.2678508758544922 29.9224967956543 C 0.1071395874023438 29.81917572021484 0 29.66411590576172 0 29.45739555358887 L 0 0.5167961120605469 C 0 0.2067165374755859 0.2142791748046875 -3.814697265625e-06 0.5357093811035156 -3.814697265625e-06 Z" stroke="none" fill="#000"/>
  </g>
</svg>
