<svg xmlns="http://www.w3.org/2000/svg" width="341.057" height="123.835" viewBox="0 0 341.057 123.835">
  <g id="Grupo_2269" data-name="Grupo 2269" transform="translate(-1226.972 -146.69)">
    <g id="Grupo_2201" data-name="Grupo 2201" transform="translate(1415.005 170.719)">
      <path id="Trazado_81" data-name="Trazado 81" d="M-944.482,735.015s-2.8.094-2.244-2.338,1.964-2.9,2.618-2.151S-942.985,732.958-944.482,735.015Z" transform="translate(975.697 -719.879)" fill="#d5441c"/>
      <path id="Trazado_82" data-name="Trazado 82" d="M-929.163,735.441s-2.712.374-1.122-2.992,4.114-.793,3.273.585A10.391,10.391,0,0,1-929.163,735.441Z" transform="translate(964.118 -720.304)" fill="#d5441c"/>
      <g id="Grupo_2199" data-name="Grupo 2199" transform="translate(0 0)">
        <path id="Trazado_83" data-name="Trazado 83" d="M-914.3,715.277c.092.1.141.159.141.159S-914.086,715.338-914.3,715.277Z" transform="translate(952.201 -709.089)" fill="#d5441c"/>
        <path id="Trazado_84" data-name="Trazado 84" d="M-901.708,729.675s1.5,16.363-26.555,20.1-50.492,3.74-78.075-3.553-35.812-19.636-35.812-19.636,5.423-22.441,17.672-25.433c8.619-2.105,10.756-2.174,11.266-2.03-.991-1.085-7.13-7.241-14.913-2.365-8.509,5.33-16.082,27.771-16.082,27.771l-.842-.093s6.265-25.059,4.208-27.4-4.862-6.265-6.078-2.618-5.61,16.643-2.151,27.116c-1.87,10.379-2.79,21.693-1.3,24.218s4.256,2.525,4.6,0,2.684-15.615,3.058-16.363c0,0,20.571,22.534,59.562,25.994s56.2.28,66.761-2.525c0,0-25.246,7.574-50.585,4.862,0,0,33.568,4.021,49.464-2.151S-892.638,733.229-901.708,729.675Zm-143.621-33.942c1.122.187-2.431,20.664-2.431,20.664C-1049.911,708.45-1046.451,695.547-1045.329,695.734Zm-2.712,46.378c-1.029-3.647,2.931-14.867,2.931-14.867S-1047.013,745.758-1048.041,742.111Z" transform="translate(1051.112 -692.939)" fill="#d5441c"/>
      </g>
      <path id="Trazado_85" data-name="Trazado 85" d="M-858.149,718.68c-2.618-.467-4.3,3.273-4.862,4.395s-1.028-.187-1.028-.187c-2.244-5.517-4.956-4.021-4.3-2.9s-.935,8.041-1.122,10.192-5.049,9.911-8.976,13.932-.093-9.724.693-13.278.055-3.179-2.47-3.179-5.049,8.322-8.976,13.371,5.423-14.212,7.106-17.3,3.085.467,1.87.842-.841,2.338.935,2.338,2.8-2.805-1.5-7.667-12.436,15.241-13.371,20.2,2.525,5.984,3.086,6.639.467,1.028-4.3-.462-8.322-8.7-8.322-8.7a21.73,21.73,0,0,0,4.021-.187c7.574-3.46,7.854-8.976,4.853-12.062s-7.845,2.151-10.089,4.3-.468-2.431-.468-2.431c6.732-4.853,15.521-19.636,7.106-21.319s-14.493,29.173-14.493,29.173a50.525,50.525,0,0,0-6.171,8.509c-2.618,4.675-5.61,3.366-2.525-4.3s1.309-12.623-1.4-15.708-7.013,4.3-7.013,4.3c1.122-6.545-1.777-8.976-4.395-10.566s-5.891,7.667-5.891,7.667a5.845,5.845,0,0,0-4.021-5.7c-2.618-.935-1.215,1.4-1.215,1.4,2.712,11.594-6.732,22.628-8.7,21.412s1.776-12.716,3.179-16.83-3.273-7.387-2.992-6.171-3.553,17.111-8.228,21.6.281-9.444,1.309-15.615a5.574,5.574,0,0,0-4.675-6.919c1.4,2.525-.187,8.322-1.683,13.651s-1.777,10.285,1.683,12.623,6.639-4.685,6.639-4.685c-.842,2.421,1.4,5.994,4.021,5.9s7.387-6.545,7.387-6.545c-1.59,4.395,2.057,5.891,2.618,6.358s.561-2.431.561-2.431c.935-10.1,5.517-16.083,8.135-20.665s2.057,5.423.374,12.249,1.309,8.322,2.338,9.164.724-.281.724-.281c-.585-6.545,6.663-17.953,8.346-16.924s-1.029,9.444-2.244,13.174-.187,7.957,2.9,9.366,6.078-2.717,8.6-7.3,2.151-2.067,2.151-2.067-.468,4.965,2.431,5.433,2.431-6.826,2.431-6.826c7.106,9.911,11.781,10.846,15.8,10.753s10.379-15.9,10.379-15.9-1.5,5.61-2.618,8.789,2.244,6.545,4.582,6.265,7.013-7.48,7.013-7.48.467,3.46,1.683,5.049,1.59-.187,1.59-.187c-.935-10.1,8.509-22.815,10.379-22.721s-.748,4.582-.654,5.236,2.805,1.683,4.207-.374S-855.531,719.148-858.149,718.68Zm-39.833-8.134c1.777.841-2.712,10.192-6.078,11.781C-904.059,722.327-899.758,709.7-897.982,710.545Zm-7.854,22.721s1.683-3.647,4.021-5.143,5.049-1.463,5.33-.451-1.216,3.069-4.769,4.846S-905.836,733.267-905.836,733.267Z" transform="translate(991.19 -701.767)" fill="#d5441c"/>
      <path id="Trazado_86" data-name="Trazado 86" d="M-556.531,772.416c-6.826,4.862-3.086-5.517-3.086-5.517,3.3,2.318,6.358-3.834,8.042-7.48A7.16,7.16,0,0,0-553.539,751c-1.683-1.309-4.114.748-7.48,8.042S-564.853,775.782-559.9,777s11.688-13.856,11.688-13.856C-549.893,761.909-549.706,767.554-556.531,772.416Zm2.805-17.672c1.4,1.122-.935,6.078-2.525,8.6s-2.338,2.9-2.805,2.338S-553.726,754.744-553.726,754.744Z" transform="translate(698.642 -734.652)" fill="#d5441c"/>
    </g>
    <g id="Grupo_2213" data-name="Grupo 2213" transform="translate(1226.972 146.69)">
      <g id="Grupo_2209" data-name="Grupo 2209" transform="translate(0 109.278)">
        <g id="Grupo_2208" data-name="Grupo 2208">
          <path id="Trazado_87" data-name="Trazado 87" d="M125.273,429.053l-.278.674c-2.526,0-2.995-5.019-7.2-5.019-.207,0-2.007-.087-2.007,1.124v3.9h-.814v-12.69h.814v7.132a6.107,6.107,0,0,0,1.558-.414h.018c3.2-1.247,6.2-4.362,6.2-6.527l.832-.191c0,2.788-2.96,5.557-5.575,6.856C122.883,424.742,123.247,429.053,125.273,429.053Z" transform="translate(-114.972 -416.269)" fill="#161615"/>
          <path id="Trazado_88" data-name="Trazado 88" d="M198.478,429.053l-.278.674c-2.526,0-2.995-5.019-7.2-5.019-.208,0-2.008-.087-2.008,1.124v3.9h-.814v-12.69h.814v7.132a6.1,6.1,0,0,0,1.557-.414h.018c3.2-1.247,6.2-4.362,6.2-6.527l.831-.191c0,2.788-2.96,5.557-5.574,6.856C196.088,424.742,196.452,429.053,198.478,429.053Z" transform="translate(-161.302 -416.269)" fill="#161615"/>
          <path id="Trazado_89" data-name="Trazado 89" d="M157.241,422.052a7.116,7.116,0,1,1-2.082-5.024A6.853,6.853,0,0,1,157.241,422.052ZM150.132,416a6.075,6.075,0,1,0,4.292,1.783A5.825,5.825,0,0,0,150.132,416Z" transform="translate(-132.724 -414.942)" fill="#161615"/>
          <path id="Trazado_90" data-name="Trazado 90" d="M229.44,422.052a7.115,7.115,0,1,1-2.082-5.024A6.85,6.85,0,0,1,229.44,422.052ZM222.331,416a6.074,6.074,0,1,0,4.293,1.783A5.825,5.825,0,0,0,222.331,416Z" transform="translate(-178.418 -414.942)" fill="#161615"/>
          <path id="Trazado_91" data-name="Trazado 91" d="M262.836,425.223c-.1.015-.21.024-.314.03v.035h-3.715v4.285h-.97V416.281h4.686v.015a4.488,4.488,0,0,1,2.916,7.651A4.406,4.406,0,0,1,263.828,425l2.638,4.578h-1.119Zm-.507-.9V424.3a3.531,3.531,0,0,0,.186-7.053h-3.708v7.074Z" transform="translate(-205.389 -415.789)" fill="#161615"/>
          <path id="Trazado_92" data-name="Trazado 92" d="M299.739,422.052a7.117,7.117,0,1,1-2.083-5.024A6.851,6.851,0,0,1,299.739,422.052ZM292.629,416a6.075,6.075,0,1,0,4.292,1.783A5.823,5.823,0,0,0,292.629,416Z" transform="translate(-222.909 -414.942)" fill="#161615"/>
        </g>
        <path id="Trazado_93" data-name="Trazado 93" d="M331.343,426.207v4.285h-.97V417.2h4.749v.97h-3.779v7.067H333.3v.97Z" transform="translate(-251.295 -416.371)" fill="#161615"/>
        <path id="Trazado_94" data-name="Trazado 94" d="M359.081,422.97A7.116,7.116,0,1,1,357,417.946,6.848,6.848,0,0,1,359.081,422.97Zm-7.11-6.055a6.075,6.075,0,1,0,4.294,1.783A5.823,5.823,0,0,0,351.971,416.915Z" transform="translate(-260.465 -415.523)" fill="#161615"/>
        <path id="Trazado_95" data-name="Trazado 95" d="M401.7,422.971a7.115,7.115,0,1,1-2.082-5.024A6.848,6.848,0,0,1,401.7,422.971Zm-7.11-6.055a6.076,6.076,0,1,0,4.293,1.783A5.825,5.825,0,0,0,394.587,416.916Z" transform="translate(-287.436 -415.524)" fill="#161615"/>
        <path id="Trazado_96" data-name="Trazado 96" d="M431.983,430.4,432,417.1h1.2a6.6,6.6,0,0,1,4.516,1.918,6.828,6.828,0,0,1,1.8,4.749,6.591,6.591,0,0,1-1.832,4.708,6.761,6.761,0,0,1-4.28,1.918Zm.97-12.267v11.317a5.3,5.3,0,0,0,3.974-1.66,5.568,5.568,0,0,0,1.6-4.016,5.772,5.772,0,0,0-1.553-4.035,4.922,4.922,0,0,0-3.788-1.611C433.113,418.124,433.034,418.126,432.953,418.13Z" transform="translate(-315.603 -416.31)" fill="#161615"/>
        <path id="Trazado_97" data-name="Trazado 97" d="M461.619,417.987a1.822,1.822,0,0,0-1.3-.557h-.07a1.993,1.993,0,0,0-1.911,1.983,7.827,7.827,0,0,0,.2,1.234l1.333,5.377a8.534,8.534,0,0,1,.2,1.2,3,3,0,0,1-.874,2.108,2.95,2.95,0,0,1-2.071.945H457a2.746,2.746,0,0,1-1.976-.827l.736-.756a1.809,1.809,0,0,0,1.3.557h.072a1.924,1.924,0,0,0,1.354-.614,1.953,1.953,0,0,0,.557-1.37,9.068,9.068,0,0,0-.194-1.177,53.779,53.779,0,0,1-1.54-6.631,3.1,3.1,0,0,1,2.938-3.053h.129a2.776,2.776,0,0,1,1.99.827Z" transform="translate(-330.184 -415.867)" fill="#161615"/>
      </g>
      <g id="Grupo_2212" data-name="Grupo 2212" transform="translate(20.384 0)">
        <g id="Grupo_2210" data-name="Grupo 2210" transform="translate(6 0.349)" style="mix-blend-mode: multiply;isolation: isolate">
          <path id="Trazado_98" data-name="Trazado 98" d="M245.809,201.786c-.458.328-.951.806-1.566.774-.164.006-.348-.114-.337.145-.459-.134-.651.577-1.109.213a11.532,11.532,0,0,1-2.945.974l-.343-.019c-.011-.955,1.153-.96,1.229-1.787.254-.108.229.3.483.19a1.858,1.858,0,0,0,.915-.66.406.406,0,0,0,.284.274c.314-.664,1.966-.616,1.29-1.646.225-.1.285-.421.3-.624-.364-.537-.924.1-1.381-.034a12.319,12.319,0,0,0-3.315,1.2c.068-.229.116-.58-.209-.638-.3-.166-.737-.012-.963-.379a3.674,3.674,0,0,0-2.185,1.04c-.253.11-.533.23-.71-.023-.152-.2.254-.573-.195-.609-.342-.019-.423.413-.366.62.024.055.072.167,0,.232l-.113.047c-.083-.194.1-.539-.253-.585-.7.3-1.4.238-2.087.569-.138.223.095.455-.109.674l-.3.229c-.039-.478-.773-.326-1.058-.6-.775.135-1.566-.383-2.365-.073-.618.035-1.088-.589-1.721-.282a.47.47,0,0,0-.546-.028c.159,1.219-1.013.2-1.229,1.09-.089.1.028.22.064.3a1.6,1.6,0,0,1,.446.105c.13-.088.225-.329.346-.282l-.033.312a1.683,1.683,0,0,1,1.217-.194c.055.439.922.595.291,1.065-.152.264.092.522-.049.814-.546-.26-1.666.619-1.641-.482a.912.912,0,0,0-.812.515.13.13,0,0,0-.036.147c.257.287.651-.115.718.352-1.638.606-3.44-.172-5.145-.26-.418.112-.908.29-1.3,0a1.256,1.256,0,0,0-.481-.42c-.526.558-.71-.256-1.072-.4-.75-.041-1.472-.555-2.236-.391-.653-.281-1.263-1.076-2.038-.477-.349-.115.025-.408-.2-.609-1.012.2-1.321-1.052-2.359-.836-.927.168-.83-1.228-1.729-.841-.132-.539-.775-.559-1.157-.825-.348-.114-.5.313-.731.316.033-.543-.706-.555-.809-1.106l-.924-.132a1.153,1.153,0,0,0,.218-.424c-.121-.279-.429-.378-.651-.58-.706.6-.493-.448-1.022-.517-.261-.218-.907.061-.766-.463-.253-.123-.554.105-.683-.27-.039-.708-.967-.542-1.143-1.026a.312.312,0,0,0,.4-.007c.064-.392-.369-.468-.545-.725-.83-.07-1.452-.894-1.841-1.487-.428-.84-1.272-1.17-1.745-1.96-.452-1.126-1.881-1.272-2.188-2.528-.654-.974-1.662-1.764-1.922-2.908a44.464,44.464,0,0,1-4.059-8.335c-.417-1.276-.753-2.52-1.11-3.887.017-.039.062-.091,0-.164.075.794.756-.26.826.6.646.186.719,1.047.918,1.589-.405.836.746,1.729.055,2.523l.316,1.12c.474.094.75.5,1.22.432-.433-.542.358-.716.635-1l.056-.025c.245.258-.213.358-.189.643a3.7,3.7,0,0,1,.508,2.492,1.036,1.036,0,0,1,.092.756,4.781,4.781,0,0,1,.973,2.258,1.494,1.494,0,0,0-.3.46c.257.286.377.8.77.857.2-.315-.289-.9.41-.9a11.821,11.821,0,0,1,2.092,3l-.537.068c-.146,1.054,1.119.741,1.283,1.662.357.211.534-.229.851-.268.429.378.9.771.777,1.418-.093.173-.354.185-.511.286-.012.667.678.568,1.051.969l.144-.361c.807.248,1.066,1.161,1.922,1.29-.059.092,0,.162.04.246a1.375,1.375,0,0,0,1.036-.381c-.008-.1.117-.117.173-.139.213.106.454.2.533.463-.063.161-.185.345-.044.516a5.561,5.561,0,0,0,1.121-.417c.517.042.782,1.117,1.243.488.133-.156.032-.31-.027-.45-.277-.179-.462-.528-.859-.523l-1.525-1.063c.286-.188.795-.012,1.1.318a.4.4,0,0,0,.473.326.431.431,0,0,0,.389-.565,1.152,1.152,0,0,0-1.011-.492c.065-.621-.658-.906-1.146-1.192-.156.1-.33.01-.5.151.223-.491-.283-.5-.351-.971-.663.086-.434-.774-1.108-.713-.269-.547-.843-.8-1.11-1.341-.944.209-.14-1.1-1.019-.818l-.568.31c.05-.352.576-.908.047-1.208-.122-.048-.262.011-.366-.074-.409-.254.012-.9-.353-1.2-.1-.918-.905-1.56-1.351-2.362-.277-.177-.445-.567-.742-.638-.457-.6-.541-1.254-.97-1.864l-.477.207c-.051-.508-.562.009-.659-.445.751.5.6-.459,1.044-.747.558-.406-.521-.668.041-1.142-1-.23.624-1.261-.553-1.282-.209-.406.583-1.046-.176-1.181-.807.215-.827,1.25-.852,1.888l.025.056c-.289-.437-.646-.878-.325-1.447-.02-.356.41-.441.615-.662.943-.209.916-1.353,1.591-1.876.017-.734.475-1.526.544-2.217l-.168-.391a3.184,3.184,0,0,0-2.129,1.712,1.765,1.765,0,0,0-.571.146l-.138.455c-.112.047-.152-.2-.2-.31.265-.312.688-.494.675-.985-.577-.413.455-.725.013-1.131,0-.164.049-.351-.091-.522-.4.006-.362-.374-.425-.677.8-.243.916-1.123.969-1.773-.173-.554-.9-.307-.911-1.031a3.132,3.132,0,0,0,.333-.541.583.583,0,0,0-.762-.066,1.308,1.308,0,0,0,.071,1.788c.007.094.123.209.036.314-.8-.084-.67-1.4-1.489-1.211.165-.236.447-.588.274-.91-.5-.083-.835-1.162-1.292-.37-.635.771.757,1.293-.071,2.08.51.409-.225,1.022.377,1.261-.522.256-.723.872-1.233,1.158.173-.6-.32-1.052-.175-1.644-.349-.345.092-.634.154-.957-.281-.575-.377-1.26-1.115-1.5a.987.987,0,0,1-.039-1.174.76.76,0,0,0,.534-.462,4.791,4.791,0,0,1-.461-1.223c.663-.781,1.88-.743,1.928-2.021.386-.265,1.024-.641,1.542-.367a4.155,4.155,0,0,1,.771-.068c-.185,1.039-1.466.929-1.506,2.071.32.59-1.375.989-.218,1.582.594-.09.781,1.118,1.361.374.168-.3-.169-.623-.233-.927l.354-.879-.189-.051.081-.2a.835.835,0,0,0,.931,0c-.184-.581.747-.818.29-1.414l-.446-.107a11.7,11.7,0,0,0,.8-1.3c-.228-.067-.541-.1-.678.127.037-.612.615-1.126.8-1.7.362-.09.4-.536.5-.845-.06-.371-.691-.826-.119-1.2-.129-.374.108-.676.293-1.021.482-.507,1.289-.72,1.747-1.281.168.157.345-.05.525-.1.309-.365.731-.778.731-1.239l-.433-.079c.229-.4.479-.9.723-1.337.527-1.253,1-2.317,1.666-3.561.654-.185.766-.695.975-1.214a3.452,3.452,0,0,1,.857-1.959c.325.06-.028.477.148.73a.813.813,0,0,0-.285.421c.245.49-.261,1.171.24,1.484.533-.232,1.015-.737,1.661-.783a1.606,1.606,0,0,1,.739.475c-.59.485-1.333,1-1.45,1.815a1.234,1.234,0,0,0-.467,1.16.657.657,0,0,0,.647-.046.831.831,0,0,1,.526-.791c.136.008.141.172.176.256-.373.291-.746.586-.615,1.124-.124.252-.354.416-.329.7.448.732,2.636.087,1.768,1.552a.485.485,0,0,1-.032.311c-.261-.218-.738-.012-.979.124-.205.221.016.424-.026.641-.314.9-1.077,1.985-.367,2.7-.076.365.61.334.706.555l.482-.042c-.193.479.229.761.512,1.033l.6.238c-.815.815-.372,2.078-1.219,2.972.316.89-.969,2.236.508,2.493.192.214-.381.66-.025.871-.1.008-.076.13-.137.224a.5.5,0,0,1,.035.778.6.6,0,0,0-.646.741c.015.424.441.406.544.724.329.685-.847.9-.355,1.575.029.683-.818.65-.662,1.243.5.613.527-.557.96-.015.024.287.024.519.289.668.365.075.595-.322.531-.624-.266-.15-.233-.462-.177-.718.153-.264.482-.273.639-.606.237.163.478.489.714.189-.14-.4.189-1.108-.437-1.167-.325.4-.507,1.144-1.2,1.079.326-.4-.4-.852.269-1.076a.331.331,0,0,0-.032-.383,3.071,3.071,0,0,0,.977-1.445c-.088-.359-.039-.71-.325-.985.061-.555.483-.968.435-1.544a2.432,2.432,0,0,0,1.647.416c.651-.81,1.835-.924,2.242-1.991a2.991,2.991,0,0,0,1.073-2.149c-.221-.2-.43.087-.638.142.5-.544,1.312-1.128,1.133-2.008.112-.049.373.169.57.085.366.3-.362.783-.017,1.2a15.727,15.727,0,0,0-.561,4.111c-.294-.139-.582-.344-.545-.723.008-.139.073-.3-.028-.453-.293-.137-.65.116-.839.3.055.9-1.009,1.525-.721,2.426-.02.108-.124.253-.02.34.718.12.29-.952,1.008-.832a2.757,2.757,0,0,1-.522,1.417c.236.163-.077.363.091.521.293.138.715-.043.7.392l.06.14c.462.066.638-.374.848-.662.14-.293-.22-.9.269-.844a18.357,18.357,0,0,0,5.295,10.581c-.17.533.448.268.649.58.534.463,1.152,1.124,1.789,1.211.1.456.691.134.771.628.662.145,1.166.852,1.821,1.131.169.161.345-.049.526-.094.156.363.606.169.823.441.649.115,1.272.94,1.926.524.02.125.144.1.224.136.317-.04.758.368,1.16.292.515-.815.9.539,1.505.012.27.084.483.422.79.29.265-.546.818.275,1.185-.347,1.05.507,2.079.03,3.123-.023.525-.558,1.1.155,1.633-.308.3.072.53-.162.591-.486.393-.169,1.308.329,1.208-.52.8.382,1.072-.76,1.866-.31.133-.156.457-.329.213-.587.2-.221.725-.015.756-.492.818.276.71-1.132,1.521-.72a16.8,16.8,0,0,0,6.488-12.784c.338-.841-.183-1.74.287-2.5a18.03,18.03,0,0,0-1.184-5.378.341.341,0,0,1-.284-.273l.2-.316c.518.042.649.811,1.047.575.811-.979-1.035-.778-.5-1.7-.887-.047-.108-.945-.737-1.17.372-.524-.535-.464-.434-1a.374.374,0,0,0-.4.007c-.3.393.315.888-.155,1.191a12.916,12.916,0,0,0-1.807-2.725,1.975,1.975,0,0,1-1.05-.969c.478-.206.425-.712.667-1.082-.273-.477-.538-1.092-1.173-1.016-.417.346-.545-.261-.926-.3a.748.748,0,0,0-.461-.528c-.174.373-.446.821.129,1.07l.083.2a23.088,23.088,0,0,0-5.472-3.031c.184-.113.24-.367.333-.542-.084-.193-.176-.485-.4-.388-.357.485-1.044.517-1.581.583-.1-.154-.566-.154-.276-.41a1.137,1.137,0,0,0,.67-.685c-.8-.084-1.361-1.067-2.015-.421.262.218.021.586-.165.7-1.468,1-3.162.24-4.727.552a23.252,23.252,0,0,0-6.955,2.27l-.611.594c-.891.252-1.3-1.323-1.918-.2l.228.529c-.446.126-.57.609-.751.886.686.2.811-.747,1.454-.726-.184.576-1.016.735-1.258,1.335-.326.174-.927-.063-.9.551.1.156.281.11.422.05l.148.5-.562.243c-.059-.834-1.123-.211-.97-1.169.269-.381.1-.771.124-1.179-.646.046-.289-.669-.85-.658-.305.527-.61-.1-1.015.04-.046-.178.229-.4.076-.594-.882-.115-1.265.776-1.9,1.15.032.615.908-.06.709.719-.42.413-1.786.8-.915,1.586-.217.424.055,1.133-.631,1.165a3.962,3.962,0,0,0-.82.881.753.753,0,0,0,.742.408c.406-.141.739-.451.984.038.118.117,0,.235-.019.341a4.634,4.634,0,0,1-.537-.165,2.744,2.744,0,0,1-1.375.756c-.091-.291-.224-.6-.577-.642-.907.06-.351,1.043-.943,1.366-.021.339.71.256.288.669-.531.626-1.5.151-1.8,1.007-.981.124-.168-.852-.486-1.279a4.685,4.685,0,0,1,1.426-.945l.25-.736c1.012.027.859-1.1,1.362-1.71-.464-1.387,1.078-2.217,1.87-3.087-.186-.352-.731-.381-.888-.744.566.616,1.049-.352,1.49-.642.406-.374.39-1.028.9-1.245.19-.18-.016-.424-.147-.5l-.081-.033c.262-.475,1.262-.707.745-1.444.4-.3.914-.428,1.26-.941a2.336,2.336,0,0,0,.27-1.075c-.4-.225-.774.135-1.063.161a2.164,2.164,0,0,0,.353-.648l-.084-.2-.9.32a.735.735,0,0,0-.046-1.037c-.891-.675-1.9,1.082-2.4-.389.583-.35-.135-.932.018-1.429.14.171.116.578.488.749a2.766,2.766,0,0,0,.868-.772c-.051-.507-.686-.2-.826-.6.634.156.514-.585.864-.935l-.064-.535c1.164-.237,2.151.428,3.314.423a2.281,2.281,0,0,1,.672-.685c.135.47.847.263.77.859a19.516,19.516,0,0,0,2.673-.062.992.992,0,0,0,.991-.1c-.3-1,.943-.209.807-1.143-.1-.154-.007-.327-.148-.5l.141-.061c.4.622.26,1.145.464,1.851.217.038.421.28.6.072.245-.436-.581-.807.049-1.046.077-.364.118-.811.218-1.12.252.123-.109.445.055.671.326.29.7-.07.932-.236.329-.473-.446-.337-.4-.784l.141-.061c-.02.107.129.144.171.092.254-.343.783-.5.749-1.05-.659-.676-1.8.475-2.144-.566a.612.612,0,0,0-.655.184c.011.258-.265.312-.442.288l-.04-.478c-.312.2-.906-.4-.975.289-.072.759.979.57.774,1.253-.457-.132-.686-.662-1.159-.292-.345-.182-.771.066-.939-.322.012-.2.366-.391.134-.622-.494.248-.65-.347-1.152-.2-.2-.474.606-.757.351-1.276.594-.091,1.2-.916,1.77-.3.453.2.674-.292.907-.523-.032-.152.133-.389-.124-.443a1.376,1.376,0,0,1-.9-.24c.262-.707,1.434-.386,1.225-1.256.013-.2.293-.325.427-.481.369.007.144.336.229.531-.057.718-1.106,1.3-.431,1.938.449.268.991-.329,1.457-.331a.406.406,0,0,0,0-.4l-.678-.1c.377-.591,1.366-.852,1.711-1.6a1.535,1.535,0,0,1,.457.133,7.617,7.617,0,0,0-1.1,1,.573.573,0,0,0,.008.558,1.268,1.268,0,0,0,1.047-.352c.273-.217-.148-.731.354-.649.225.134.257.749.743.406.469-.533-.051-1.2.55-1.659.126-.021.165.228.253.355-.081.2-.389.333-.253.572.578.181.546-.665,1.16-.631a.878.878,0,0,0-.047-1.039c-.268-.313-.678-.1-1.015-.191-.2.616-1.06.789-1.569.844-.141-.172-.082-.5-.369-.47-.41.673-1.086.268-1.61.133-.357.021-.337.377-.59.486-.085-.2-.221.027-.366-.075-.144.127-.253.341-.45.425a2.932,2.932,0,0,1,.33-1.631c.92.2.869-1.234,1.686-.728.2-.221-.087-.359-.119-.51.277-.053.66-.482.815-.12.208-.056.474.095.558-.174a.665.665,0,0,1,.221-.955c.334-.079.5.381.819.044.229-.4.448-.821.13-1.245-.249-.192-.478-.027-.7.07.077-.132-.04-.247-.088-.358a6.394,6.394,0,0,0-3.661.784c-.161.17.056.209.144.336-.042.445.075,1.024-.5,1.239-.076-.332.074-.758-.268-1.009a5.3,5.3,0,0,0-2.3.066c-.289-.206-.145-.565-.518-.5a19.885,19.885,0,0,1,2.538-.763.9.9,0,0,0,.217-.424l-.168-.392a.757.757,0,0,0,.554-.57l-.365-.3a2.689,2.689,0,0,1,1.74-1.147c.232.23.589.44.653.744.358.44.507-.452.819.043.216.734,1.019.354,1.5.543.221-.492.534-1.155,1.168-1,.337.317.859.754,1.365.536.437-.453-.091-.986.274-1.374.6-.921,1.847-.2,2.384-1.193.181-.046.33-.242.511-.055-.1.076.044.18.051.277.318.192.67.007.935.157-.655.414.408.718-.017,1.2.144.1.213.339.456.363l.363-.088c-.022.571.484.815.938,1.017.333.154.654-.183.987-.26.021.123.145.1.225.134.4-.306.59.209.972.244a.722.722,0,0,0,.757.6c.82-.883.771.627,1.477.488.289.438.867.155,1.167.622.514.57,1.461-.168,1.745.569a1.992,1.992,0,0,0,1.5-.083c.21.339.459.76.909.8.409-.442.862.223,1.268-.15.057.671.951-.113.826.6.5.38.554-.337.956-.412.2.242.12.742.325.985a2.2,2.2,0,0,1,1.674.865c.517.042.821.671,1.4.321l.2.473a22.216,22.216,0,0,1,3.751,2.75,3.973,3.973,0,0,0,2.787,1.674c.082-.2.314-.2.443-.29l.12.047c-.236.3-.843.595-.338,1.072.18.419.69.364,1.02.355a.621.621,0,0,0,.127.837c.651.116.642.948,1.277,1.1.854,1.054,1.72,2.134,2.573,3.188.5.612-.5,1.471.465,1.85-.178.672,1.023.286.553,1.051-.013.2.2.244.364.306.321-.105.218-.887.671-.456a54.081,54.081,0,0,1,3.643,6.6l-.02.339c-.739-.243-.326,1.1-1.144.825a.511.511,0,0,0,.031.613c.193.215.35-.116.534,0,.084-.268.333-.542.212-.819a.373.373,0,0,1,.631-.008,5.631,5.631,0,0,1,.559,2.768l-.477-.025.081-.2c-.425-.213-.4.469-.707.6a.578.578,0,0,0,.043.643c.3.235.369-.226.7-.235-.012.436.53.3.545.724a.551.551,0,0,0-.615.661,1.709,1.709,0,0,0,.91.566c-.128.09.017.193.024.289.164.227.434-.153.482.188-.464.234-1.093.637-.827,1.25.453.434-.021,1.035.576,1.34.108.482-.887.877-.39,1.49-.134.156-.034.31.039.479.2.079.5.081.543.328.227.068.3-.229.417-.344a2.165,2.165,0,0,0-.271-1.4l.171-.141c.173.091.2.379.425.445.41.022.041-.448.45-.426a24.374,24.374,0,0,1,.423,2.993l.738.243c-.028.245.276.642-.05.815-.4-.225.355-.649-.2-.706-.854.336-.226,1.254-.332,1.861.166.228.406-.141.425.216-.8.542-.254,1.5-.395,2.253a1.309,1.309,0,0,0,.007.789l.2.079c-.02.11-.276.055-.2.318l.2.077c0,.232-.414.278-.226.561.212.105.59-.023.458.364-.483.275.152.662.035,1.01-.984.657-.41,1.6-.563,2.558.231.231.024.52.007.79a.915.915,0,0,0-.932.236c.015.886-.916.658-1.008,1.526.538.627.539-.529,1.048-.352.131.306-.094.635-.167.93.149.267-.144.592.093.754.067-.228.092-.4.333-.54a6.718,6.718,0,0,1-.472,3.542c.161.063.159.294.26.45-.021.339-.353.416-.53.624a.733.733,0,0,0-1.136-.005l-.056.025c-.053-.278.425-.483.365-.854-.328-.222-.139-.633-.628-.687-.377.13-.341.677-.467.929a5.045,5.045,0,0,0-.614,1.354c-.1.145-.261.247-.3.462.293.6,1.1-.309,1.386.2l-.446,1.051c.16.064.3-.065.457-.1a.474.474,0,0,1,.354-.419c.06.141-.133.389.124.445-.506.448-.033,1-.617,1.355-.514,1.744-1.671,3-2.515,4.523a2.288,2.288,0,0,1-.7,1.393c-.056.024-.157.1-.221.029-.063-.3.438-.685.044-.978-.3,0-.412-.417-.7-.162-.228.4-.659.715-.675,1.218.426-.018.285.737.744.409a.545.545,0,0,1,.006.557c-.557.176-.738.683-1.087,1.032a30.123,30.123,0,0,1-5.062,4.96c.21-.29.522-.492.667-.849-.16-.065-.441.057-.481-.191l.394-.4-.518-.274c.073-.063.025-.175,0-.23a.444.444,0,0,0-.4.006c-.2.385.168,1.085-.246,1.133-.269.147-.426.481-.778.434-.254.34.552.818-.131,1.013l-.567.311c-.063-.3.087-.962-.488-.748-.622.566-2.088.8-1.755,1.881.348.345.582-.581.763.069-.353.416-1.017.5-1.265,1.007.638-.376,1.537-.761,2.2-1.243l.108.249c-1.413,1.206-3.345,1.906-4.742,3.072-.915.658-2.364.854-3.281,1.513Z" transform="translate(-187.18 -118.227)" fill="#cccb00"/>
          <path id="Trazado_99" data-name="Trazado 99" d="M360.465,337.564c.12-.184.369-.224.594-.321C360.783,337.3,360.714,337.523,360.465,337.564Z" transform="translate(-296.724 -256.838)" fill="#cccb00"/>
          <path id="Trazado_100" data-name="Trazado 100" d="M304.844,347.839a12.99,12.99,0,0,1-2.845.434,6.7,6.7,0,0,1-3.022-.284c.305-.528,1.83.07,1.393-1.1-.232,0-.594.089-.637.374-.081-.262-.821-.275-.551-.657a.889.889,0,0,0,.624-.8c.545-.2,1.108-.677,1.658-.252a.551.551,0,0,1,.678-.127c.262.218-.519,1.116.289.671-.184-1.047.851-.268,1.036-1.076.294.137.04.478.147.73a1.647,1.647,0,0,1-.932.931c.085.427.374-.062.57.085a.96.96,0,0,0,.755-.725l-.144-.333c1.136.007,1.423-1.573,2.553-1.267.125-.02.257-.176.374-.062-.4.47.337.55.592.605l.567-.311c.06.139.188.283.055.439-.946.507-2.228.629-2.132,1.778.145.336.658-.02.8.383l.6.075a3.4,3.4,0,0,1-1.947.508Z" transform="translate(-257.809 -261.334)" fill="#cccb00"/>
          <path id="Trazado_101" data-name="Trazado 101" d="M328.739,347.223c.178.024.145.336.053.508A.343.343,0,0,1,328.739,347.223Z" transform="translate(-276.588 -263.154)" fill="#cccb00"/>
          <path id="Trazado_102" data-name="Trazado 102" d="M358.842,306.962a3.72,3.72,0,0,1,.166-1.163,13.95,13.95,0,0,1,2.747-1.746c.221-.49,1.128-.321,1.181-.971.425-.018.313-.432.53-.626,1.177-.9,2.237-1.921,3.439-2.771a.307.307,0,0,1,.285.275c-.025.176-.226.327-.073.527.464,0,.594-.554.77-.993-.231-.232.121-.186.145-.362.089-.568-.379-1.423.5-1.635.245-.667.892-.947,1.306-1.456a34.039,34.039,0,0,1,2.31-3.145c.362-.321.71.025.685.431l-.161.4.482.189a.747.747,0,0,1-.767.463l-.08-.033c-.169.3.272.71-.19.876-.3.16-.514-.11-.739-.245.08.263-.326.869.325.754a.441.441,0,0,1,0,.4c-.755-.206-1.344.28-1.943.67.145.1.361.142.457.366a1.675,1.675,0,0,1-1.181.74c.629.688-.655,1.573.051,2.359-.152.264-.461.4-.707.6a.613.613,0,0,0-.425-.446c-.273.217-.461.4-.84.3-.12-.046-.224-.134-.337-.084a.3.3,0,0,0,0,.393c.213.338.759.6.678,1.03-.386.267-.434-.308-.82-.042-.087-.36-.477-.257-.731-.381-.232.233-.478-.025-.678-.1-.092.4.248,1.347-.606,1.22-.158,1.491-1.727,1.406-2.21,2.606-.546.2-1.061.094-1.575.447-.943-.256-.683,1.122-1.518,1.349Z" transform="translate(-295.693 -228.692)" fill="#cccb00"/>
          <path id="Trazado_103" data-name="Trazado 103" d="M379.236,320.068c-.077-.1,0-.232.021-.339.083-.038.169-.073.232,0C379.778,319.933,379.346,320.086,379.236,320.068Z" transform="translate(-308.583 -245.726)" fill="#cccb00"/>
          <path id="Trazado_104" data-name="Trazado 104" d="M369.009,324.557l-.048-.112a.178.178,0,0,1,.309.1A.258.258,0,0,1,369.009,324.557Z" transform="translate(-302.101 -248.701)" fill="#cccb00"/>
          <path id="Trazado_105" data-name="Trazado 105" d="M386.787,314.661c.13-.32.274-.681.588-.649A.792.792,0,0,1,386.787,314.661Z" transform="translate(-313.382 -242.134)" fill="#cccb00"/>
          <path id="Trazado_106" data-name="Trazado 106" d="M313.4,344.607c.217-.191.206-.684.622-.566C314.259,344.5,313.537,344.452,313.4,344.607Z" transform="translate(-266.939 -261.129)" fill="#cccb00"/>
          <path id="Trazado_107" data-name="Trazado 107" d="M297.394,348.277l.362-.088c.137-.225-.249-.193.113-.281l.144.333C297.8,348.434,297.587,348.26,297.394,348.277Z" transform="translate(-256.807 -263.588)" fill="#cccb00"/>
          <path id="Trazado_108" data-name="Trazado 108" d="M323.628,332.7a.452.452,0,0,1,.169-.536c.16.064.442-.058.482.188C324.234,332.639,323.86,332.7,323.628,332.7Z" transform="translate(-273.395 -253.625)" fill="#cccb00"/>
          <path id="Trazado_109" data-name="Trazado 109" d="M320.782,332.361c.173.322-.321.337-.354.649C320.059,332.771,320.738,332.646,320.782,332.361Z" transform="translate(-271.316 -253.748)" fill="#cccb00"/>
          <path id="Trazado_110" data-name="Trazado 110" d="M279.282,347.922c-.116-.347-.654-.512-.493-.912.362-.089.988.2,1.016-.272.2-.385.707.092,1.072-.3-.31.134-.427.484-.672.687l.056.67C279.944,347.837,279.6,347.652,279.282,347.922Z" transform="translate(-245.013 -262.659)" fill="#cccb00"/>
          <path id="Trazado_111" data-name="Trazado 111" d="M397.335,298.22c-.24-.326.234-.464.37-.689l.337-.145a2.3,2.3,0,0,1-.526,1.022Z" transform="translate(-320.016 -231.613)" fill="#cccb00"/>
          <path id="Trazado_112" data-name="Trazado 112" d="M285.987,345.228c-.175-.485.274-.679.446-1.052.182.188.992.135.686.665C287.068,345.49,286.381,345.291,285.987,345.228Z" transform="translate(-249.563 -261.225)" fill="#cccb00"/>
          <path id="Trazado_113" data-name="Trazado 113" d="M309.795,333.354a1.327,1.327,0,0,1,.3-1.318c.543-.6.731.379,1.265.149a.652.652,0,0,1-.106.837c-.321.338-.883-.116-1.212.358C309.973,333.378,309.857,333.261,309.795,333.354Z" transform="translate(-264.625 -253.418)" fill="#cccb00"/>
          <path id="Trazado_114" data-name="Trazado 114" d="M304.876,333.871c.064-.16-.145-.334.029-.474.345-.049.262-.477.33-.706.305.167.6-.091.814-.119A2.076,2.076,0,0,1,304.876,333.871Z" transform="translate(-261.516 -253.882)" fill="#cccb00"/>
          <path id="Trazado_115" data-name="Trazado 115" d="M300.256,333.663l-.1-.224c.746-.124.811-.979,1.714-.971.165-.005.14.171.205.241a1.565,1.565,0,0,1-.559.408.31.31,0,0,0-.4.006c-.109.211.3.466.031.615A1.1,1.1,0,0,1,300.256,333.663Z" transform="translate(-258.558 -253.816)" fill="#cccb00"/>
          <path id="Trazado_116" data-name="Trazado 116" d="M277.213,343.764a1.16,1.16,0,0,1,1.232-.465c.125.21.626.292.373.632A4.847,4.847,0,0,1,277.213,343.764Z" transform="translate(-244.035 -260.643)" fill="#cccb00"/>
          <path id="Trazado_117" data-name="Trazado 117" d="M298.324,335.557c.007-.137.185-.114.313-.2l.116.115C298.6,335.5,298.468,335.659,298.324,335.557Z" transform="translate(-257.396 -255.643)" fill="#cccb00"/>
          <path id="Trazado_118" data-name="Trazado 118" d="M274.883,344.079l.109.018-.081.2-.08-.033Z" transform="translate(-242.527 -261.165)" fill="#cccb00"/>
          <path id="Trazado_119" data-name="Trazado 119" d="M297.931,332.911c-.029-.219.034-.312.241-.368.109.019.116.115.153.2A.373.373,0,0,1,297.931,332.911Z" transform="translate(-257.143 -253.864)" fill="#cccb00"/>
          <path id="Trazado_120" data-name="Trazado 120" d="M294.267,333.656c.044-.516.49-.642.831-.855A1.055,1.055,0,0,1,294.267,333.656Z" transform="translate(-254.828 -254.027)" fill="#cccb00"/>
          <path id="Trazado_121" data-name="Trazado 121" d="M265.306,345.341c-.1-.087,0-.232.02-.339a.965.965,0,0,1,.739.012c.031.15.288.438-.058.486C265.846,345.206,265.541,345.5,265.306,345.341Z" transform="translate(-236.47 -261.703)" fill="#cccb00"/>
          <path id="Trazado_122" data-name="Trazado 122" d="M271.646,342.5l.2.473-.738-.243Z" transform="translate(-240.174 -260.165)" fill="#cccb00"/>
          <path id="Trazado_123" data-name="Trazado 123" d="M265.8,340.569l.081-.2a1.319,1.319,0,0,0,1.183.348l.261.451C266.773,340.581,266.122,341.391,265.8,340.569Z" transform="translate(-236.813 -258.818)" fill="#cccb00"/>
          <path id="Trazado_124" data-name="Trazado 124" d="M401.693,277.46c-.163-.459.319-.964.58-1.441.4-.005.389-.8.815-.351.056.439-.5.313-.621.566C402.059,276.608,402.227,277.228,401.693,277.46Z" transform="translate(-322.795 -217.783)" fill="#cccb00"/>
          <path id="Trazado_125" data-name="Trazado 125" d="M249.574,338.338c-.064-.072-.019-.125,0-.164l.225-.1.12.279C249.787,338.445,249.683,338.357,249.574,338.338Z" transform="translate(-226.521 -257.366)" fill="#cccb00"/>
          <path id="Trazado_126" data-name="Trazado 126" d="M238.492,327.9a4.52,4.52,0,0,0-2.039-.478,3.358,3.358,0,0,0-2.805-.709c-.214-.105-.743-.175-.65-.578-.308-.562-1.015-.191-1.44-.4.1-.376.566-.311.834-.46.558.29.891-.484,1.381.034.225-.327.495-.709.868-.772.67.473-.463,1.093.131,1.466a2.75,2.75,0,0,0,1.025-1.566.322.322,0,0,1,0-.4c.337.087,1.052-.187,1.019.356.077.561-.514.585-.715.968.253.123.527-.093.758-.095.01-.367.278-.749.672-.687a.4.4,0,0,1,.449.5l-.246.666.594.141c.137-.225-.328-.685.25-.736.188.05.224.366.449.269a.8.8,0,0,1,.183.813c-.056.487-.79.408-.727.943.438.241.694.757,1.252.815l.06.14C239.291,328.284,239.03,327.6,238.492,327.9Z" transform="translate(-215.141 -248.481)" fill="#cccb00"/>
          <path id="Trazado_127" data-name="Trazado 127" d="M245.038,335.4c-.049-.112.084-.268.108-.446.4.091,1.011.259,1.026.684C245.783,335.971,245.342,335.566,245.038,335.4Z" transform="translate(-223.665 -255.39)" fill="#cccb00"/>
          <path id="Trazado_128" data-name="Trazado 128" d="M239.98,339.026l-.023-.054a.25.25,0,0,1,.328-.011C240.2,339,240.085,339.116,239.98,339.026Z" transform="translate(-220.456 -257.89)" fill="#cccb00"/>
          <path id="Trazado_129" data-name="Trazado 129" d="M266.437,324.813c-.052-.043-.007-.095,0-.163.188-.18.341.018.457.133C266.746,324.911,266.574,324.822,266.437,324.813Z" transform="translate(-237.199 -248.823)" fill="#cccb00"/>
          <path id="Trazado_130" data-name="Trazado 130" d="M414.3,257.592a12.784,12.784,0,0,1,.171-2.156c.557.751-.134,1.314.026,2.071Z" transform="translate(-330.788 -205.064)" fill="#cccb00"/>
          <path id="Trazado_131" data-name="Trazado 131" d="M267.006,322.806c-.128-.143.008-.367.137-.455.055-.024.157-.1.221-.029C267.513,322.589,267.2,322.722,267.006,322.806Z" transform="translate(-237.543 -247.376)" fill="#cccb00"/>
          <path id="Trazado_132" data-name="Trazado 132" d="M263.895,323.441c-.035-.084-.148-.267.033-.312l.2-.084C264.157,323.2,264.228,323.6,263.895,323.441Z" transform="translate(-235.564 -247.853)" fill="#cccb00"/>
          <path id="Trazado_133" data-name="Trazado 133" d="M235.8,332.867c-.015-.191.249-.04.374-.062l.085-.035C236.262,333,235.988,332.987,235.8,332.867Z" transform="translate(-217.827 -254.007)" fill="#cccb00"/>
          <path id="Trazado_134" data-name="Trazado 134" d="M262.329,319.214a1.2,1.2,0,0,1,.073-.99c.185-.112.293-.325.542-.366A1.471,1.471,0,0,1,262.329,319.214Z" transform="translate(-234.571 -244.57)" fill="#cccb00"/>
          <path id="Trazado_135" data-name="Trazado 135" d="M251.7,318.938c.039-.449-.479-.258-.662-.609-.241.138-.389-.13-.457-.364,0-.463.5-.314.762-.394.574.017,1.02-.111,1.5.311.137.935.958-.412,1.072.4l-.16.4c.285.042.565.152.839-.065.257.287-.109.444-.189.643A3.093,3.093,0,0,1,251.7,318.938Z" transform="translate(-227.179 -244.384)" fill="#cccb00"/>
          <path id="Trazado_136" data-name="Trazado 136" d="M256.674,315.569c-.206-.475.4-.7.345-1.209l.2-.086.263.382c.246.027.286-.42.559-.173.139.634-.718.807-1.084,1.195Z" transform="translate(-231.009 -242.302)" fill="#cccb00"/>
          <path id="Trazado_137" data-name="Trazado 137" d="M238.982,323.131c-.076-.1,0-.232.021-.338.169-.073.325-.175.482-.042.141.17.007.326-.057.486C239.238,323.416,239.127,323.234,238.982,323.131Z" transform="translate(-219.818 -247.625)" fill="#cccb00"/>
          <path id="Trazado_138" data-name="Trazado 138" d="M407.747,247.018c-.111-.646-.16-1.221-.28-1.963l-.143-.334.449-.194c-.024.408.559.289.41.717C407.832,245.824,408.285,246.488,407.747,247.018Z" transform="translate(-326.379 -198.159)" fill="#cccb00"/>
          <path id="Trazado_139" data-name="Trazado 139" d="M244.159,311.1c-.063-.534-.609-.795-1.03-1.077.019-.108.136-.224.032-.311-.257-.055-.305-.165-.265-.382.137-.457.695-.167.9-.551.213-.588.519-1.348,1.234-1.391.245.489-.72.805.016,1.118.4.689-.472.765-.524,1.417.627-.172.569,1.01,1.188.511-.117.348-.081.9-.587.881A1.035,1.035,0,0,1,244.159,311.1Z" transform="translate(-222.308 -237.943)" fill="#cccb00"/>
          <path id="Trazado_140" data-name="Trazado 140" d="M252.32,315.748c-.181-.187.084-.269.134-.388C252.71,315.415,252.525,315.758,252.32,315.748Z" transform="translate(-228.241 -242.989)" fill="#cccb00"/>
          <path id="Trazado_141" data-name="Trazado 141" d="M352.686,271.527c-.106-.087-.029-.218.019-.339l.2-.085C353.043,271.274,352.906,271.5,352.686,271.527Z" transform="translate(-291.767 -214.979)" fill="#cccb00"/>
          <path id="Trazado_142" data-name="Trazado 142" d="M351.273,272.5c-.053-.044-.021-.123,0-.164l.141-.061.059.14Z" transform="translate(-290.888 -215.72)" fill="#cccb00"/>
          <path id="Trazado_143" data-name="Trazado 143" d="M279.519,300.053c.012-.2-.137-.471.157-.565.294.138.562.221.682.5A.455.455,0,0,1,279.519,300.053Z" transform="translate(-245.477 -232.944)" fill="#cccb00"/>
          <path id="Trazado_144" data-name="Trazado 144" d="M249.395,313.561c-.222-.2.04-.448.145-.59.113-.05.228-.165.362-.091A.573.573,0,0,1,249.395,313.561Z" transform="translate(-226.374 -241.404)" fill="#cccb00"/>
          <path id="Trazado_145" data-name="Trazado 145" d="M354.239,261.7c.041-.215.4-.14.381-.428-.4-.226-.132-.539.165-.7.234,0,.245-.2.309-.366-.123-.211-.015-.423-.179-.651.29-.255,1.208-.057,1.1-.771.033-.079.04-.215.137-.224a.347.347,0,0,1,.285.275c-.5.382.006,1.02-.547,1.36-.391.563-.447,1.516-1.231,1.785l-.112.281C354.463,262.063,354.126,261.978,354.239,261.7Z" transform="translate(-292.769 -207.04)" fill="#cccb00"/>
          <path id="Trazado_146" data-name="Trazado 146" d="M341.4,271.88l.116.115-.2.085Z" transform="translate(-284.606 -215.471)" fill="#cccb00"/>
          <path id="Trazado_147" data-name="Trazado 147" d="M276.445,298.531c-.036-.083-.1-.154-.026-.22.193-.248.352.046.562-.011l.051.275C276.83,298.728,276.615,298.457,276.445,298.531Z" transform="translate(-243.511 -232.135)" fill="#cccb00"/>
          <path id="Trazado_148" data-name="Trazado 148" d="M249.373,310.936a.411.411,0,0,1,.276-.287C249.841,310.866,249.533,311,249.373,310.936Z" transform="translate(-226.416 -240.007)" fill="#cccb00"/>
          <path id="Trazado_149" data-name="Trazado 149" d="M239.473,313.909c-.015-.189.173-.139.337-.143l.236.393C239.785,314.4,239.689,313.95,239.473,313.909Z" transform="translate(-220.149 -241.978)" fill="#cccb00"/>
          <path id="Trazado_150" data-name="Trazado 150" d="M345.472,256.838c-.252-.816.4-1.463.151-2.279.471-.765.575-1.835,1.19-2.265.374-.294.27-.844.522-1.185-.34.444.29.67.268,1.009.5.082.06.6.117.81.008.1-.1.144-.16.168-.258-.054-.238-.857-.71-.488.413.88-1.574,1.373-.322,2.189.245.027.229-.4.5-.149.031.846-1.4,1.164-1.02,1.962A.3.3,0,0,1,345.472,256.838Z" transform="translate(-287.198 -202.326)" fill="#cccb00"/>
          <path id="Trazado_151" data-name="Trazado 151" d="M237.266,306.918c-.326-.291.28-.355.388-.566-.171-.322.526-.788-.066-.93-.6.458-1-.3-1.466-.46-.241-.094-.184-.349-.091-.522.386-.264.759.137,1.123-.022.233.23-.164.468-.015.735l.642-.211c-.149.66.558.29.823.44a2.1,2.1,0,0,1-.737,2Z" transform="translate(-217.921 -236.018)" fill="#cccb00"/>
          <path id="Trazado_152" data-name="Trazado 152" d="M358.1,251.653a7.431,7.431,0,0,0,.579-1.44c-.284-.5.129-1.014.238-1.457l.224-.1c.577.41-.062,1.017.039,1.635-.717.507-.022,1.5-.936,1.695Z" transform="translate(-295.228 -200.775)" fill="#cccb00"/>
          <path id="Trazado_153" data-name="Trazado 153" d="M408.071,234.584a.526.526,0,0,1,.068-.924.419.419,0,0,1,.4.39C408.524,234.321,408.283,234.458,408.071,234.584Z" transform="translate(-326.699 -191.282)" fill="#cccb00"/>
          <path id="Trazado_154" data-name="Trazado 154" d="M235.054,300.446a1.323,1.323,0,0,1,.274-.91c.325.29.5.707,1,.857.141.17-.012.2-.088.337A1.474,1.474,0,0,1,235.054,300.446Z" transform="translate(-217.353 -232.974)" fill="#cccb00"/>
          <path id="Trazado_155" data-name="Trazado 155" d="M228.414,304.753c0-.162.174-.14.3-.229.137.007.113.184.178.256C228.82,305.074,228.45,304.837,228.414,304.753Z" transform="translate(-213.151 -236.131)" fill="#cccb00"/>
          <path id="Trazado_156" data-name="Trazado 156" d="M218.633,309.036c-.077-.1.024-.176.056-.257.1-.076.178.024.257.054.129.143-.047.122-.028.245C218.818,309.154,218.742,309.055,218.633,309.036Z" transform="translate(-206.943 -238.806)" fill="#cccb00"/>
          <path id="Trazado_157" data-name="Trazado 157" d="M227.579,296.655c.177-.672-1.158-1.684.178-1.828-.4-.322-.239-.79-.215-1.2.145-.129.285.042.433.079.176.253-.256.409-.165.7.449.269.413,1.112.971.939.047-.122.056-.258.192-.249.466.461.3.764.007,1.253A1.224,1.224,0,0,1,227.579,296.655Z" transform="translate(-212.355 -229.206)" fill="#cccb00"/>
          <path id="Trazado_158" data-name="Trazado 158" d="M230.517,300.4l.2-.086c.077.1-.024.176-.137.225Z" transform="translate(-214.482 -233.469)" fill="#cccb00"/>
          <path id="Trazado_159" data-name="Trazado 159" d="M349.947,247.442a.339.339,0,0,1,.1-.539C350.06,246.931,350.275,247.433,349.947,247.442Z" transform="translate(-290.009 -199.664)" fill="#cccb00"/>
          <path id="Trazado_160" data-name="Trazado 160" d="M238.368,275.668c-.4-.321.282-.817-.338-.944-.21.288-.825.254-.784.734.048.111.052.276.2.31-.023.176-.2.085-.289.026A10.172,10.172,0,0,1,234.421,273c.141-.061.5.148.479-.207a.5.5,0,0,0-.389-.361l-.225.1a.766.766,0,0,0-.1-.455c-.217-.271-.57.146-.626-.293a1.158,1.158,0,0,1,.671-.917,4.949,4.949,0,0,0,.858.521c-.269-.545-.256-1.674-1.235-1.55-.088.334-.2.779-.3,1.155l-.273.447a1.146,1.146,0,0,0-.425-.213c-.763.164.521,1.594-.691,1.024-.386.267.1,1.246-.7.93.02-.338-.553-1.051.129-1.014.333-.078.337-.609.467-.928.116-.349-.369-.47-.281-.805.205.012.514.341.762.069.161-.633-1.061-1.692.179-1.83l.08.031c.265-.313-.212-.8.33-.936.285.044.3.465.623.36.562-.242.651-1.042,1.3-1.089,1.188.977-1.228,1.556-.042,2.533a.593.593,0,0,1,.968.542c-.343.446.6,1.162-.3,1.319-.184-.119-.368-.006-.565-.153a.883.883,0,0,0,.77.857c.22-.26.494.218.7-.07-.1-.454.973-.914,0-1.09-.024-.519-.051-1.2.378-1.518.31-.364-.2-.706-.127-1.07-.067-.466-.244-1.184.559-1.1a1.1,1.1,0,0,1,.565.152c.185.584.631,1.151.24,1.717,1.173.089.128,1.069.837,1.557.2.541,1.557.518.718,1.278-.125.02-.121.183-.257.176l-.285-.507a.948.948,0,0,0-.872.607c.442.175-.057.719.348.808.149.267.365.769.072,1.1-.22.028-.326.17-.394.4.293.138.651.115.791.518C239.015,275.389,238.77,275.825,238.368,275.668Z" transform="translate(-214.953 -212.41)" fill="#cccb00"/>
          <path id="Trazado_161" data-name="Trazado 161" d="M361.29,242.69c-.065-.072-.021-.124,0-.165l.14-.059.059.139Z" transform="translate(-297.224 -196.855)" fill="#cccb00"/>
          <path id="Trazado_162" data-name="Trazado 162" d="M351.729,239.024c-.225-.366-.1-.917-.193-1.371l.17-.536c-.47-.393-.579.514-.928-.065.879.416.8-1.7,1.437-.222a.825.825,0,0,1,.791.52,1.238,1.238,0,0,1-.611.825c-.1-.223.062-.555-.231-.693-.37.224-.022.8-.2,1.173C351.864,238.8,351.921,239.008,351.729,239.024Z" transform="translate(-290.593 -192.952)" fill="#cccb00"/>
          <path id="Trazado_163" data-name="Trazado 163" d="M215.278,283.641a1.646,1.646,0,0,1-.379-1.423c-.754-.2-.632,1.4-1.567.775.1-.7-1.64-1.177-.324-1.448.017-.271.238-.532-.007-.79-.293-.371-.747-.108-1.019-.355-.105-.318.759-.559.186-.807-.193.016-.166.236-.358.253-.369-.007-.144-.334-.2-.474.077-.827-1.167-1.778-.131-2.16.1.088.209-.057.305-.064a1.123,1.123,0,0,0-.011-.955l1.011-.434c.364.766-.779,1.359-.29,2.109a.351.351,0,0,0,.4-.007c-.243.832.852.591.8,1.31-.1.539.577.642.55,1.119.12.046.253.123.341.017.358-.715-.907-.634-.413-1.342,0-.532-.991-.367-.818-.971.124-.483.257-1.1.8-1.236l.224.134c-.132.388-.61.825-.462,1.325,1.409.021.766,1.389,1.6,2.02.658.213-.29,1.414.77.859.382.034.217.733.674.635.454.434-.575,1.139-.062,1.712-.145.361-.55.27-.815.352C215.856,283.59,215.579,283.412,215.278,283.641Z" transform="translate(-202.168 -217.926)" fill="#cccb00"/>
          <path id="Trazado_164" data-name="Trazado 164" d="M235.793,286.756c-.233-.231-.121-.511.072-.758.036-.149.229-.166.37-.227.473.558,1.062,1,1.479,1.578-.008.367-.345.282-.566.31A5.854,5.854,0,0,0,235.793,286.756Z" transform="translate(-217.738 -224.262)" fill="#cccb00"/>
          <path id="Trazado_165" data-name="Trazado 165" d="M225.217,292.328c-.092-.06.037-.148.029-.244l.084-.036A.229.229,0,0,1,225.217,292.328Z" transform="translate(-211.107 -228.235)" fill="#cccb00"/>
          <path id="Trazado_166" data-name="Trazado 166" d="M407.056,212.384c-.047-.112-.176-.254-.088-.357.085-.038.156-.1.221-.03A.233.233,0,0,1,407.056,212.384Z" transform="translate(-326.136 -177.551)" fill="#cccb00"/>
          <path id="Trazado_167" data-name="Trazado 167" d="M260.858,275.113c.068,0,.072-.063.116-.115l.084.195-.141.06Z" transform="translate(-233.684 -217.444)" fill="#cccb00"/>
          <path id="Trazado_168" data-name="Trazado 168" d="M251.95,266.306c-.064-.534-.851-.425-.806-.94-.723-.286-.979-1.265-1.641-1.41-.172-.324-.232-.694-.686-.664-.052-.507-.818-.97-.5-1.539a1.573,1.573,0,0,0,1.438-.685l.337-.145a.564.564,0,0,1-.1.839c-.2.085-.225.328-.334.54.229.066.16.527.509.408.3-.065.61-.13.738.244-.192.481.613.264.393.759.641.714.689,1.751,1.105,2.565C252.263,266.337,252.107,266.438,251.95,266.306Z" transform="translate(-225.7 -208.537)" fill="#cccb00"/>
          <path id="Trazado_169" data-name="Trazado 169" d="M395.555,211.265c-.345-.413-.08-.957-.461-1.455l.08-.2c.174.091.285.273.542.328.242-.135.563-.241.678.107C396.832,210.748,395.84,210.844,395.555,211.265Z" transform="translate(-318.64 -176.062)" fill="#cccb00"/>
          <path id="Trazado_170" data-name="Trazado 170" d="M407.55,208.374c-.051-.043-.015-.191.094-.171.084-.037.173-.14.277-.053C407.792,208.238,407.776,208.508,407.55,208.374Z" transform="translate(-326.509 -175.116)" fill="#cccb00"/>
          <path id="Trazado_171" data-name="Trazado 171" d="M199.768,293.467a10.831,10.831,0,0,1-1.1-2.171c.843-.131.361,1.068,1.091,1.216C199.654,292.82,200.3,293.3,199.768,293.467Z" transform="translate(-194.323 -227.753)" fill="#cccb00"/>
          <path id="Trazado_172" data-name="Trazado 172" d="M352.77,228.478c-.345-.181-.064-.533-.115-.81l.14-.061C353.043,227.8,353.216,228.352,352.77,228.478Z" transform="translate(-291.743 -187.451)" fill="#cccb00"/>
          <path id="Trazado_173" data-name="Trazado 173" d="M204.612,291.886c.012-.2.085-.5.282-.584C204.962,291.536,204.692,291.687,204.612,291.886Z" transform="translate(-198.087 -227.763)" fill="#cccb00"/>
          <path id="Trazado_174" data-name="Trazado 174" d="M400.374,205.128c.008-.137.184-.114.257-.178.2.077.469.162.4.39C400.832,205.261,400.229,205.718,400.374,205.128Z" transform="translate(-321.967 -173.112)" fill="#cccb00"/>
          <path id="Trazado_175" data-name="Trazado 175" d="M352.017,225.506a.438.438,0,0,1,0-.394c.055-.025.168-.073.233,0C352.333,225.238,352.24,225.642,352.017,225.506Z" transform="translate(-291.346 -185.848)" fill="#cccb00"/>
          <path id="Trazado_176" data-name="Trazado 176" d="M220.91,281.993c-.282-.11-.1-.387-.173-.554l.59.209C221.183,281.776,221.129,281.963,220.91,281.993Z" transform="translate(-208.292 -221.521)" fill="#cccb00"/>
          <path id="Trazado_177" data-name="Trazado 177" d="M394.244,204.912c.313-.664-.786-1.282-.007-1.718a.441.441,0,0,1,0,.4c-.128.553.915.5.48,1.116Z" transform="translate(-317.917 -172.001)" fill="#cccb00"/>
          <path id="Trazado_178" data-name="Trazado 178" d="M394.245,200.27c-.265-.15-.163-.459-.038-.711-.053-.738-.955-.978-1.006-1.715.282-.122.29-.719.674-.524-.092.4.265.613.289.9.1-.076.176.023.285.042a7.341,7.341,0,0,0-.106,1.072c.212.106.634-.076.634.388A.712.712,0,0,1,394.245,200.27Z" transform="translate(-317.442 -168.259)" fill="#cccb00"/>
          <path id="Trazado_179" data-name="Trazado 179" d="M199.271,288.539c.155-.1.393-.169.505.013v.232C199.519,288.959,199.334,288.842,199.271,288.539Z" transform="translate(-194.707 -225.95)" fill="#cccb00"/>
          <path id="Trazado_180" data-name="Trazado 180" d="M231.173,271.875c-.007-.1.1-.144.16-.168l.041.247Z" transform="translate(-214.897 -215.362)" fill="#cccb00"/>
          <path id="Trazado_181" data-name="Trazado 181" d="M393.152,201.8l.065-.161c.109.021.3.07.193.216C393.309,201.928,393.232,201.829,393.152,201.8Z" transform="translate(-317.411 -171.016)" fill="#cccb00"/>
          <path id="Trazado_182" data-name="Trazado 182" d="M223.367,274.547c0-.163.172-.14.245-.206l.084.2C223.607,274.642,223.476,274.566,223.367,274.547Z" transform="translate(-209.957 -217.029)" fill="#cccb00"/>
          <path id="Trazado_183" data-name="Trazado 183" d="M397.38,196.022c-.088-.358.3-.393.249-.736-.674.29-.775-.559-.914-.962a2.344,2.344,0,0,1,1.191.909C398.275,195.7,397.893,196.364,397.38,196.022Z" transform="translate(-319.666 -166.388)" fill="#cccb00"/>
          <path id="Trazado_184" data-name="Trazado 184" d="M227.044,272.3a.306.306,0,0,1,0-.4C227.29,271.869,227.482,272.314,227.044,272.3Z" transform="translate(-212.237 -215.488)" fill="#cccb00"/>
          <path id="Trazado_185" data-name="Trazado 185" d="M235.171,263.959l.446-.821c.392.524.851-.036,1.272-.219.056-.023.156-.1.221-.029.132.539-.322,1.033-.579,1.44a1.084,1.084,0,0,1-.868.539Z" transform="translate(-217.427 -209.763)" fill="#cccb00"/>
          <path id="Trazado_186" data-name="Trazado 186" d="M242.883,262.58c.157.131,0,.465.2.706C243.119,262.974,242.113,262.879,242.883,262.58Z" transform="translate(-222.124 -209.585)" fill="#cccb00"/>
          <path id="Trazado_187" data-name="Trazado 187" d="M221.64,267.409c-.007-.56-.633-1.314-.034-1.706.253-.11.4.225.333.386-.2.549.14.867.388,1.287a.348.348,0,0,1,.285.275c.026.22-.285.188-.31.364C221.808,268.261,221.933,267.547,221.64,267.409Z" transform="translate(-208.678 -211.548)" fill="#cccb00"/>
          <path id="Trazado_188" data-name="Trazado 188" d="M197.993,282.777c.049-.119.085-.267.221-.26C198.274,282.656,198.1,282.728,197.993,282.777Z" transform="translate(-193.898 -222.203)" fill="#cccb00"/>
          <path id="Trazado_189" data-name="Trazado 189" d="M247.7,253.622c-.264-.613.647-.743.467-1.391.056-.025.181-.046.173-.141-.036-.315-.369-.007-.366-.306l.435-.848c.156.593,1.108,1.176.441,1.794.044.179.365.3.148.5-.241.137-.551.037-.558.406.167.157.015.421-.113.511C247.891,254.3,247.836,253.86,247.7,253.622Z" transform="translate(-225.325 -202.216)" fill="#cccb00"/>
          <path id="Trazado_190" data-name="Trazado 190" d="M232.636,261.188c.065-.391-.389-.592-.068-.928.6.3.767-.466,1.294-.56.088-.1.141-.291.333-.309-.121.416.87.551.268,1.009l-.394.169c-.061-.139-.225-.134-.317-.194-.237.069-.253.34-.278.516.129.144-.048.121-.057.256A1.16,1.16,0,0,1,232.636,261.188Z" transform="translate(-215.707 -207.568)" fill="#cccb00"/>
          <path id="Trazado_191" data-name="Trazado 191" d="M228.795,263.3c-.305-.4-.144-.8-.188-1.208.2-.086.329-.473.59-.255C228.811,262.332,229.392,262.909,228.795,263.3Z" transform="translate(-213.27 -209.072)" fill="#cccb00"/>
          <path id="Trazado_192" data-name="Trazado 192" d="M225.7,264.285c-.008-.1.116-.116.172-.14l.08.032C225.884,264.24,225.812,264.536,225.7,264.285Z" transform="translate(-211.436 -210.576)" fill="#cccb00"/>
          <path id="Trazado_193" data-name="Trazado 193" d="M242.494,255.162c-.145-.1-.109-.482-.349-.577.08-.2.373-.294.514-.354l.112-.049C243,254.548,242.743,254.889,242.494,255.162Z" transform="translate(-221.841 -204.27)" fill="#cccb00"/>
          <path id="Trazado_194" data-name="Trazado 194" d="M199.49,270.3c.381-.66-1.1-1.013-.212-1.265-.515.586.645.417.268,1.009l.361.141A.563.563,0,0,1,199.49,270.3Z" transform="translate(-194.528 -213.671)" fill="#cccb00"/>
          <path id="Trazado_195" data-name="Trazado 195" d="M246.064,249.907l-.023-.055.2-.085.047.111C246.2,249.914,246.129,249.98,246.064,249.907Z" transform="translate(-224.307 -201.476)" fill="#cccb00"/>
          <path id="Trazado_196" data-name="Trazado 196" d="M385.974,182.948c-.681-.267.187-1.734-.829-1-.585-.276.1-1-.461-1.222a.82.82,0,0,1,.3-.23.4.4,0,0,0,.284.273l-.027-.45c.261-.013.6-.227.82.044-.009.135-.209.289-.054.42.41.022.927.062,1.213-.357a3.778,3.778,0,0,0,.513,1.035c-.273.448-1.336-.546-.811.516-.228.4-.24-.095-.541-.1C385.511,182.024,386.5,182.623,385.974,182.948Z" transform="translate(-312.051 -157.467)" fill="#cccb00"/>
          <path id="Trazado_197" data-name="Trazado 197" d="M196.049,266.618a2.362,2.362,0,0,1,.05-.814c.261-.013.32.357.517.5C196.419,266.393,196.33,266.728,196.049,266.618Z" transform="translate(-192.66 -211.626)" fill="#cccb00"/>
          <path id="Trazado_198" data-name="Trazado 198" d="M235.619,248.84a.168.168,0,0,1,.024-.177.218.218,0,0,1,.373.171A.411.411,0,0,1,235.619,248.84Z" transform="translate(-217.702 -200.737)" fill="#cccb00"/>
          <path id="Trazado_199" data-name="Trazado 199" d="M193.428,260.718c-.024-.518.739-1.145.016-1.662l-.517-.272c.289-.257.258-1.1.78-1.13l.06.14a.791.791,0,0,0-.534.462,2.53,2.53,0,0,0,1.7,1.482c-.277.283-.774.366-.81.746A1.011,1.011,0,0,0,193.428,260.718Z" transform="translate(-190.692 -206.468)" fill="#cccb00"/>
          <path id="Trazado_200" data-name="Trazado 200" d="M199.781,260.874l.194-.711c.241.093.159.526.039.709C199.958,260.9,199.845,260.946,199.781,260.874Z" transform="translate(-195.03 -208.056)" fill="#cccb00"/>
          <path id="Trazado_201" data-name="Trazado 201" d="M379.163,172.869c.124-.021.317.195.265.382C379.34,173.123,379.055,173.081,379.163,172.869Z" transform="translate(-308.542 -152.808)" fill="#cccb00"/>
          <path id="Trazado_202" data-name="Trazado 202" d="M379.105,168.859a.339.339,0,0,1,.675-.058c-.418.114-.335.541-.073.759l.167.159C379.6,169.541,379.064,169.308,379.105,168.859Z" transform="translate(-308.519 -150.041)" fill="#cccb00"/>
          <path id="Trazado_203" data-name="Trazado 203" d="M238.837,227.714l-.085-.2c.5-.149.732-.546,1.04-.91C239.765,227.081,239.39,227.838,238.837,227.714Z" transform="translate(-219.694 -186.819)" fill="#cccb00"/>
          <path id="Trazado_204" data-name="Trazado 204" d="M223.972,227.415c-.2-.147.04-.446-.069-.7.164-.467.863-.7.443-1.216-.12-.279.047-.584.024-.871.257-.408.678-.127,1.04-.217a1.055,1.055,0,0,1,.011,1.187c-.314.664-1.041,1.142-.994,1.948C224.212,227.74,224.132,227.477,223.972,227.415Z" transform="translate(-210.288 -185.423)" fill="#cccb00"/>
          <path id="Trazado_205" data-name="Trazado 205" d="M230.486,227.363c-.025-.057-.1-.155-.028-.22a.413.413,0,0,1,.4-.007C230.952,227.361,230.607,227.41,230.486,227.363Z" transform="translate(-214.425 -187.124)" fill="#cccb00"/>
          <path id="Trazado_206" data-name="Trazado 206" d="M257.275,207.838c.03-.474.725-.872.335-1.234a.931.931,0,0,0,.754-.492,3.136,3.136,0,0,1-.011-.953c.076.33.626.292.508.64C258.368,206.508,257.822,207.174,257.275,207.838Z" transform="translate(-231.417 -173.245)" fill="#cccb00"/>
          <path id="Trazado_207" data-name="Trazado 207" d="M307.776,188.85c-.048-.111.185-.112.257-.177.136.008.305.166.2.311C308.088,189.112,307.865,188.978,307.776,188.85Z" transform="translate(-263.374 -162.811)" fill="#cccb00"/>
          <path id="Trazado_208" data-name="Trazado 208" d="M230.89,214.72c.606-.525-.047-1.269.715-1.665.021-.339.37-.457.59-.486a8.518,8.518,0,0,0,1,.859c-.185.111-.293.322-.542.364a.522.522,0,0,0-.807.217c-.236.3.072.63-.361.785A.424.424,0,0,1,230.89,214.72Z" transform="translate(-214.718 -177.934)" fill="#cccb00"/>
          <path id="Trazado_209" data-name="Trazado 209" d="M299.172,185.85c.193-.48.145-1.054.785-1.2.3.3.086.823-.139,1.15C299.6,186,299.4,185.849,299.172,185.85Z" transform="translate(-257.932 -160.267)" fill="#cccb00"/>
          <path id="Trazado_210" data-name="Trazado 210" d="M256.661,202.645a.437.437,0,0,1,.161-.4.217.217,0,0,1,.373.169.309.309,0,0,1,0,.4C256.995,203.031,256.749,202.772,256.661,202.645Z" transform="translate(-231.028 -171.36)" fill="#cccb00"/>
          <path id="Trazado_211" data-name="Trazado 211" d="M297.112,185.785l-.024-.057.393-.17.085.195C297.42,185.882,297.276,185.78,297.112,185.785Z" transform="translate(-256.614 -160.84)" fill="#cccb00"/>
          <path id="Trazado_212" data-name="Trazado 212" d="M225.434,213.837a.8.8,0,0,1,.221-.955c.169-.073.341-.213.5-.149A1.209,1.209,0,0,1,225.434,213.837Z" transform="translate(-211.217 -178.028)" fill="#cccb00"/>
          <path id="Trazado_213" data-name="Trazado 213" d="M211.306,208.9a2.776,2.776,0,0,1,1.739-2.072c-.309-.33-.594.091-.91.129-.357-.673.539-1.224.606-1.915.528-1.02,1.543-1.525,1.89-2.733.309-.133.555-.569.928-.4.22.9-.888,1.34-1.13,2.173-.137-.007-.174.14-.221.261a2.144,2.144,0,0,1-.695,1.557c-.165,0-.482.041-.39.333.137.007.124.21.2.31-.137.225-.1.308.112.414.1.551-.523.72-.724,1.105a1.793,1.793,0,0,0-.892.945A.7.7,0,0,1,211.306,208.9Z" transform="translate(-202.324 -171.161)" fill="#cccb00"/>
          <path id="Trazado_214" data-name="Trazado 214" d="M278.2,189.576a1.68,1.68,0,0,1,.519-1.578c.193-.016.429-.318.538-.068.3.534-.447.589-.667.849-.137-.007-.173.141-.222.261C278.845,189.134,278.56,189.554,278.2,189.576Z" transform="translate(-244.622 -162.278)" fill="#cccb00"/>
          <path id="Trazado_215" data-name="Trazado 215" d="M191.771,225.984c.249.189.3.765.832.766l-.057.256C192.289,226.719,191.56,226.572,191.771,225.984Z" transform="translate(-189.936 -186.424)" fill="#cccb00"/>
          <path id="Trazado_216" data-name="Trazado 216" d="M204.978,221.839a.757.757,0,0,1,.023-.871.357.357,0,0,1,.387-.034C205.64,221.288,205.287,221.706,204.978,221.839Z" transform="translate(-198.239 -183.202)" fill="#cccb00"/>
          <path id="Trazado_217" data-name="Trazado 217" d="M190.3,228.744c-.073-.167.124-.252.229-.4.137.007.111.183.2.31C190.663,228.887,190.426,228.724,190.3,228.744Z" transform="translate(-189.021 -187.921)" fill="#cccb00"/>
          <path id="Trazado_218" data-name="Trazado 218" d="M256.727,200.195c-.037-.083-.069-.236.057-.254l.2-.086.084.2Z" transform="translate(-231.049 -169.888)" fill="#cccb00"/>
          <path id="Trazado_219" data-name="Trazado 219" d="M186.924,226.507c.2.243.065.767-.07,1.153A3.314,3.314,0,0,1,186.924,226.507Z" transform="translate(-186.839 -186.755)" fill="#cccb00"/>
          <path id="Trazado_220" data-name="Trazado 220" d="M237.489,205.549c-.148-.267.162-.4.241-.6l.2-.083C237.859,205.093,237.886,205.542,237.489,205.549Z" transform="translate(-218.869 -173.059)" fill="#cccb00"/>
          <path id="Trazado_221" data-name="Trazado 221" d="M188.164,197.55c0-.068.049-.119,0-.165-.526.1-.6.923-.779,1.363a27.139,27.139,0,0,1,1.272-6.17,4.4,4.4,0,0,1,.676-2.144,32.942,32.942,0,0,1,1.883-4.68c.7.46-.687,1.189.348,1.5.016.193-.192.48.088.592.663-.32.916-1.123,1.174-1.763-.357-.442.293-.557.326-1.1.558.29.567-.542.928-.631l.321.59c.149-.2.246-.436.523-.489.007.095.076.1.116.115a3.709,3.709,0,0,1-1.278,1.674c-.137.224-.053.419-.053.651.7,0,1.5-.614,2.117-.35a.95.95,0,0,0,.526-.79l-.025-.057a.825.825,0,0,0,.754-.257c-.02-.356.422-.414.615-.663.226-1.254,1.8-.842,2.47-1.693l.081.032c-.434.385-1.189.875-1,1.39.04.017.119.046.165,0-.295.323-.865.7-.945,1.132a4.8,4.8,0,0,1-1.053,2.041c.012.26.3.236.486.354a.41.41,0,0,0,.276-.285c-.348-.345.17-.535.33-.7l.394-.169c.2.542-.45.888-.5,1.4-.312.2-.926-.062-1.208-.174-.533.231-.487,1.038-.892,1.409-.349.349-.061,1.02-.583,1.277l-.329.7c.53-.626-.169-.855-.039-1.4.045-.516.626-.865.354-1.344-.1-.55.847-.43.385-.959a3.384,3.384,0,0,0,.217-.657c-.3-.234-.421.182-.618.265.249.655-.731,1.01-.387,1.656-.278,1.673-1.956,2.5-2.219,4.13-.194.479-.37.919-.547,1.361-.364-.306-.035-1.01-.355-1.368-.088-.359.546-.665.165-.932-.285-.042-.293.557-.534.231-.257-.517.45-.657.358-1.178.134-.388.765-1.09.323-1.5-.617-.427-.963.084-1.317.5-.289.721-.524,1.649-1.285,1.811a1.78,1.78,0,0,0-.073.758c.369.238.775-.135,1.059-.324a1.107,1.107,0,0,1,.567-.542c.068.466-.258.639-.419,1.039a1.745,1.745,0,0,0-1.4,1.234c.116.578-.682,1.122-.378,1.75l.289.437a.959.959,0,0,0-.555.8c.2.379-.06.787-.181,1.2C188.789,198.073,188.019,198.141,188.164,197.55Z" transform="translate(-187.181 -159.276)" fill="#cccb00"/>
          <path id="Trazado_222" data-name="Trazado 222" d="M354.488,152.472l.15-.2.138.171C354.681,152.455,354.577,152.6,354.488,152.472Z" transform="translate(-292.941 -139.776)" fill="#cccb00"/>
          <path id="Trazado_223" data-name="Trazado 223" d="M236.228,200.065c-.144-.333.273.016.278-.285.43-.317.39-1.49,1.2-1.31.213-.358.593-.091.908-.061l.023.055A11.682,11.682,0,0,1,236.228,200.065Z" transform="translate(-218.077 -168.895)" fill="#cccb00"/>
          <path id="Trazado_224" data-name="Trazado 224" d="M257.161,191.747c-.044-.18.158-.332.366-.389C257.692,191.585,257.363,191.826,257.161,191.747Z" transform="translate(-231.341 -164.51)" fill="#cccb00"/>
          <path id="Trazado_225" data-name="Trazado 225" d="M245.971,195.373c-.281-.111-.073-.4-.088-.592.161-.168.245.028.365.075C246.412,195.083,246.1,195.217,245.971,195.373Z" transform="translate(-224.169 -166.634)" fill="#cccb00"/>
          <path id="Trazado_226" data-name="Trazado 226" d="M348.924,148.618c.013-.2.193-.25.362-.322.212.108.517.043.6.306a.276.276,0,0,1-.052.42A1.069,1.069,0,0,1,348.924,148.618Z" transform="translate(-289.42 -137.257)" fill="#cccb00"/>
          <path id="Trazado_227" data-name="Trazado 227" d="M189.561,219.052l.225-.1.108.25-.224.1Z" transform="translate(-188.562 -181.976)" fill="#cccb00"/>
          <path id="Trazado_228" data-name="Trazado 228" d="M231.443,201.29l.115.114-.2.085Z" transform="translate(-215.017 -170.796)" fill="#cccb00"/>
          <path id="Trazado_229" data-name="Trazado 229" d="M256.388,188.982c.052-.419.687-.495.9-.851l.2-.085c-.025.408-.6.458-.735.847C256.608,188.953,256.492,189.068,256.388,188.982Z" transform="translate(-230.855 -162.414)" fill="#cccb00"/>
          <path id="Trazado_230" data-name="Trazado 230" d="M190.61,217.707a.642.642,0,0,1,.369-.456c.217.039.028.221.059.371C190.887,217.655,190.743,217.783,190.61,217.707Z" transform="translate(-189.226 -180.897)" fill="#cccb00"/>
          <path id="Trazado_231" data-name="Trazado 231" d="M259.819,185.688l-.085-.2c.03-.243.266-.081.419-.112C260.3,185.577,260.012,185.9,259.819,185.688Z" transform="translate(-232.973 -160.712)" fill="#cccb00"/>
          <path id="Trazado_232" data-name="Trazado 232" d="M232.856,197.423a.145.145,0,0,0-.145-.1c.068-.228.173-.371.394-.4C233.7,197.06,233.092,197.354,232.856,197.423Z" transform="translate(-215.87 -168.03)" fill="#cccb00"/>
          <path id="Trazado_233" data-name="Trazado 233" d="M238.706,194.124c-.124-.443.422-.413.678-.589a.14.14,0,0,1,.145.1A.97.97,0,0,1,238.706,194.124Z" transform="translate(-219.653 -165.888)" fill="#cccb00"/>
          <path id="Trazado_234" data-name="Trazado 234" d="M345.788,146.807c-.176-.254-.027-.452.25-.5.141.17.674.172.4.553A.5.5,0,0,1,345.788,146.807Z" transform="translate(-287.386 -135.996)" fill="#cccb00"/>
          <path id="Trazado_235" data-name="Trazado 235" d="M250.334,186.953c-.024-.056-.008-.1.024-.176l.112-.049C250.616,186.833,250.491,187.083,250.334,186.953Z" transform="translate(-227.017 -161.58)" fill="#cccb00"/>
          <path id="Trazado_236" data-name="Trazado 236" d="M244.011,188.635c.092-.172.289-.488.5-.313C244.634,188.532,244.14,189.01,244.011,188.635Z" transform="translate(-223.022 -162.556)" fill="#cccb00"/>
          <path id="Trazado_237" data-name="Trazado 237" d="M252.339,184.754c.4-.306-.519-.9.342-.677C253.083,184.467,252.517,184.545,252.339,184.754Z" transform="translate(-228.267 -159.871)" fill="#cccb00"/>
          <path id="Trazado_238" data-name="Trazado 238" d="M287.467,169.646l-.253.34-.337.145Z" transform="translate(-250.151 -150.769)" fill="#cccb00"/>
          <path id="Trazado_239" data-name="Trazado 239" d="M202.035,204.444c.309-.133.515-.585.9-.389-.221.262-.129.784-.47,1A1.935,1.935,0,0,1,202.035,204.444Z" transform="translate(-196.456 -172.515)" fill="#cccb00"/>
          <path id="Trazado_240" data-name="Trazado 240" d="M261.268,179.548a.687.687,0,0,1,.168-.769c.113-.048.229-.164.363-.088C261.846,179.033,261.778,179.724,261.268,179.548Z" transform="translate(-233.91 -156.477)" fill="#cccb00"/>
          <path id="Trazado_241" data-name="Trazado 241" d="M243.959,184.415l.317.195c-.578.05-.466.93-1.064,1.086l-.23.4C243.365,185.432,243.067,184.668,243.959,184.415Z" transform="translate(-222.371 -160.116)" fill="#cccb00"/>
          <path id="Trazado_242" data-name="Trazado 242" d="M340.537,144.03c-.217-.271.109-.444.254-.571a.58.58,0,0,1,.642.019C341.333,143.786,340.823,144.536,340.537,144.03Z" transform="translate(-284.066 -134.138)" fill="#cccb00"/>
          <path id="Trazado_243" data-name="Trazado 243" d="M281.158,169.143a1.984,1.984,0,0,1,1.136.007l-.023.176A2.924,2.924,0,0,1,281.158,169.143Z" transform="translate(-246.532 -150.398)" fill="#cccb00"/>
          <path id="Trazado_244" data-name="Trazado 244" d="M244.646,178.436c-.124-.211.205-.45-.068-.7-.35.118-.35-.345-.706-.324a.965.965,0,0,0-.53.623c-.489-.746-1.1.773-1.413-.183a2.1,2.1,0,0,0,1.124-.485,1.027,1.027,0,0,0-.088-.822.55.55,0,0,0,.611-.594l-.345-.644.112-.049c.658.675.673,1.793,1.6,2.02A.608.608,0,0,1,244.646,178.436Z" transform="translate(-221.704 -154.323)" fill="#cccb00"/>
          <path id="Trazado_245" data-name="Trazado 245" d="M235.529,186.318c.1-.606.891-.251,1.088-.8.232.23.023.518-.1.7A2.61,2.61,0,0,1,235.529,186.318Z" transform="translate(-217.654 -160.815)" fill="#cccb00"/>
          <path id="Trazado_246" data-name="Trazado 246" d="M241.014,184.991c-.1-.156-.008-.328-.148-.5C241.115,184.452,241.375,184.9,241.014,184.991Z" transform="translate(-221.032 -160.163)" fill="#cccb00"/>
          <path id="Trazado_247" data-name="Trazado 247" d="M202.144,196.972a.362.362,0,0,0-.541-.328c.173-.6.543-1.062.715-1.666.345-.28.744-.749,1.269-.611.175.718-1.249.5-.836,1.384l.453-.029C203.012,195.969,202.927,197.164,202.144,196.972Z" transform="translate(-196.183 -166.399)" fill="#cccb00"/>
          <path id="Trazado_248" data-name="Trazado 248" d="M227.872,189.588l.2-.085-.093.173C227.935,189.66,227.869,189.656,227.872,189.588Z" transform="translate(-212.808 -163.336)" fill="#cccb00"/>
          <path id="Trazado_249" data-name="Trazado 249" d="M203.324,199.251a.126.126,0,0,1,.036-.147l.111-.049C203.548,199.154,203.448,199.231,203.324,199.251Z" transform="translate(-197.265 -169.381)" fill="#cccb00"/>
          <path id="Trazado_250" data-name="Trazado 250" d="M231.582,184.436c.068-.228.032-.544.249-.737.225.135.751-.191.739.244C232.245,184.116,231.946,185.205,231.582,184.436Z" transform="translate(-215.156 -159.663)" fill="#cccb00"/>
          <path id="Trazado_251" data-name="Trazado 251" d="M230.741,183.917a.917.917,0,0,1,.278-.517C231.142,183.611,230.9,183.816,230.741,183.917Z" transform="translate(-214.624 -159.474)" fill="#cccb00"/>
          <path id="Trazado_252" data-name="Trazado 252" d="M213.592,191.218l.478-.206.083.194-.477.206Z" transform="translate(-203.771 -164.291)" fill="#cccb00"/>
          <path id="Trazado_253" data-name="Trazado 253" d="M201.333,195.765c0-.3.329-.239.474-.369l.108.02C201.871,195.7,201.4,195.837,201.333,195.765Z" transform="translate(-196.012 -167.066)" fill="#cccb00"/>
          <path id="Trazado_254" data-name="Trazado 254" d="M277.8,161.476l-.083-.195c.112-.048.329-.008.305.167C277.969,161.472,277.868,161.548,277.8,161.476Z" transform="translate(-244.356 -145.463)" fill="#cccb00"/>
          <path id="Trazado_255" data-name="Trazado 255" d="M240.48,172.845c.157-.1.125-.483.417-.344.2.079.687-.032.566.384A2.021,2.021,0,0,0,240.48,172.845Z" transform="translate(-220.787 -152.557)" fill="#cccb00"/>
          <path id="Trazado_256" data-name="Trazado 256" d="M205.051,189.052c-.228-.066-.064-.3-.084-.427l.2-.085A.324.324,0,0,1,205.051,189.052Z" transform="translate(-198.287 -162.727)" fill="#cccb00"/>
          <path id="Trazado_257" data-name="Trazado 257" d="M244.563,172.327l-.024-.054c.1-.076.225-.1.285.042A.251.251,0,0,1,244.563,172.327Z" transform="translate(-223.356 -152.394)" fill="#cccb00"/>
          <path id="Trazado_258" data-name="Trazado 258" d="M258.145,164.045c.307-.527.365.308.678.336C258.608,164.342,258.241,164.268,258.145,164.045Z" transform="translate(-231.967 -147.114)" fill="#cccb00"/>
          <path id="Trazado_259" data-name="Trazado 259" d="M246.511,167.986a1.933,1.933,0,0,1,1.313-.435A1.273,1.273,0,0,1,246.511,167.986Z" transform="translate(-224.604 -149.443)" fill="#cccb00"/>
          <path id="Trazado_260" data-name="Trazado 260" d="M252.724,164.609c-.5-.382.276-.517.469-.765l.254-.108C253.76,164.229,253.121,164.6,252.724,164.609Z" transform="translate(-228.432 -147.029)" fill="#cccb00"/>
          <path id="Trazado_261" data-name="Trazado 261" d="M258.523,152.377l-.084-.195a4.645,4.645,0,0,0,1.458-1.257l.2-.084c-.507.68.42,1.67-.467,2.086-.076.131-.048.352-.253.341C259.116,152.98,259.044,152.351,258.523,152.377Z" transform="translate(-232.153 -138.868)" fill="#cccb00"/>
          <path id="Trazado_262" data-name="Trazado 262" d="M297.058,138.383l.072-.76c.575.249,1.053-.42,1.574-.446.12.278-.136.456-.3.624C298.049,138.053,297.479,138.663,297.058,138.383Z" transform="translate(-256.595 -130.219)" fill="#cccb00"/>
          <path id="Trazado_263" data-name="Trazado 263" d="M250.492,155.539c-.39-.36-.964.086-1.245-.488l-1.1.076c.522-.027-.155-1.519.808-.91.228-.166.469-.07.714-.044.148.731,1.011.027,1.163.689a.552.552,0,0,0,.329-.01c.18.186.015.424-.1.539C250.881,155.437,250.616,155.287,250.492,155.539Z" transform="translate(-225.64 -140.912)" fill="#cccb00"/>
          <path id="Trazado_264" data-name="Trazado 264" d="M285.75,141.851c.029-.243.418-.345.65-.348.136.01.112.184.177.257C286.372,141.748,285.919,142.242,285.75,141.851Z" transform="translate(-249.438 -132.958)" fill="#cccb00"/>
          <path id="Trazado_265" data-name="Trazado 265" d="M291.783,135.553c-.008-.1-.152-.2-.065-.3l.141-.06C291.948,135.317,292.016,135.553,291.783,135.553Z" transform="translate(-253.197 -128.962)" fill="#cccb00"/>
          <path id="Trazado_266" data-name="Trazado 266" d="M272.606,140.543a2.844,2.844,0,0,1,.84-.527C273.2,140.153,272.956,140.888,272.606,140.543Z" transform="translate(-241.119 -132.017)" fill="#cccb00"/>
          <path id="Trazado_267" data-name="Trazado 267" d="M271.019,140.806l.057-.026c.128.145-.049.12-.028.247C271.011,140.942,270.948,140.869,271.019,140.806Z" transform="translate(-240.095 -132.5)" fill="#cccb00"/>
          <path id="Trazado_268" data-name="Trazado 268" d="M252.389,131.927c-.4-.226-.018-.818-.605-.864-.288.027-.718.574-.923.1l-.173-.091c.173-.373,1.1-.472.662-1.014a1.867,1.867,0,0,0,.555-1.5c.811.18.319-.964.973-.914.915.96-1.081,1.59-.114,2.363.912-.36,1.879-.745,2.7-1l.057-.256c-.281-.341-.711.207-.774-.327.353-.186.983.271,1.1-.377-.064-.767-.923-.131-1.087-.821-.482-.421-.932,0-1.437-.009-.144-.334.145-.592.188-.875a17.666,17.666,0,0,1,2.039.245c.381-.2,1.113-.514,1.457-.331.088.359-.562.474-.719.806a.334.334,0,0,0,.031.385c.257.284.671-.456.759.134-.2.548-1.485.344-1.121,1.112-.2-.078-.338.145-.442.29-.028.244.229.53-.085.731a1.7,1.7,0,0,0-1.148.428c-.069.691-1.133.62-1.037,1.307C253.015,131.757,252.831,132.1,252.389,131.927Z" transform="translate(-227.248 -123.278)" fill="#cccb00"/>
          <path id="Trazado_269" data-name="Trazado 269" d="M269.579,129.537l.337-.146c.2.079.225.366.172.555C269.855,129.946,269.747,129.7,269.579,129.537Z" transform="translate(-239.204 -125.292)" fill="#cccb00"/>
          <path id="Trazado_270" data-name="Trazado 270" d="M270.564,125.953a1.447,1.447,0,0,1,.134-.617c.236.161.677-.129.737.242C271.387,125.929,270.74,126.209,270.564,125.953Z" transform="translate(-239.827 -122.726)" fill="#cccb00"/>
        </g>
        <path id="Trazado_271" data-name="Trazado 271" d="M211.366,207.69c-13.739,0-32.358-10.044-39.091-25.632-3.789-8.775-1.411-23.275,6.057-36.94,8.207-15.016,20.534-25.2,32.974-27.243,16.049-2.636,25.7,3.944,30.979,9.928,6.952,7.891,10.979,16.092,11.339,23.094,0,.088.009.178.013.267l.49-.09c3.527,19.216-.139,33.949-10.9,43.789-9.263,8.474-21.569,11.166-26.823,12.315A23.624,23.624,0,0,1,211.366,207.69Zm-32.847-60.3c-6.591,12.835-8.61,26.1-5.118,34.186,7.38,17.087,29.419,27.323,42.745,24.407,10.711-2.343,42.484-9.294,37.528-49.777-.4,11.734-4.356,21.132-11.783,27.99a51.189,51.189,0,0,1-28.835,12.726c-9.247,1.057-18.316-.37-23.106-3.636-4.141-2.823-9.579-9.11-12.42-18.289A42.551,42.551,0,0,1,178.519,147.385Zm39.289-27.158a37.5,37.5,0,0,0-8.454.98,41.539,41.539,0,0,0-28.243,23.1c-5.807,12.728-4.515,23.512-2.408,30.317,2.748,8.878,7.969,14.933,11.939,17.639,4.561,3.111,13.3,4.457,22.276,3.431A49.958,49.958,0,0,0,241.06,183.29c8.234-7.6,12.049-18.481,11.339-32.331a28.7,28.7,0,0,0-3.46-11.509,28.162,28.162,0,0,1,1.543,11.912c-.621,8.236-4.219,15.7-6.872,20.6-5.3,9.791-24.876,19.4-39.513,19.4-4.307,0-8.188-1.991-11.535-5.915-6.369-7.469-9.356-20.551-8.151-28.083,1.844-11.525,11.967-17.6,19.421-21.162a21.459,21.459,0,0,1,12.225-1.478,21.447,21.447,0,0,1,10.312.741c8.659,2.851,14.067,10.541,14.758,16.329l-1.218.146c-.647-5.412-5.747-12.617-13.924-15.31a19.874,19.874,0,0,0-6.012-1.006,25,25,0,0,1,2.682,1.011,22.884,22.884,0,0,1,12.884,14.56c4.642,15.612-6.113,29.6-12.939,32.409-6.857,2.822-19.488-.559-25.5-9.148a25.283,25.283,0,0,1-4.622-14.434,21.3,21.3,0,0,1,5.894-14.756c4.964-5.274,9.729-8.16,13.986-9.6a18.759,18.759,0,0,0-8,1.646c-11.451,5.477-17.405,11.911-18.739,20.249-1.138,7.113,1.815,19.99,7.873,27.094,3.1,3.639,6.67,5.485,10.6,5.485,14.269,0,33.307-9.291,38.435-18.758,10.257-18.937,8.978-33.295-3.911-43.892A32.517,32.517,0,0,0,217.807,120.228Zm-1.748,15.729C210.347,137,204.6,140.43,199.267,146.1c-8.082,8.588-6.267,20.351-1.16,27.646,5.693,8.136,17.591,11.366,24.027,8.717,6.479-2.667,16.668-16,12.231-30.925a21.675,21.675,0,0,0-12.206-13.788A24.545,24.545,0,0,0,216.06,135.957ZM217.81,119a33.774,33.774,0,0,1,21.215,7.23c-5.407-4.94-14.158-9.339-27.521-7.145a33.075,33.075,0,0,0-10.17,3.539,41.9,41.9,0,0,1,7.741-2.612A38.788,38.788,0,0,1,217.81,119Z" transform="translate(-170.496 -117.277)" fill="#161615"/>
        <g id="Grupo_2211" data-name="Grupo 2211" transform="translate(35.882 30.363)">
          <path id="Trazado_272" data-name="Trazado 272" d="M269.354,224.812l-1.117-.508a106.8,106.8,0,0,0,4.219-11.249,67.272,67.272,0,0,0,2.332-13.072l1.224.082a68.662,68.662,0,0,1-2.384,13.351q-.254.824-.517,1.625a26.3,26.3,0,0,1,2.258-2.665,18.551,18.551,0,0,1,9.056-5.366l.222,1.206a17.683,17.683,0,0,0-8.4,5.015,26.832,26.832,0,0,0-4.539,6.4l-2.354,5.182Z" transform="translate(-268.237 -199.983)" fill="#161615"/>
          <path id="Trazado_273" data-name="Trazado 273" d="M296.456,228.671c-3.314,0-5.646-2.128-7.716-4.017a17.548,17.548,0,0,0-2.544-2.067c-3.6-2.158-6.648,1.787-6.776,1.956l-.979-.739c1.309-1.739,4.748-4.452,8.386-2.27a18.383,18.383,0,0,1,2.74,2.212c2.1,1.913,4.264,3.9,7.347,3.68a12.843,12.843,0,0,0,8.967-4.8c2.361-3.033,3.166-7.081,2.33-11.706l1.207-.219c1.138,6.289-.769,10.366-2.569,12.678A13.9,13.9,0,0,1,297,228.652C296.815,228.665,296.633,228.671,296.456,228.671Z" transform="translate(-274.694 -206.765)" fill="#161615"/>
        </g>
      </g>
    </g>
  </g>
</svg>
