<svg id="Grupo_2229" data-name="Grupo 2229" xmlns="http://www.w3.org/2000/svg" width="160.205" height="69.175" viewBox="0 0 160.205 69.175">
  <path id="Trazado_81" data-name="Trazado 81" d="M-944.373,735.241s-2.936.1-2.349-2.447,2.056-3.034,2.741-2.251S-942.806,733.088-944.373,735.241Z" transform="translate(977.053 -719.394)"/>
  <path id="Trazado_82" data-name="Trazado 82" d="M-929.086,735.659s-2.839.391-1.175-3.133,4.307-.83,3.426.613A10.876,10.876,0,0,1-929.086,735.659Z" transform="translate(965.683 -719.812)"/>
  <g id="Grupo_2199" data-name="Grupo 2199" transform="translate(0 0)">
    <path id="Trazado_83" data-name="Trazado 83" d="M-914.3,715.277c.1.106.148.167.148.167S-914.076,715.341-914.3,715.277Z" transform="translate(953.98 -708.798)"/>
    <path id="Trazado_84" data-name="Trazado 84" d="M-894.7,731.4s1.566,17.131-27.8,21.047-52.862,3.916-81.74-3.72-37.493-20.557-37.493-20.557,5.678-23.494,18.5-26.626c9.023-2.2,11.261-2.276,11.8-2.125-1.037-1.136-7.464-7.58-15.613-2.476-8.908,5.58-16.837,29.074-16.837,29.074l-.881-.1s6.559-26.235,4.405-28.682-5.091-6.559-6.363-2.741-5.873,17.424-2.252,28.388c-1.957,10.866-2.921,22.711-1.363,25.354s4.456,2.643,4.818,0,2.81-16.348,3.2-17.131c0,0,21.536,23.592,62.357,27.214s58.833.293,69.895-2.643c0,0-26.431,7.929-52.96,5.09,0,0,35.143,4.209,51.785-2.252S-885.2,735.119-894.7,731.4Zm-150.362-35.535c1.175.2-2.545,21.634-2.545,21.634C-1049.854,709.178-1046.233,695.669-1045.058,695.865Zm-2.839,48.554c-1.077-3.818,3.068-15.565,3.068-15.565S-1046.82,748.237-1047.9,744.419Z" transform="translate(1051.112 -692.939)"/>
  </g>
  <path id="Trazado_85" data-name="Trazado 85" d="M-852.983,719.315c-2.741-.489-4.5,3.427-5.091,4.6s-1.077-.2-1.077-.2c-2.35-5.776-5.188-4.209-4.5-3.034s-.979,8.419-1.175,10.67-5.286,10.377-9.4,14.586-.1-10.181.726-13.9.058-3.328-2.586-3.328-5.286,8.712-9.4,14,5.677-14.879,7.44-18.11,3.23.489,1.958.881-.881,2.447.979,2.447,2.937-2.937-1.566-8.027-13.02,15.956-14,21.144,2.643,6.265,3.23,6.951.489,1.077-4.5-.483-8.712-9.11-8.712-9.11a22.757,22.757,0,0,0,4.209-.2c7.929-3.622,8.223-9.4,5.081-12.628s-8.214,2.252-10.563,4.5-.49-2.545-.49-2.545c7.048-5.08,16.25-20.557,7.44-22.319s-15.173,30.542-15.173,30.542a52.892,52.892,0,0,0-6.461,8.908c-2.741,4.894-5.874,3.524-2.643-4.5s1.371-13.215-1.468-16.446-7.342,4.5-7.342,4.5c1.175-6.852-1.86-9.4-4.6-11.062s-6.167,8.027-6.167,8.027a6.119,6.119,0,0,0-4.21-5.971c-2.741-.979-1.272,1.468-1.272,1.468,2.839,12.138-7.048,23.69-9.1,22.417s1.86-13.313,3.328-17.62-3.426-7.734-3.133-6.461-3.72,17.914-8.615,22.613.294-9.887,1.371-16.348-4.894-7.244-4.894-7.244c1.468,2.643-.2,8.712-1.762,14.292s-1.86,10.768,1.762,13.215,6.95-4.9,6.95-4.9c-.881,2.535,1.469,6.275,4.21,6.177s7.733-6.853,7.733-6.853c-1.664,4.6,2.154,6.167,2.741,6.657s.587-2.545.587-2.545c.979-10.573,5.776-16.837,8.517-21.634s2.153,5.678.391,12.824,1.37,8.712,2.447,9.594.758-.294.758-.294c-.612-6.853,6.976-18.8,8.737-17.718s-1.077,9.887-2.349,13.792-.2,8.331,3.035,9.806,6.363-2.845,9.006-7.642,2.252-2.164,2.252-2.164-.489,5.2,2.545,5.688,2.545-7.146,2.545-7.146c7.44,10.377,12.334,11.355,16.543,11.258s10.866-16.642,10.866-16.642-1.566,5.874-2.741,9.2,2.35,6.852,4.8,6.558,7.342-7.831,7.342-7.831.489,3.622,1.762,5.286,1.664-.2,1.664-.2c-.979-10.572,8.908-23.886,10.866-23.788s-.783,4.8-.685,5.482,2.937,1.762,4.4-.391S-850.242,719.8-852.983,719.315Zm-41.7-8.516c1.86.881-2.839,10.67-6.363,12.334C-901.048,723.133-896.544,709.918-894.685,710.8Zm-8.223,23.788s1.762-3.818,4.209-5.384,5.286-1.532,5.58-.472-1.273,3.213-4.992,5.073S-902.908,734.586-902.908,734.586Z" transform="translate(992.267 -701.608)"/>
  <path id="Trazado_86" data-name="Trazado 86" d="M-556.2,773.438c-7.146,5.09-3.231-5.776-3.231-5.776,3.458,2.426,6.657-4.014,8.419-7.831a7.5,7.5,0,0,0-2.056-8.81c-1.762-1.37-4.307.783-7.832,8.419s-4.013,17.522,1.175,18.795,12.237-14.506,12.237-14.506C-549.25,762.438-549.054,768.348-556.2,773.438Zm2.937-18.5c1.468,1.175-.979,6.363-2.643,9.006s-2.447,3.035-2.937,2.447S-553.264,754.937-553.264,754.937Z" transform="translate(704.98 -733.902)"/>
</svg>
