<svg id="Grupo_2213" data-name="Grupo 2213" xmlns="http://www.w3.org/2000/svg" width="235.632" height="220.76" viewBox="0 0 235.632 220.76">
  <g id="Grupo_2209" data-name="Grupo 2209" transform="translate(0 194.81)">
    <g id="Grupo_2208" data-name="Grupo 2208" transform="translate(0)">
      <path id="Trazado_87" data-name="Trazado 87" d="M133.335,438.458l-.5,1.2c-4.5,0-5.338-8.948-12.838-8.948-.37,0-3.579-.156-3.579,2v6.945h-1.451V417.038h1.451v12.715a10.891,10.891,0,0,0,2.777-.739h.031c5.708-2.224,11.047-7.777,11.047-11.635l1.482-.341c0,4.969-5.277,9.907-9.939,12.223C129.075,430.772,129.724,438.458,133.335,438.458Z" transform="translate(-114.972 -415.666)" fill="#161615"/>
      <path id="Trazado_88" data-name="Trazado 88" d="M206.54,438.458l-.495,1.2c-4.5,0-5.338-8.948-12.837-8.948-.37,0-3.579-.156-3.579,2v6.945h-1.452V417.038h1.452v12.715a10.886,10.886,0,0,0,2.776-.739h.032c5.709-2.224,11.048-7.777,11.048-11.635l1.481-.341c0,4.969-5.277,9.907-9.937,12.223C202.281,430.772,202.929,438.458,206.54,438.458Z" transform="translate(-140.267 -415.666)" fill="#161615"/>
      <path id="Trazado_89" data-name="Trazado 89" d="M168.371,427.617a12.685,12.685,0,1,1-3.712-8.956A12.216,12.216,0,0,1,168.371,427.617ZM155.7,416.823A10.829,10.829,0,1,0,163.348,420,10.385,10.385,0,0,0,155.7,416.823Z" transform="translate(-124.664 -414.942)" fill="#161615"/>
      <path id="Trazado_90" data-name="Trazado 90" d="M240.57,427.617a12.684,12.684,0,1,1-3.711-8.956A12.211,12.211,0,0,1,240.57,427.617ZM227.9,416.823A10.828,10.828,0,1,0,235.548,420,10.384,10.384,0,0,0,227.9,416.823Z" transform="translate(-149.612 -414.942)" fill="#161615"/>
      <path id="Trazado_91" data-name="Trazado 91" d="M266.749,432.222c-.187.027-.374.043-.559.054v.062h-6.623v7.639h-1.73v-23.7h8.353v.027a8,8,0,0,1,5.2,13.64,7.855,7.855,0,0,1-2.872,1.869l4.7,8.161h-2Zm-.9-1.6v-.038a6.295,6.295,0,0,0,.331-12.573h-6.611v12.611Z" transform="translate(-164.338 -415.405)" fill="#161615"/>
      <path id="Trazado_92" data-name="Trazado 92" d="M310.868,427.617a12.687,12.687,0,1,1-3.714-8.956A12.213,12.213,0,0,1,310.868,427.617Zm-12.674-10.794A10.829,10.829,0,1,0,305.846,420,10.38,10.38,0,0,0,298.194,416.823Z" transform="translate(-173.903 -414.942)" fill="#161615"/>
    </g>
    <path id="Trazado_93" data-name="Trazado 93" d="M332.1,433.257v7.64h-1.73V417.2h8.466v1.729H332.1v12.6h3.5v1.729Z" transform="translate(-189.402 -415.722)" fill="#161615"/>
    <path id="Trazado_94" data-name="Trazado 94" d="M370.209,428.535a12.685,12.685,0,1,1-3.712-8.956A12.208,12.208,0,0,1,370.209,428.535Zm-12.674-10.793a10.83,10.83,0,1,0,7.655,3.178A10.381,10.381,0,0,0,357.535,417.742Z" transform="translate(-194.408 -415.259)" fill="#161615"/>
    <path id="Trazado_95" data-name="Trazado 95" d="M412.826,428.535a12.684,12.684,0,1,1-3.712-8.956A12.208,12.208,0,0,1,412.826,428.535Zm-12.674-10.793a10.831,10.831,0,1,0,7.654,3.178A10.385,10.385,0,0,0,400.151,417.742Z" transform="translate(-209.133 -415.26)" fill="#161615"/>
    <path id="Trazado_96" data-name="Trazado 96" d="M431.983,440.8l.026-23.7h2.135a11.759,11.759,0,0,1,8.05,3.42,12.173,12.173,0,0,1,3.216,8.465,11.75,11.75,0,0,1-3.266,8.393,12.053,12.053,0,0,1-7.63,3.419Zm1.728-21.867v20.174a9.452,9.452,0,0,0,7.085-2.96,9.927,9.927,0,0,0,2.859-7.159,10.289,10.289,0,0,0-2.769-7.194,8.774,8.774,0,0,0-6.753-2.872C434,418.923,433.857,418.925,433.711,418.934Z" transform="translate(-224.512 -415.689)" fill="#161615"/>
    <path id="Trazado_97" data-name="Trazado 97" d="M466.782,419.226a3.247,3.247,0,0,0-2.313-.993h-.126a3.552,3.552,0,0,0-3.407,3.535,13.959,13.959,0,0,0,.355,2.2l2.376,9.586a15.218,15.218,0,0,1,.357,2.134,5.341,5.341,0,0,1-1.558,3.757,5.259,5.259,0,0,1-3.692,1.685h-.23a4.9,4.9,0,0,1-3.523-1.474l1.312-1.348a3.224,3.224,0,0,0,2.313.993h.128a3.43,3.43,0,0,0,2.414-1.094,3.482,3.482,0,0,0,.993-2.442,16.169,16.169,0,0,0-.346-2.1q-2.746-10.371-2.745-11.821a5.526,5.526,0,0,1,5.237-5.443h.23a4.949,4.949,0,0,1,3.547,1.475Z" transform="translate(-232.473 -415.447)" fill="#161615"/>
  </g>
  <g id="Grupo_2212" data-name="Grupo 2212" transform="translate(36.338 0)">
    <g id="Grupo_2210" data-name="Grupo 2210" transform="translate(10.695 0.622)" style="mix-blend-mode: multiply;isolation: isolate">
      <path id="Trazado_98" data-name="Trazado 98" d="M291.543,267.187c-.816.584-1.7,1.437-2.791,1.379-.292.01-.62-.2-.6.258-.817-.239-1.161,1.028-1.978.379-1.653,1.126-3.555,1.12-5.249,1.736l-.611-.033c-.019-1.7,2.056-1.712,2.192-3.185.452-.193.408.531.861.338A3.312,3.312,0,0,0,285,266.883a.723.723,0,0,0,.507.488c.559-1.183,3.505-1.1,2.3-2.934.4-.173.508-.751.53-1.113-.649-.958-1.647.176-2.463-.06-2.118.736-3.927.809-5.91,2.137.122-.408.207-1.033-.372-1.137-.542-.3-1.314-.022-1.717-.676a6.549,6.549,0,0,0-3.895,1.854c-.45.2-.95.41-1.266-.041-.27-.355.453-1.022-.348-1.086-.61-.033-.753.736-.652,1.106.042.1.128.3,0,.413l-.2.084c-.148-.346.18-.961-.45-1.043-1.251.541-2.488.425-3.72,1.014-.245.4.169.811-.194,1.2l-.539.408c-.069-.851-1.378-.581-1.887-1.069-1.382.242-2.792-.683-4.216-.13-1.1.063-1.939-1.05-3.068-.5a.837.837,0,0,0-.974-.05c.283,2.173-1.806.362-2.192,1.944-.158.186.05.391.113.541a2.852,2.852,0,0,1,.794.188c.231-.156.4-.587.617-.5l-.06.556a3,3,0,0,1,2.17-.346c.1.782,1.644,1.06.52,1.9-.272.471.164.931-.087,1.451-.973-.463-2.971,1.1-2.925-.86a1.627,1.627,0,0,0-1.448.918.232.232,0,0,0-.064.262c.459.512,1.16-.2,1.281.628-2.92,1.081-6.133-.307-9.172-.464-.745.2-1.618.517-2.319-.007a2.239,2.239,0,0,0-.857-.748c-.938.995-1.266-.457-1.911-.71-1.336-.073-2.624-.99-3.986-.7-1.165-.5-2.251-1.918-3.634-.851-.623-.2.044-.727-.349-1.086-1.8.365-2.355-1.876-4.206-1.49-1.653.3-1.48-2.19-3.082-1.5-.236-.961-1.382-1-2.062-1.471-.62-.2-.889.558-1.3.563.06-.968-1.258-.99-1.442-1.973l-1.648-.235A2.054,2.054,0,0,0,219.6,261c-.216-.5-.765-.673-1.16-1.033-1.259,1.074-.879-.8-1.823-.922-.465-.389-1.617.108-1.365-.826-.452-.22-.988.188-1.217-.481-.07-1.262-1.724-.965-2.038-1.829a.556.556,0,0,0,.709-.012c.115-.7-.657-.835-.972-1.293-1.48-.125-2.588-1.593-3.283-2.651-.764-1.5-2.267-2.086-3.111-3.493-.806-2.007-3.353-2.268-3.9-4.506-1.165-1.736-2.963-3.144-3.425-5.185a79.264,79.264,0,0,1-7.235-14.859c-.743-2.275-1.342-4.493-1.978-6.929.03-.07.11-.162-.007-.293.134,1.415,1.347-.463,1.473,1.074,1.152.331,1.281,1.867,1.636,2.833-.723,1.49,1.329,3.082.1,4.5l.563,2c.846.167,1.337.9,2.175.77-.772-.965.637-1.277,1.132-1.783l.1-.044c.436.461-.379.637-.338,1.147.693,1.473,1.365,3.306.905,4.442a1.847,1.847,0,0,1,.164,1.348A8.524,8.524,0,0,1,198.438,237a2.663,2.663,0,0,0-.537.821c.457.509.671,1.42,1.373,1.528.351-.562-.514-1.6.731-1.61a21.073,21.073,0,0,1,3.73,5.346l-.957.12c-.26,1.879,2,1.321,2.288,2.963.636.376.952-.408,1.518-.478.764.674,1.6,1.374,1.385,2.527-.166.308-.63.329-.91.51-.022,1.189,1.208,1.012,1.874,1.727l.257-.643c1.439.442,1.9,2.069,3.425,2.3-.106.164.008.289.072.439a2.451,2.451,0,0,0,1.847-.679c-.014-.171.209-.208.308-.249.38.188.81.357.95.826-.112.287-.329.616-.079.92a9.907,9.907,0,0,0,2-.744c.922.075,1.393,1.992,2.217.869.237-.277.057-.553-.048-.8-.494-.319-.824-.941-1.531-.932l-2.719-1.9c.51-.336,1.417-.022,1.968.567a.705.705,0,0,0,.844.582.768.768,0,0,0,.694-1.007,2.054,2.054,0,0,0-1.8-.876c.116-1.107-1.173-1.615-2.044-2.125-.278.183-.588.017-.9.268.4-.876-.5-.9-.625-1.731-1.182.154-.774-1.379-1.975-1.27-.48-.976-1.5-1.418-1.979-2.391-1.682.372-.25-1.955-1.817-1.458l-1.012.552c.088-.627,1.027-1.619.084-2.154-.217-.086-.467.02-.652-.132-.729-.453.022-1.6-.629-2.147-.17-1.637-1.614-2.781-2.408-4.211-.493-.316-.794-1.011-1.323-1.137-.814-1.062-.964-2.236-1.729-3.322l-.851.369c-.092-.905-1,.017-1.174-.793,1.338.9,1.075-.818,1.862-1.332.995-.724-.929-1.19.073-2.035-1.781-.41,1.112-2.248-.986-2.286-.372-.725,1.039-1.865-.314-2.106-1.438.384-1.475,2.228-1.519,3.366l.044.1c-.514-.778-1.151-1.565-.579-2.579-.035-.635.73-.787,1.1-1.181,1.682-.372,1.634-2.412,2.836-3.344.03-1.309.847-2.721.971-3.953l-.3-.7a5.677,5.677,0,0,0-3.795,3.052,3.145,3.145,0,0,0-1.017.26l-.246.812c-.2.084-.27-.355-.356-.553.473-.556,1.226-.882,1.2-1.755-1.029-.737.812-1.292.023-2.016-.006-.292.087-.625-.163-.93-.709.01-.645-.666-.758-1.207,1.418-.434,1.634-2,1.727-3.161-.308-.988-1.6-.548-1.624-1.837a5.583,5.583,0,0,0,.594-.964,1.039,1.039,0,0,0-1.358-.118,2.333,2.333,0,0,0,.126,3.188c.012.168.22.373.064.56-1.431-.149-1.194-2.492-2.654-2.158.294-.42.8-1.048.489-1.623-.895-.147-1.488-2.071-2.3-.659-1.132,1.374,1.349,2.306-.126,3.709.909.729-.4,1.823.672,2.248-.931.456-1.289,1.555-2.2,2.064.309-1.077-.571-1.876-.313-2.931-.622-.615.165-1.13.275-1.707-.5-1.024-.672-2.245-1.988-2.681a1.759,1.759,0,0,1-.07-2.093,1.355,1.355,0,0,0,.952-.823,8.543,8.543,0,0,1-.821-2.181c1.181-1.393,3.351-1.325,3.438-3.6.688-.473,1.826-1.142,2.748-.654a7.407,7.407,0,0,1,1.374-.12c-.331,1.851-2.613,1.656-2.685,3.692.571,1.052-2.451,1.762-.389,2.819,1.058-.161,1.393,1.993,2.425.667.3-.543-.3-1.111-.416-1.652l.632-1.567-.337-.091.145-.358a1.489,1.489,0,0,0,1.66-.007c-.329-1.036,1.332-1.458.517-2.52l-.795-.19a20.86,20.86,0,0,0,1.433-2.325c-.407-.119-.965-.174-1.209.226.066-1.091,1.1-2.007,1.427-3.032.645-.16.716-.956.9-1.507-.107-.662-1.231-1.473-.212-2.146-.23-.667.192-1.205.522-1.819.86-.9,2.3-1.284,3.115-2.283.3.279.616-.09.937-.171.552-.65,1.3-1.386,1.3-2.209l-.772-.14c.409-.706.853-1.606,1.289-2.384.939-2.234,1.787-4.13,2.969-6.348,1.166-.329,1.366-1.239,1.739-2.164a6.154,6.154,0,0,1,1.527-3.492c.58.107-.05.85.263,1.3a1.45,1.45,0,0,0-.509.751c.436.874-.466,2.088.429,2.646.95-.413,1.809-1.314,2.961-1.4a2.862,2.862,0,0,1,1.317.848c-1.052.864-2.376,1.791-2.585,3.236a2.2,2.2,0,0,0-.833,2.069,1.171,1.171,0,0,0,1.153-.082,1.482,1.482,0,0,1,.938-1.41c.243.015.251.307.314.456-.665.52-1.33,1.045-1.1,2-.222.449-.63.742-.586,1.255.8,1.3,4.7.154,3.152,2.767a.865.865,0,0,1-.056.555c-.465-.388-1.316-.021-1.746.221-.366.393.028.755-.046,1.142-.559,1.6-1.92,3.539-.654,4.819-.136.65,1.088.595,1.259.99l.859-.075c-.344.855.408,1.357.914,1.842l1.075.425c-1.454,1.454-.663,3.7-2.173,5.3.563,1.586-1.727,3.986.906,4.445.342.382-.68,1.176-.044,1.552-.173.015-.136.232-.244.4a.893.893,0,0,1,.061,1.386,1.071,1.071,0,0,0-1.151,1.321c.027.755.787.724.971,1.291.586,1.222-1.51,1.6-.633,2.808.052,1.217-1.459,1.159-1.181,2.217.886,1.094.939-.993,1.711-.027.043.512.043.925.514,1.19.651.133,1.06-.575.946-1.113-.474-.268-.415-.823-.315-1.28.273-.471.86-.487,1.139-1.081.423.291.851.871,1.274.337-.249-.719.337-1.975-.779-2.081-.58.719-.9,2.04-2.139,1.924.581-.722-.715-1.519.48-1.918a.59.59,0,0,0-.057-.683,5.475,5.475,0,0,0,1.741-2.577c-.157-.639-.07-1.265-.579-1.755.109-.99.862-1.726.775-2.752a4.335,4.335,0,0,0,2.935.741c1.16-1.444,3.272-1.647,4-3.55a5.333,5.333,0,0,0,1.912-3.832c-.394-.362-.766.155-1.137.253.887-.97,2.34-2.01,2.02-3.58.2-.087.666.3,1.016.152.652.543-.646,1.4-.031,2.134a28.037,28.037,0,0,0-1,7.328c-.524-.248-1.038-.613-.972-1.289.014-.247.13-.529-.05-.807-.522-.243-1.159.207-1.5.529.1,1.606-1.8,2.719-1.285,4.325-.036.193-.222.452-.036.606,1.281.215.516-1.7,1.8-1.482a4.915,4.915,0,0,1-.931,2.526c.421.29-.137.647.163.929.522.246,1.274-.077,1.252.7l.107.249c.823.118,1.137-.666,1.512-1.181.25-.522-.392-1.6.479-1.5a32.724,32.724,0,0,0,9.439,18.863c-.3.951.8.478,1.157,1.033.952.826,2.053,2,3.189,2.158.173.812,1.232.239,1.375,1.12,1.18.259,2.079,1.519,3.247,2.016.3.287.615-.087.937-.167.278.648,1.08.3,1.467.785,1.156.2,2.267,1.675,3.433.934.036.223.257.184.4.242.565-.071,1.352.656,2.068.521.918-1.454,1.6.961,2.683.022.481.149.861.753,1.409.516.473-.973,1.459.49,2.113-.618,1.872.9,3.706.053,5.567-.041.937-.995,1.959.276,2.912-.548.53.128.944-.289,1.053-.867.7-.3,2.331.586,2.154-.927,1.422.681,1.911-1.355,3.327-.553.236-.278.815-.586.38-1.046.365-.393,1.293-.027,1.347-.876,1.459.493,1.266-2.018,2.712-1.284,6.693-5.011,11.7-14.358,11.566-22.79.6-1.5-.326-3.1.511-4.462a32.14,32.14,0,0,0-2.11-9.588.608.608,0,0,1-.507-.486l.35-.564c.923.075,1.158,1.446,1.867,1.024,1.446-1.746-1.845-1.387-.892-3.036-1.581-.084-.192-1.685-1.314-2.086.664-.934-.954-.828-.773-1.791a.667.667,0,0,0-.707.012c-.532.7.562,1.584-.276,2.122a23.025,23.025,0,0,0-3.222-4.858,3.521,3.521,0,0,1-1.872-1.727c.853-.367.758-1.27,1.19-1.929-.487-.85-.959-1.946-2.09-1.811-.743.617-.972-.465-1.651-.526a1.334,1.334,0,0,0-.822-.942c-.31.664-.8,1.464.229,1.907l.149.348a41.16,41.16,0,0,0-9.755-5.4c.328-.2.429-.654.594-.967-.15-.345-.314-.864-.716-.692-.636.864-1.861.922-2.819,1.04-.179-.275-1.01-.275-.493-.731a2.026,2.026,0,0,0,1.2-1.221c-1.431-.15-2.425-1.9-3.592-.751.467.389.037,1.045-.294,1.245-2.617,1.781-5.637.428-8.427.984-4.282.958-8.4,1.733-12.4,4.046l-1.089,1.058c-1.589.449-2.323-2.359-3.419-.352l.407.943c-.795.225-1.016,1.086-1.339,1.579,1.223.355,1.446-1.333,2.592-1.294-.329,1.026-1.811,1.311-2.243,2.38-.581.31-1.652-.113-1.6.983.179.278.5.2.752.09l.263.888-1,.433c-.106-1.488-2-.377-1.728-2.083.479-.679.179-1.375.222-2.1-1.151.082-.514-1.192-1.515-1.173-.545.939-1.088-.181-1.81.072-.081-.318.408-.7.135-1.06-1.573-.206-2.255,1.384-3.394,2.05.058,1.1,1.619-.107,1.264,1.282-.748.736-3.183,1.431-1.631,2.827-.386.757.1,2.019-1.125,2.077a7.064,7.064,0,0,0-1.462,1.571,1.342,1.342,0,0,0,1.323.727c.725-.251,1.317-.8,1.753.067.21.208,0,.418-.034.609a8.251,8.251,0,0,1-.958-.295A4.892,4.892,0,0,1,226.3,181.3c-.162-.518-.4-1.062-1.028-1.145-1.617.107-.626,1.86-1.682,2.435-.037.6,1.265.456.513,1.192-.947,1.116-2.677.268-3.207,1.795-1.748.221-.3-1.519-.866-2.279a8.352,8.352,0,0,1,2.542-1.685l.445-1.312c1.8.048,1.532-1.958,2.428-3.049-.828-2.473,1.922-3.952,3.334-5.5-.331-.628-1.3-.679-1.583-1.326,1.009,1.1,1.87-.628,2.656-1.145.724-.666.7-1.832,1.6-2.219.338-.321-.028-.757-.262-.889l-.145-.058c.467-.847,2.249-1.26,1.328-2.574.715-.543,1.63-.762,2.246-1.678a4.164,4.164,0,0,0,.482-1.917c-.707-.4-1.38.241-1.9.287a3.858,3.858,0,0,0,.63-1.154l-.149-.348-1.6.57a1.31,1.31,0,0,0-.082-1.849c-1.589-1.2-3.389,1.929-4.281-.693,1.04-.624-.241-1.662.031-2.548.25.3.207,1.031.87,1.335a4.932,4.932,0,0,0,1.548-1.376c-.092-.9-1.223-.355-1.473-1.071,1.13.277.916-1.043,1.54-1.666l-.113-.954c2.075-.423,3.834.763,5.908.753a4.066,4.066,0,0,1,1.2-1.222c.242.838,1.509.469,1.373,1.531a34.788,34.788,0,0,0,4.765-.111,1.768,1.768,0,0,0,1.767-.171c-.528-1.778,1.681-.372,1.439-2.038-.179-.275-.013-.582-.264-.887l.251-.108c.715,1.108.463,2.041.827,3.3.386.068.75.5,1.065.128.437-.777-1.035-1.439.087-1.864.137-.649.211-1.446.389-2,.45.22-.194.793.1,1.2.581.517,1.253-.126,1.662-.42.586-.842-.795-.6-.722-1.4l.251-.109c-.036.19.23.256.306.164.453-.611,1.4-.9,1.336-1.871-1.175-1.2-3.2.847-3.821-1.009a1.092,1.092,0,0,0-1.168.329c.02.461-.472.557-.789.514l-.071-.853c-.556.36-1.615-.717-1.738.514-.129,1.353,1.745,1.017,1.379,2.233-.815-.236-1.223-1.18-2.067-.521-.615-.324-1.374.118-1.675-.574.022-.365.653-.7.239-1.109-.881.442-1.158-.618-2.054-.349-.365-.846,1.081-1.35.626-2.275,1.058-.162,2.147-1.632,3.155-.533.808.36,1.2-.52,1.617-.932-.057-.271.236-.693-.221-.789a2.453,2.453,0,0,1-1.609-.428c.467-1.26,2.556-.688,2.184-2.238.023-.362.523-.58.76-.857.658.012.256.6.408.947-.1,1.28-1.971,2.32-.769,3.455.8.478,1.767-.587,2.6-.591a.724.724,0,0,0-.007-.706l-1.209-.186c.673-1.054,2.435-1.518,3.05-2.844a2.735,2.735,0,0,1,.815.237,13.58,13.58,0,0,0-1.961,1.789,1.021,1.021,0,0,0,.014.995,2.261,2.261,0,0,0,1.867-.627c.488-.387-.264-1.3.632-1.157.4.239.457,1.334,1.324.724.836-.95-.091-2.139.98-2.958.224-.037.295.406.451.633-.144.357-.693.594-.451,1.019,1.03.323.973-1.186,2.068-1.125a1.565,1.565,0,0,0-.084-1.852c-.478-.558-1.208-.187-1.81-.341-.359,1.1-1.889,1.406-2.8,1.5-.251-.307-.145-.885-.658-.838-.732,1.2-1.937.478-2.87.236-.637.037-.6.672-1.052.867-.151-.351-.395.048-.652-.133-.257.227-.451.608-.8.758a5.227,5.227,0,0,1,.588-2.907c1.639.353,1.549-2.2,3.006-1.3.365-.393-.155-.639-.212-.91.494-.094,1.176-.86,1.452-.215.372-.1.845.169.995-.31a1.186,1.186,0,0,1,.394-1.7c.6-.14.888.679,1.459.078.409-.7.8-1.463.232-2.22-.443-.342-.853-.048-1.252.124.137-.235-.072-.44-.157-.638a11.4,11.4,0,0,0-6.526,1.4c-.287.3.1.372.257.6-.074.794.133,1.825-.89,2.209-.135-.592.132-1.352-.477-1.8-1.361-.534-2.714.048-4.107.118-.515-.367-.258-1.007-.924-.9a35.452,35.452,0,0,1,4.525-1.359,1.612,1.612,0,0,0,.386-.755l-.3-.7a1.349,1.349,0,0,0,.988-1.016l-.651-.541a4.793,4.793,0,0,1,3.1-2.045c.413.41,1.05.785,1.164,1.326.638.784.9-.8,1.461.077.385,1.309,1.817.631,2.676.969.393-.876.952-2.06,2.082-1.782.6.565,1.531,1.345,2.433.956.779-.808-.163-1.758.489-2.45,1.073-1.643,3.293-.358,4.251-2.128.322-.082.588-.431.91-.1-.18.135.079.32.092.493.566.343,1.2.012,1.668.28-1.168.739.728,1.28-.03,2.137.257.183.379.6.813.647l.647-.157c-.039,1.018.863,1.453,1.672,1.814.594.275,1.166-.327,1.76-.464.037.22.258.183.4.239.716-.546,1.052.372,1.732.435a1.288,1.288,0,0,0,1.349,1.067c1.461-1.574,1.374,1.118,2.632.869.514.78,1.545.276,2.081,1.109.916,1.016,2.605-.3,3.111,1.014a3.551,3.551,0,0,0,2.672-.148c.375.6.819,1.355,1.62,1.423.729-.787,1.537.4,2.261-.268.1,1.2,1.7-.2,1.473,1.074.888.678.988-.6,1.7-.734.365.432.213,1.323.579,1.756,1.108.229,2.389.444,2.984,1.543.922.075,1.464,1.2,2.5.572l.365.843c2.661,1.212,4.44,3.274,6.687,4.9,1.016,1.388,3,2.95,4.969,2.984.145-.355.56-.36.79-.516l.214.084c-.42.536-1.5,1.06-.6,1.91.321.746,1.23.649,1.818.633a1.106,1.106,0,0,0,.226,1.492c1.16.207,1.145,1.69,2.277,1.967,1.523,1.879,3.067,3.8,4.586,5.684.889,1.091-.889,2.622.828,3.3-.317,1.2,1.824.509.986,1.874-.023.365.363.435.649.546.573-.188.389-1.582,1.2-.812a96.408,96.408,0,0,1,6.495,11.762l-.036.6c-1.317-.433-.581,1.96-2.039,1.471a.91.91,0,0,0,.056,1.094c.344.384.623-.207.952,0,.15-.478.594-.966.378-1.461a.665.665,0,0,1,1.126-.014c.513,1.6,1.341,3.252,1,4.935l-.85-.045.144-.358c-.758-.379-.711.836-1.26,1.072a1.03,1.03,0,0,0,.077,1.147c.537.418.657-.4,1.245-.42-.022.778.944.536.972,1.291a.983.983,0,0,0-1.1,1.179,3.047,3.047,0,0,0,1.622,1.009c-.228.16.03.344.043.514.293.4.773-.273.859.336-.828.418-1.948,1.135-1.474,2.228.808.773-.037,1.846,1.027,2.389.192.859-1.581,1.563-.7,2.656-.238.278-.061.552.07.854.356.141.895.145.967.585.405.12.535-.408.743-.614a3.86,3.86,0,0,0-.482-2.5l.306-.251c.308.162.349.676.758.794.73.039.073-.8.8-.76a43.434,43.434,0,0,1,.753,5.336l1.316.433c-.05.437.493,1.144-.088,1.454-.706-.4.632-1.157-.362-1.259-1.522.6-.4,2.236-.591,3.317.3.406.724-.251.758.384-1.423.966-.453,2.67-.7,4.016a2.334,2.334,0,0,0,.013,1.407l.359.141c-.036.2-.493.1-.35.567l.357.138c0,.413-.739.495-.4,1,.378.188,1.051-.042.816.649-.861.49.272,1.181.062,1.8-1.753,1.171-.73,2.852-1,4.56.412.412.042.927.012,1.409a1.631,1.631,0,0,0-1.661.421c.027,1.579-1.633,1.173-1.8,2.721.959,1.118.961-.944,1.869-.627.234.545-.167,1.132-.3,1.658.266.476-.256,1.055.166,1.345.12-.406.165-.72.594-.963.493,1.967-.155,4.191-.842,6.315.287.113.284.525.463.8-.037.6-.629.742-.946,1.113a1.306,1.306,0,0,0-2.024-.009l-.1.045c-.094-.495.758-.861.651-1.523-.584-.4-.247-1.128-1.12-1.224-.672.232-.608,1.207-.833,1.656a8.994,8.994,0,0,0-1.095,2.414c-.186.259-.466.44-.539.823.522,1.069,1.962-.55,2.471.353l-.8,1.873c.286.114.542-.115.815-.173a.845.845,0,0,1,.631-.747c.107.251-.238.693.221.793-.9.8-.059,1.791-1.1,2.415-.916,3.109-2.978,5.352-4.484,8.064a4.078,4.078,0,0,1-1.247,2.483c-.1.043-.28.181-.393.052-.113-.538.78-1.222.079-1.743-.535,0-.735-.743-1.251-.288-.407.707-1.174,1.276-1.2,2.171.76-.031.508,1.313,1.326.729a.972.972,0,0,1,.01.992c-.992.314-1.316,1.217-1.939,1.84a53.7,53.7,0,0,1-9.024,8.842c.374-.516.931-.876,1.189-1.513-.286-.116-.787.1-.858-.341l.7-.715-.923-.488c.13-.113.045-.312,0-.41a.792.792,0,0,0-.709.01c-.358.686.3,1.934-.439,2.019-.48.262-.759.857-1.387.774-.453.606.984,1.459-.233,1.806l-1.01.554c-.112-.539.154-1.715-.87-1.333-1.108,1.009-3.722,1.427-3.129,3.354.621.615,1.038-1.036,1.36.122-.63.742-1.813.9-2.255,1.795,1.137-.67,2.741-1.357,3.914-2.217l.193.444c-2.519,2.15-5.963,3.4-8.454,5.477-1.631,1.173-4.215,1.522-5.848,2.7Z" transform="translate(-187.025 -118.227)" fill="#cccb00"/>
      <path id="Trazado_99" data-name="Trazado 99" d="M360.465,337.815c.214-.328.658-.4,1.059-.572C361.031,337.337,360.909,337.743,360.465,337.815Z" transform="translate(-246.834 -193.906)" fill="#cccb00"/>
      <path id="Trazado_100" data-name="Trazado 100" d="M309.436,350.573c-1.572.621-3.4.521-5.071.773a11.942,11.942,0,0,1-5.388-.507c.544-.942,3.263.126,2.483-1.954-.414,0-1.058.159-1.136.666-.145-.468-1.463-.49-.982-1.171a1.586,1.586,0,0,0,1.113-1.42c.971-.362,1.975-1.207,2.956-.449a.982.982,0,0,1,1.208-.227c.467.389-.925,1.99.514,1.2-.329-1.867,1.516-.478,1.848-1.918.523.244.071.853.262,1.3a2.936,2.936,0,0,1-1.661,1.659c.151.76.666-.111,1.016.152a1.712,1.712,0,0,0,1.346-1.292l-.256-.594c2.026.012,2.536-2.8,4.551-2.258.223-.036.459-.314.666-.111-.709.838.6.98,1.056,1.079l1.01-.554c.107.248.336.5.1.783-1.687.9-3.972,1.121-3.8,3.169.258.6,1.172-.035,1.424.683l1.065.133c-.751.736-2.267.8-3.471.906Z" transform="translate(-225.587 -196.36)" fill="#cccb00"/>
      <path id="Trazado_101" data-name="Trazado 101" d="M328.808,347.223c.317.043.259.6.094.905A.611.611,0,0,1,328.808,347.223Z" transform="translate(-235.84 -197.354)" fill="#cccb00"/>
      <path id="Trazado_102" data-name="Trazado 102" d="M358.846,318.07a6.63,6.63,0,0,1,.3-2.074c1.474-.988,3.1-2.456,4.9-3.113.395-.874,2.011-.573,2.105-1.731.758-.031.558-.77.944-1.116,2.1-1.611,3.988-3.425,6.13-4.94a.547.547,0,0,1,.508.491c-.045.313-.4.584-.13.939.828,0,1.058-.988,1.372-1.77-.412-.414.216-.331.258-.645.158-1.012-.676-2.537.885-2.915.437-1.19,1.59-1.688,2.328-2.595,1.473-1.817,2.484-4.021,4.119-5.607.645-.572,1.266.044,1.221.768l-.287.715.859.338a1.331,1.331,0,0,1-1.367.826l-.143-.058c-.3.543.484,1.265-.338,1.562-.531.285-.916-.2-1.317-.437.143.468-.58,1.55.579,1.345a.786.786,0,0,1,.007.7c-1.346-.367-2.4.5-3.464,1.2.258.186.643.254.815.652a2.985,2.985,0,0,1-2.1,1.319c1.121,1.226-1.168,2.8.09,4.206-.272.471-.823.71-1.26,1.075a1.093,1.093,0,0,0-.758-.8c-.486.387-.822.71-1.5.527-.214-.082-.4-.239-.6-.149a.541.541,0,0,0,.007.7c.379.6,1.353,1.069,1.209,1.836-.688.476-.774-.55-1.461-.075-.156-.641-.85-.459-1.3-.679-.414.416-.852-.044-1.209-.185-.164.719.442,2.4-1.081,2.175-.282,2.657-3.079,2.507-3.939,4.646-.974.36-1.891.168-2.807.8-1.681-.457-1.217,2-2.705,2.405Z" transform="translate(-246.271 -178.538)" fill="#cccb00"/>
      <path id="Trazado_103" data-name="Trazado 103" d="M379.263,320.366c-.137-.177,0-.413.037-.6.148-.068.3-.131.414,0C380.229,320.126,379.458,320.4,379.263,320.366Z" transform="translate(-253.308 -187.839)" fill="#cccb00"/>
      <path id="Trazado_104" data-name="Trazado 104" d="M369.047,324.691l-.086-.2a.317.317,0,0,1,.551.175A.46.46,0,0,1,369.047,324.691Z" transform="translate(-249.769 -189.463)" fill="#cccb00"/>
      <path id="Trazado_105" data-name="Trazado 105" d="M386.787,315.171c.231-.571.489-1.214,1.048-1.158A1.412,1.412,0,0,1,386.787,315.171Z" transform="translate(-255.929 -185.878)" fill="#cccb00"/>
      <path id="Trazado_106" data-name="Trazado 106" d="M313.4,345.064c.388-.34.367-1.219,1.109-1.009C314.929,344.881,313.641,344.787,313.4,345.064Z" transform="translate(-230.572 -196.248)" fill="#cccb00"/>
      <path id="Trazado_107" data-name="Trazado 107" d="M297.394,348.565l.645-.156c.243-.4-.444-.344.2-.5l.256.594C298.11,348.846,297.738,348.536,297.394,348.565Z" transform="translate(-225.04 -197.591)" fill="#cccb00"/>
      <path id="Trazado_108" data-name="Trazado 108" d="M323.646,333.122a.805.805,0,0,1,.3-.956c.286.114.789-.1.859.336C324.727,333.008,324.06,333.117,323.646,333.122Z" transform="translate(-234.097 -192.151)" fill="#cccb00"/>
      <path id="Trazado_109" data-name="Trazado 109" d="M321.144,332.361c.308.575-.572.6-.63,1.156C319.856,333.093,321.066,332.868,321.144,332.361Z" transform="translate(-232.961 -192.219)" fill="#cccb00"/>
      <path id="Trazado_110" data-name="Trazado 110" d="M279.691,349.082c-.207-.618-1.166-.913-.879-1.626.645-.158,1.761.362,1.812-.485.358-.686,1.26.164,1.912-.531-.553.24-.76.863-1.2,1.224l.1,1.2C280.872,348.93,280.257,348.6,279.691,349.082Z" transform="translate(-218.601 -197.084)" fill="#cccb00"/>
      <path id="Trazado_111" data-name="Trazado 111" d="M397.387,298.873c-.427-.582.416-.827.659-1.229l.6-.258a4.107,4.107,0,0,1-.937,1.823Z" transform="translate(-259.551 -180.133)" fill="#cccb00"/>
      <path id="Trazado_112" data-name="Trazado 112" d="M286.019,346.051c-.312-.864.489-1.21.8-1.876.324.336,1.768.241,1.223,1.185C287.944,346.52,286.72,346.165,286.019,346.051Z" transform="translate(-221.085 -196.301)" fill="#cccb00"/>
      <path id="Trazado_113" data-name="Trazado 113" d="M309.832,334.54a2.366,2.366,0,0,1,.532-2.349c.967-1.067,1.3.676,2.256.266a1.163,1.163,0,0,1-.188,1.493c-.573.6-1.575-.206-2.161.639C310.149,334.581,309.942,334.373,309.832,334.54Z" transform="translate(-229.309 -192.038)" fill="#cccb00"/>
      <path id="Trazado_114" data-name="Trazado 114" d="M304.909,334.888c.115-.285-.258-.6.051-.846.615-.088.468-.849.588-1.258.545.3,1.061-.162,1.451-.212A3.7,3.7,0,0,1,304.909,334.888Z" transform="translate(-227.611 -192.292)" fill="#cccb00"/>
      <path id="Trazado_115" data-name="Trazado 115" d="M300.331,334.6l-.17-.4c1.331-.221,1.445-1.745,3.056-1.731.295-.009.25.3.366.43a2.789,2.789,0,0,1-1,.726.553.553,0,0,0-.709.01c-.194.376.539.831.056,1.1A1.952,1.952,0,0,1,300.331,334.6Z" transform="translate(-225.996 -192.255)" fill="#cccb00"/>
      <path id="Trazado_116" data-name="Trazado 116" d="M277.213,344.162a2.068,2.068,0,0,1,2.2-.828c.223.374,1.116.521.665,1.127A8.642,8.642,0,0,1,277.213,344.162Z" transform="translate(-218.067 -195.983)" fill="#cccb00"/>
      <path id="Trazado_117" data-name="Trazado 117" d="M298.324,335.716c.013-.244.33-.2.558-.362l.206.2C298.818,335.619,298.581,335.9,298.324,335.716Z" transform="translate(-225.361 -193.253)" fill="#cccb00"/>
      <path id="Trazado_118" data-name="Trazado 118" d="M274.923,344.079l.195.031-.144.36-.143-.058Z" transform="translate(-217.244 -196.268)" fill="#cccb00"/>
      <path id="Trazado_119" data-name="Trazado 119" d="M297.936,333.2c-.051-.391.06-.556.43-.656.194.033.206.2.273.354A.666.666,0,0,1,297.936,333.2Z" transform="translate(-225.223 -192.282)" fill="#cccb00"/>
      <path id="Trazado_120" data-name="Trazado 120" d="M294.267,334.325c.078-.92.874-1.145,1.481-1.524A1.881,1.881,0,0,1,294.267,334.325Z" transform="translate(-223.96 -192.371)" fill="#cccb00"/>
      <path id="Trazado_121" data-name="Trazado 121" d="M265.341,345.663c-.185-.155,0-.414.035-.6a1.721,1.721,0,0,1,1.317.022c.055.268.513.78-.1.867C266.3,345.421,265.761,345.952,265.341,345.663Z" transform="translate(-213.936 -196.562)" fill="#cccb00"/>
      <path id="Trazado_122" data-name="Trazado 122" d="M272.065,342.5l.362.843-1.315-.433Z" transform="translate(-215.958 -195.722)" fill="#cccb00"/>
      <path id="Trazado_123" data-name="Trazado 123" d="M265.8,340.724l.145-.353a2.351,2.351,0,0,0,2.109.621l.465.8C267.534,340.745,266.373,342.189,265.8,340.724Z" transform="translate(-214.124 -194.986)" fill="#cccb00"/>
      <path id="Trazado_124" data-name="Trazado 124" d="M401.719,278.969c-.291-.819.569-1.719,1.033-2.569.709-.009.694-1.417,1.452-.625.1.783-.886.558-1.108,1.009C402.372,277.45,402.671,278.556,401.719,278.969Z" transform="translate(-261.068 -172.582)" fill="#cccb00"/>
      <path id="Trazado_125" data-name="Trazado 125" d="M249.6,338.543c-.115-.128-.035-.222-.007-.293l.4-.173.213.5C249.981,338.733,249.795,338.576,249.6,338.543Z" transform="translate(-208.505 -194.194)" fill="#cccb00"/>
      <path id="Trazado_126" data-name="Trazado 126" d="M243.919,330.926a8.058,8.058,0,0,0-3.635-.851,5.987,5.987,0,0,0-5-1.263c-.381-.188-1.325-.311-1.158-1.031-.549-1-1.81-.341-2.567-.72.185-.671,1.009-.554,1.488-.821.995.516,1.588-.863,2.462.06.4-.584.882-1.265,1.547-1.376,1.2.843-.826,1.949.234,2.613a4.9,4.9,0,0,0,1.827-2.792.574.574,0,0,1-.007-.707c.6.154,1.876-.333,1.817.635.137,1-.916,1.043-1.275,1.726.45.22.939-.166,1.352-.169.017-.654.5-1.334,1.2-1.224a.72.72,0,0,1,.8.9l-.438,1.188,1.058.252c.244-.4-.585-1.222.446-1.312.334.09.4.652.8.48a1.42,1.42,0,0,1,.326,1.449c-.1.868-1.408.727-1.3,1.681.781.43,1.237,1.349,2.232,1.453l.107.249C245.343,331.608,244.879,330.4,243.919,330.926Z" transform="translate(-202.291 -189.343)" fill="#cccb00"/>
      <path id="Trazado_127" data-name="Trazado 127" d="M245.046,335.75c-.087-.2.149-.478.193-.795.722.162,1.8.461,1.83,1.219C246.374,336.766,245.588,336.044,245.046,335.75Z" transform="translate(-206.945 -193.115)" fill="#cccb00"/>
      <path id="Trazado_128" data-name="Trazado 128" d="M240,339.121l-.041-.1a.445.445,0,0,1,.585-.02C240.394,339.071,240.185,339.28,240,339.121Z" transform="translate(-205.193 -194.48)" fill="#cccb00"/>
      <path id="Trazado_129" data-name="Trazado 129" d="M266.456,325c-.093-.077-.013-.169-.006-.29.336-.321.608.031.815.237C267.007,325.171,266.7,325.012,266.456,325Z" transform="translate(-214.334 -189.529)" fill="#cccb00"/>
      <path id="Trazado_130" data-name="Trazado 130" d="M414.315,259.28a22.784,22.784,0,0,1,.3-3.844c.993,1.338-.24,2.343.047,3.692Z" transform="translate(-265.432 -165.638)" fill="#cccb00"/>
      <path id="Trazado_131" data-name="Trazado 131" d="M267.047,323.208c-.228-.255.014-.654.244-.811.1-.043.28-.179.393-.051C267.949,322.822,267.4,323.059,267.047,323.208Z" transform="translate(-214.522 -188.74)" fill="#cccb00"/>
      <path id="Trazado_132" data-name="Trazado 132" d="M263.947,323.751c-.063-.15-.263-.476.06-.556l.351-.149C264.414,323.314,264.541,324.026,263.947,323.751Z" transform="translate(-213.442 -189)" fill="#cccb00"/>
      <path id="Trazado_133" data-name="Trazado 133" d="M235.8,332.944c-.026-.34.444-.072.667-.111l.152-.063C236.621,333.183,236.133,333.156,235.8,332.944Z" transform="translate(-203.758 -192.36)" fill="#cccb00"/>
      <path id="Trazado_134" data-name="Trazado 134" d="M262.384,320.276a2.139,2.139,0,0,1,.13-1.766c.329-.2.522-.579.967-.652A2.623,2.623,0,0,1,262.384,320.276Z" transform="translate(-212.899 -187.207)" fill="#cccb00"/>
      <path id="Trazado_135" data-name="Trazado 135" d="M252.574,320.013c.07-.8-.853-.459-1.181-1.085-.43.246-.694-.231-.815-.649,0-.825.888-.56,1.359-.7,1.024.03,1.818-.2,2.674.554.244,1.666,1.707-.734,1.911.709l-.286.715c.508.075,1.008.271,1.5-.115.459.511-.194.791-.338,1.147A5.513,5.513,0,0,1,252.574,320.013Z" transform="translate(-208.864 -187.106)" fill="#cccb00"/>
      <path id="Trazado_136" data-name="Trazado 136" d="M256.708,316.582c-.366-.848.708-1.251.615-2.155l.351-.152.469.681c.438.049.51-.748,1-.308.249,1.13-1.281,1.439-1.933,2.13Z" transform="translate(-210.955 -185.969)" fill="#cccb00"/>
      <path id="Trazado_137" data-name="Trazado 137" d="M239.007,323.479c-.135-.179,0-.413.037-.6.3-.131.579-.312.859-.075.251.3.013.582-.1.867C239.465,323.988,239.267,323.663,239.007,323.479Z" transform="translate(-204.845 -188.875)" fill="#cccb00"/>
      <path id="Trazado_138" data-name="Trazado 138" d="M408.078,248.968c-.2-1.152-.285-2.176-.5-3.5l-.255-.6.8-.346c-.043.728,1,.515.73,1.278C408.231,246.84,409.037,248.023,408.078,248.968Z" transform="translate(-263.025 -161.868)" fill="#cccb00"/>
      <path id="Trazado_139" data-name="Trazado 139" d="M245.157,314.006c-.113-.951-1.086-1.417-1.836-1.92.034-.193.243-.4.057-.555-.457-.1-.544-.295-.472-.681.245-.814,1.239-.3,1.6-.983.38-1.048.925-2.4,2.2-2.48.436.872-1.283,1.436.028,1.992.7,1.228-.841,1.365-.934,2.526,1.117-.307,1.014,1.8,2.117.912-.208.621-.145,1.6-1.047,1.57A1.845,1.845,0,0,1,245.157,314.006Z" transform="translate(-206.204 -183.589)" fill="#cccb00"/>
      <path id="Trazado_140" data-name="Trazado 140" d="M252.368,316.051c-.322-.333.15-.479.238-.691C253.064,315.458,252.734,316.07,252.368,316.051Z" transform="translate(-209.443 -186.344)" fill="#cccb00"/>
      <path id="Trazado_141" data-name="Trazado 141" d="M352.728,271.858c-.188-.154-.052-.389.034-.6l.35-.152C353.364,271.409,353.12,271.807,352.728,271.858Z" transform="translate(-244.127 -171.052)" fill="#cccb00"/>
      <path id="Trazado_142" data-name="Trazado 142" d="M351.3,272.676c-.094-.079-.037-.219-.009-.293l.252-.109.106.249Z" transform="translate(-243.647 -171.456)" fill="#cccb00"/>
      <path id="Trazado_143" data-name="Trazado 143" d="M279.54,300.5c.021-.362-.243-.84.279-1.007.524.247,1,.395,1.217.891A.812.812,0,0,1,279.54,300.5Z" transform="translate(-218.854 -180.86)" fill="#cccb00"/>
      <path id="Trazado_144" data-name="Trazado 144" d="M249.462,314.113c-.4-.359.071-.8.258-1.052.2-.09.407-.294.645-.162A1.022,1.022,0,0,1,249.462,314.113Z" transform="translate(-208.424 -185.479)" fill="#cccb00"/>
      <path id="Trazado_145" data-name="Trazado 145" d="M354.257,264.152c.073-.384.721-.25.679-.763-.707-.4-.235-.96.294-1.245.417,0,.436-.365.55-.652-.219-.377-.027-.753-.319-1.161.516-.455,2.153-.1,1.961-1.374.059-.141.072-.384.245-.4a.619.619,0,0,1,.509.491c-.9.681.01,1.817-.976,2.424-.7,1-.8,2.7-2.194,3.182l-.2.5C354.656,264.807,354.056,264.655,354.257,264.152Z" transform="translate(-244.674 -166.717)" fill="#cccb00"/>
      <path id="Trazado_146" data-name="Trazado 146" d="M341.462,271.88l.206.206-.35.152Z" transform="translate(-240.218 -171.32)" fill="#cccb00"/>
      <path id="Trazado_147" data-name="Trazado 147" d="M276.492,298.781c-.063-.148-.177-.275-.047-.391.344-.442.628.082,1-.019l.092.49C277.179,299.133,276.794,298.651,276.492,298.781Z" transform="translate(-217.781 -180.418)" fill="#cccb00"/>
      <path id="Trazado_148" data-name="Trazado 148" d="M249.373,311.161a.733.733,0,0,1,.492-.512C250.208,311.035,249.659,311.273,249.373,311.161Z" transform="translate(-208.447 -184.716)" fill="#cccb00"/>
      <path id="Trazado_149" data-name="Trazado 149" d="M239.473,314.023c-.027-.337.309-.248.6-.255l.421.7C240.029,314.907,239.859,314.1,239.473,314.023Z" transform="translate(-205.026 -185.792)" fill="#cccb00"/>
      <path id="Trazado_150" data-name="Trazado 150" d="M345.518,261.323c-.448-1.456.721-2.608.269-4.064.839-1.365,1.025-3.272,2.121-4.037.666-.524.48-1.5.931-2.113-.605.792.516,1.194.478,1.8.9.145.108,1.072.208,1.444.014.17-.186.257-.286.3-.46-.1-.424-1.528-1.266-.869.736,1.569-2.806,2.448-.575,3.9.436.048.408-.7.894-.266.056,1.507-2.492,2.075-1.819,3.5A.525.525,0,0,1,345.518,261.323Z" transform="translate(-241.633 -164.143)" fill="#cccb00"/>
      <path id="Trazado_151" data-name="Trazado 151" d="M238.3,308.931c-.581-.519.5-.633.692-1.01-.306-.575.938-1.405-.118-1.657-1.076.816-1.776-.533-2.614-.821-.43-.168-.329-.622-.163-.931.688-.471,1.353.243,2-.039.415.41-.293.835-.027,1.31l1.144-.376c-.266,1.176,1,.516,1.467.785a3.747,3.747,0,0,1-1.314,3.568Z" transform="translate(-203.809 -182.538)" fill="#cccb00"/>
      <path id="Trazado_152" data-name="Trazado 152" d="M358.1,254a13.247,13.247,0,0,0,1.032-2.567c-.506-.9.23-1.808.425-2.6l.4-.171c1.028.732-.11,1.814.07,2.914-1.277.9-.039,2.67-1.669,3.021Z" transform="translate(-246.017 -163.296)" fill="#cccb00"/>
      <path id="Trazado_153" data-name="Trazado 153" d="M408.261,235.308a.938.938,0,0,1,.12-1.647.747.747,0,0,1,.718.7C409.07,234.839,408.64,235.083,408.261,235.308Z" transform="translate(-263.199 -158.113)" fill="#cccb00"/>
      <path id="Trazado_154" data-name="Trazado 154" d="M235.054,301.159a2.359,2.359,0,0,1,.489-1.623c.579.517.9,1.261,1.787,1.527.251.3-.022.365-.157.6A2.628,2.628,0,0,1,235.054,301.159Z" transform="translate(-203.499 -180.876)" fill="#cccb00"/>
      <path id="Trazado_155" data-name="Trazado 155" d="M228.414,304.932c0-.289.31-.249.537-.408.243.012.2.329.317.457C229.138,305.5,228.478,305.082,228.414,304.932Z" transform="translate(-201.205 -182.6)" fill="#cccb00"/>
      <path id="Trazado_156" data-name="Trazado 156" d="M218.655,309.259c-.137-.179.042-.313.1-.458.18-.135.317.043.458.1.23.255-.084.217-.05.437C218.984,309.47,218.848,309.293,218.655,309.259Z" transform="translate(-197.815 -184.06)" fill="#cccb00"/>
      <path id="Trazado_157" data-name="Trazado 157" d="M227.91,299.06c.316-1.2-2.065-3,.317-3.259-.722-.575-.427-1.408-.384-2.135.259-.23.508.075.772.14.314.452-.456.729-.294,1.246.8.48.736,1.982,1.732,1.673.084-.217.1-.459.342-.444.831.821.529,1.361.013,2.233A2.182,2.182,0,0,1,227.91,299.06Z" transform="translate(-200.77 -178.819)" fill="#cccb00"/>
      <path id="Trazado_158" data-name="Trazado 158" d="M230.517,300.471l.351-.153c.137.179-.043.314-.243.4Z" transform="translate(-201.931 -181.146)" fill="#cccb00"/>
      <path id="Trazado_159" data-name="Trazado 159" d="M350.019,247.864a.6.6,0,0,1,.18-.961C350.22,246.952,350.6,247.847,350.019,247.864Z" transform="translate(-243.168 -162.689)" fill="#cccb00"/>
      <path id="Trazado_160" data-name="Trazado 160" d="M243.931,282.417c-.721-.572.5-1.456-.6-1.683-.375.514-1.471.454-1.4,1.309.085.2.093.493.357.553-.042.313-.352.152-.515.046-1.768-1.478-3.71-2.821-4.878-4.972.251-.109.888.264.853-.369a.889.889,0,0,0-.694-.643l-.4.174a1.366,1.366,0,0,0-.171-.811c-.386-.484-1.016.26-1.115-.522a2.064,2.064,0,0,1,1.2-1.634,8.821,8.821,0,0,0,1.529.929c-.479-.971-.456-2.984-2.2-2.762-.156.6-.351,1.388-.538,2.06l-.487.8a2.043,2.043,0,0,0-.758-.379c-1.361.292.929,2.842-1.232,1.825-.688.476.183,2.221-1.247,1.658.036-.6-.986-1.873.23-1.807.594-.138.6-1.085.832-1.655.207-.622-.657-.838-.5-1.436.366.021.916.608,1.358.123.287-1.128-1.891-3.016.319-3.262l.142.056c.473-.558-.378-1.427.588-1.668.509.079.536.829,1.11.642,1-.432,1.16-1.857,2.311-1.941,2.118,1.741-2.189,2.774-.075,4.515a1.057,1.057,0,0,1,1.726.966c-.611.794,1.07,2.071-.533,2.352-.327-.213-.656-.01-1.008-.273a1.573,1.573,0,0,0,1.372,1.528c.393-.464.881.388,1.251-.126-.17-.809,1.735-1.63,0-1.944-.043-.925-.092-2.142.673-2.707.553-.649-.365-1.258-.227-1.907-.12-.831-.435-2.111,1-1.961a1.967,1.967,0,0,1,1.007.27c.33,1.041,1.124,2.052.428,3.062,2.091.159.228,1.905,1.493,2.775.357.965,2.776.924,1.28,2.279-.223.036-.215.326-.459.314l-.507-.9a1.69,1.69,0,0,0-1.554,1.082c.787.312-.1,1.282.62,1.441.266.476.651,1.372.128,1.954-.392.05-.581.3-.7.714.522.246,1.16.206,1.41.923C245.084,281.92,244.647,282.7,243.931,282.417Z" transform="translate(-202.188 -169.649)" fill="#cccb00"/>
      <path id="Trazado_161" data-name="Trazado 161" d="M361.317,242.866c-.115-.128-.037-.222-.007-.295l.25-.106.106.248Z" transform="translate(-247.107 -161.156)" fill="#cccb00"/>
      <path id="Trazado_162" data-name="Trazado 162" d="M352.473,241.158c-.4-.652-.172-1.635-.344-2.444l.3-.956c-.837-.7-1.031.916-1.654-.116,1.567.741,1.426-3.03,2.562-.4a1.471,1.471,0,0,1,1.41.927,2.206,2.206,0,0,1-1.09,1.47c-.173-.4.11-.99-.412-1.236-.66.4-.039,1.431-.348,2.091C352.715,240.759,352.815,241.129,352.473,241.158Z" transform="translate(-243.486 -159.025)" fill="#cccb00"/>
      <path id="Trazado_163" data-name="Trazado 163" d="M218.58,289.811a2.934,2.934,0,0,1-.676-2.537c-1.345-.362-1.128,2.49-2.794,1.382.174-1.255-2.924-2.1-.577-2.581.031-.483.424-.949-.012-1.408-.522-.662-1.331-.193-1.817-.633-.187-.567,1.353-1,.331-1.439-.344.029-.3.42-.639.451-.657-.012-.257-.6-.364-.844.137-1.475-2.08-3.17-.233-3.851.186.157.373-.1.544-.113a2,2,0,0,0-.019-1.7l1.8-.774c.649,1.366-1.389,2.424-.516,3.759a.626.626,0,0,0,.708-.012c-.433,1.482,1.52,1.053,1.42,2.335-.179.961,1.029,1.145.98,1.995.213.082.45.219.607.031.638-1.275-1.617-1.13-.736-2.393.009-.949-1.766-.654-1.458-1.731.222-.862.459-1.965,1.427-2.2l.4.239c-.236.692-1.088,1.471-.823,2.361,2.512.037,1.365,2.476,2.859,3.6,1.173.379-.517,2.521,1.372,1.531.681.06.387,1.306,1.2,1.132.809.773-1.025,2.031-.11,3.052-.258.643-.98.481-1.453.628C219.609,289.719,219.117,289.4,218.58,289.811Z" transform="translate(-195.208 -172.66)" fill="#cccb00"/>
      <path id="Trazado_164" data-name="Trazado 164" d="M235.9,287.527c-.416-.411-.215-.91.128-1.352.065-.266.409-.3.66-.4.844.995,1.893,1.777,2.637,2.814-.015.654-.615.5-1.009.552A10.436,10.436,0,0,0,235.9,287.527Z" transform="translate(-203.709 -176.12)" fill="#cccb00"/>
      <path id="Trazado_165" data-name="Trazado 165" d="M225.243,292.547c-.164-.107.067-.264.052-.435l.151-.064A.408.408,0,0,1,225.243,292.547Z" transform="translate(-200.089 -178.289)" fill="#cccb00"/>
      <path id="Trazado_166" data-name="Trazado 166" d="M407.149,212.712c-.084-.2-.314-.454-.157-.637.151-.068.279-.181.395-.053A.415.415,0,0,1,407.149,212.712Z" transform="translate(-262.892 -150.617)" fill="#cccb00"/>
      <path id="Trazado_167" data-name="Trazado 167" d="M260.858,275.2c.122.008.128-.113.208-.2l.149.348-.251.107Z" transform="translate(-212.415 -172.397)" fill="#cccb00"/>
      <path id="Trazado_168" data-name="Trazado 168" d="M254.853,270.519c-.115-.952-1.518-.758-1.437-1.676-1.289-.509-1.745-2.255-2.926-2.513-.307-.577-.414-1.237-1.222-1.183-.092-.9-1.459-1.73-.887-2.744a2.8,2.8,0,0,0,2.564-1.222l.6-.258a1.006,1.006,0,0,1-.187,1.495c-.351.152-.4.584-.595.963.408.118.286.939.908.727.543-.117,1.088-.232,1.316.435-.343.858,1.094.471.7,1.353,1.143,1.272,1.228,3.122,1.971,4.573C255.41,270.574,255.132,270.755,254.853,270.519Z" transform="translate(-208.056 -167.534)" fill="#cccb00"/>
      <path id="Trazado_169" data-name="Trazado 169" d="M395.916,212.561c-.615-.737-.143-1.707-.822-2.594l.142-.357c.311.162.508.488.966.584.431-.241,1-.429,1.209.191C398.192,211.639,396.425,211.81,395.916,212.561Z" transform="translate(-258.799 -149.803)" fill="#cccb00"/>
      <path id="Trazado_170" data-name="Trazado 170" d="M407.568,208.577c-.092-.077-.028-.34.167-.306.15-.066.308-.249.493-.095C408,208.333,407.971,208.816,407.568,208.577Z" transform="translate(-263.095 -149.287)" fill="#cccb00"/>
      <path id="Trazado_171" data-name="Trazado 171" d="M200.631,295.174a19.309,19.309,0,0,1-1.967-3.87c1.5-.234.643,1.9,1.945,2.168C200.429,294.02,201.575,294.884,200.631,295.174Z" transform="translate(-190.925 -178.025)" fill="#cccb00"/>
      <path id="Trazado_172" data-name="Trazado 172" d="M352.907,229.159c-.615-.323-.113-.951-.2-1.444l.25-.108C353.394,227.948,353.7,228.935,352.907,229.159Z" transform="translate(-244.114 -156.022)" fill="#cccb00"/>
      <path id="Trazado_173" data-name="Trazado 173" d="M204.612,292.343c.022-.363.152-.889.5-1.041C205.235,291.72,204.755,291.988,204.612,292.343Z" transform="translate(-192.98 -178.031)" fill="#cccb00"/>
      <path id="Trazado_174" data-name="Trazado 174" d="M400.392,205.267c.014-.244.328-.2.458-.317.355.137.836.289.714.7C401.207,205.5,400.133,206.319,400.392,205.267Z" transform="translate(-260.616 -148.193)" fill="#cccb00"/>
      <path id="Trazado_175" data-name="Trazado 175" d="M352.055,225.845a.781.781,0,0,1-.007-.7c.1-.044.3-.131.415,0C352.62,225.367,352.454,226.087,352.055,225.845Z" transform="translate(-243.897 -155.146)" fill="#cccb00"/>
      <path id="Trazado_176" data-name="Trazado 176" d="M221.045,282.427c-.5-.2-.179-.69-.308-.988l1.051.372C221.532,282.041,221.437,282.374,221.045,282.427Z" transform="translate(-198.552 -174.623)" fill="#cccb00"/>
      <path id="Trazado_177" data-name="Trazado 177" d="M394.472,206.256c.558-1.183-1.4-2.285-.012-3.062a.786.786,0,0,1,.006.706c-.228.985,1.631.891.856,1.99Z" transform="translate(-258.405 -147.586)" fill="#cccb00"/>
      <path id="Trazado_178" data-name="Trazado 178" d="M395.063,202.61c-.473-.268-.29-.819-.068-1.268-.094-1.316-1.7-1.743-1.794-3.057.5-.217.517-1.282,1.2-.935-.164.722.473,1.094.515,1.609.177-.135.313.041.508.074a13.083,13.083,0,0,0-.189,1.91c.378.188,1.13-.135,1.13.691A1.269,1.269,0,0,1,395.063,202.61Z" transform="translate(-258.145 -145.543)" fill="#cccb00"/>
      <path id="Trazado_179" data-name="Trazado 179" d="M199.271,288.617c.277-.179.7-.3.9.023l0,.414C199.713,289.367,199.384,289.158,199.271,288.617Z" transform="translate(-191.135 -177.042)" fill="#cccb00"/>
      <path id="Trazado_180" data-name="Trazado 180" d="M231.174,272.007c-.013-.172.187-.257.286-.3l.074.44Z" transform="translate(-202.158 -171.26)" fill="#cccb00"/>
      <path id="Trazado_181" data-name="Trazado 181" d="M393.152,201.924l.116-.287c.194.037.529.126.344.385C393.432,202.157,393.3,201.98,393.152,201.924Z" transform="translate(-258.128 -147.048)" fill="#cccb00"/>
      <path id="Trazado_182" data-name="Trazado 182" d="M223.367,274.708c-.007-.291.306-.25.436-.367l.15.35C223.8,274.878,223.561,274.742,223.367,274.708Z" transform="translate(-199.461 -172.17)" fill="#cccb00"/>
      <path id="Trazado_183" data-name="Trazado 183" d="M397.9,197.351c-.157-.637.529-.7.443-1.312-1.2.517-1.381-1-1.629-1.714a4.18,4.18,0,0,1,2.122,1.62C399.5,196.781,398.816,197.959,397.9,197.351Z" transform="translate(-259.359 -144.522)" fill="#cccb00"/>
      <path id="Trazado_184" data-name="Trazado 184" d="M227.1,272.616a.546.546,0,0,1-.007-.7C227.54,271.839,227.883,272.633,227.1,272.616Z" transform="translate(-200.706 -171.329)" fill="#cccb00"/>
      <path id="Trazado_185" data-name="Trazado 185" d="M235.171,264.819l.8-1.464c.7.935,1.518-.065,2.268-.391.1-.041.278-.177.395-.052.235.961-.575,1.841-1.033,2.567a1.933,1.933,0,0,1-1.547.961Z" transform="translate(-203.54 -168.204)" fill="#cccb00"/>
      <path id="Trazado_186" data-name="Trazado 186" d="M243.11,262.58c.279.234,0,.828.365,1.258C243.532,263.282,241.738,263.113,243.11,262.58Z" transform="translate(-206.104 -168.106)" fill="#cccb00"/>
      <path id="Trazado_187" data-name="Trazado 187" d="M221.869,268.761c-.012-1-1.128-2.342-.061-3.041.45-.2.706.4.594.688-.352.978.249,1.545.692,2.294a.619.619,0,0,1,.508.49c.047.391-.508.335-.553.649C222.169,270.28,222.393,269.007,221.869,268.761Z" transform="translate(-198.763 -169.178)" fill="#cccb00"/>
      <path id="Trazado_188" data-name="Trazado 188" d="M197.993,282.981c.088-.213.151-.476.394-.464C198.494,282.765,198.192,282.894,197.993,282.981Z" transform="translate(-190.693 -174.995)" fill="#cccb00"/>
      <path id="Trazado_189" data-name="Trazado 189" d="M247.736,255.724c-.471-1.094,1.153-1.324.833-2.48.1-.044.322-.082.308-.251-.064-.562-.658-.012-.652-.546l.775-1.511c.278,1.058,1.975,2.1.785,3.2.079.319.651.543.264.889-.43.243-.982.067-.995.724.3.28.028.75-.2.91C248.079,256.932,247.981,256.149,247.736,255.724Z" transform="translate(-207.852 -164.083)" fill="#cccb00"/>
      <path id="Trazado_190" data-name="Trazado 190" d="M232.78,262.594c.115-.7-.693-1.055-.121-1.654,1.066.541,1.368-.831,2.306-1,.158-.186.251-.519.594-.55-.216.741,1.551.983.478,1.8l-.7.3c-.109-.249-.4-.24-.565-.346-.423.123-.451.606-.5.919.229.257-.086.215-.1.457A2.069,2.069,0,0,1,232.78,262.594Z" transform="translate(-202.6 -167.005)" fill="#cccb00"/>
      <path id="Trazado_191" data-name="Trazado 191" d="M228.945,264.494c-.545-.707-.257-1.422-.336-2.154.351-.153.587-.843,1.052-.454C228.974,262.773,230.01,263.8,228.945,264.494Z" transform="translate(-201.27 -167.826)" fill="#cccb00"/>
      <path id="Trazado_192" data-name="Trazado 192" d="M225.7,264.4c-.014-.171.206-.207.306-.25l.143.056C226.025,264.315,225.9,264.842,225.7,264.4Z" transform="translate(-200.268 -168.647)" fill="#cccb00"/>
      <path id="Trazado_193" data-name="Trazado 193" d="M242.767,255.928c-.258-.184-.194-.86-.622-1.029.142-.358.665-.524.916-.63l.2-.087C243.661,254.835,243.21,255.443,242.767,255.928Z" transform="translate(-205.949 -165.205)" fill="#cccb00"/>
      <path id="Trazado_194" data-name="Trazado 194" d="M199.883,271.291c.679-1.176-1.966-1.8-.378-2.255-.917,1.045,1.151.743.478,1.8l.643.252A1,1,0,0,1,199.883,271.291Z" transform="translate(-191.037 -170.337)" fill="#cccb00"/>
      <path id="Trazado_195" data-name="Trazado 195" d="M246.083,250.017l-.042-.1.351-.152.084.2C246.327,250.029,246.2,250.146,246.083,250.017Z" transform="translate(-207.296 -163.679)" fill="#cccb00"/>
      <path id="Trazado_196" data-name="Trazado 196" d="M386.984,185.076c-1.215-.476.333-3.09-1.478-1.779-1.043-.493.18-1.787-.822-2.178a1.461,1.461,0,0,1,.539-.41.716.716,0,0,0,.506.487l-.048-.8c.465-.024,1.073-.405,1.462.079-.017.242-.373.514-.1.748.731.039,1.653.111,2.162-.637a6.734,6.734,0,0,0,.914,1.844c-.488.8-2.381-.973-1.446.92-.406.707-.429-.169-.965-.173C386.158,183.43,387.924,184.5,386.984,185.076Z" transform="translate(-255.202 -139.651)" fill="#cccb00"/>
      <path id="Trazado_197" data-name="Trazado 197" d="M196.058,267.255a4.21,4.21,0,0,1,.088-1.45c.466-.022.571.637.922.9C196.717,266.854,196.559,267.451,196.058,267.255Z" transform="translate(-190.017 -169.221)" fill="#cccb00"/>
      <path id="Trazado_198" data-name="Trazado 198" d="M235.63,249.028a.3.3,0,0,1,.043-.315.388.388,0,0,1,.665.3A.733.733,0,0,1,235.63,249.028Z" transform="translate(-203.689 -163.276)" fill="#cccb00"/>
      <path id="Trazado_199" data-name="Trazado 199" d="M193.82,263.116c-.043-.924,1.318-2.042.029-2.962l-.922-.486c.516-.459.46-1.965,1.39-2.014l.107.249a1.41,1.41,0,0,0-.953.823,4.51,4.51,0,0,0,3.039,2.641c-.493.505-1.38.652-1.444,1.33A1.8,1.8,0,0,0,193.82,263.116Z" transform="translate(-188.943 -166.404)" fill="#cccb00"/>
      <path id="Trazado_200" data-name="Trazado 200" d="M199.781,261.431l.346-1.268c.429.166.283.937.069,1.263C200.1,261.472,199.9,261.558,199.781,261.431Z" transform="translate(-191.311 -167.271)" fill="#cccb00"/>
      <path id="Trazado_201" data-name="Trazado 201" d="M379.181,172.87c.222-.038.565.348.472.681C379.5,173.323,378.989,173.249,379.181,172.87Z" transform="translate(-253.286 -137.107)" fill="#cccb00"/>
      <path id="Trazado_202" data-name="Trazado 202" d="M379.107,169.144a.6.6,0,0,1,1.2-.1c-.746.2-.6.964-.13,1.353l.3.283C379.987,170.36,379.034,169.944,379.107,169.144Z" transform="translate(-253.274 -135.596)" fill="#cccb00"/>
      <path id="Trazado_203" data-name="Trazado 203" d="M238.9,228.58l-.151-.351c.9-.265,1.3-.973,1.855-1.622C240.557,227.452,239.89,228.8,238.9,228.58Z" transform="translate(-204.777 -155.676)" fill="#cccb00"/>
      <path id="Trazado_204" data-name="Trazado 204" d="M224.036,229.773c-.353-.262.071-.8-.122-1.245.293-.833,1.539-1.253.79-2.167-.215-.5.084-1.042.043-1.552.459-.726,1.209-.226,1.855-.386a1.881,1.881,0,0,1,.019,2.115c-.559,1.183-1.856,2.035-1.772,3.473C224.463,230.353,224.321,229.885,224.036,229.773Z" transform="translate(-199.641 -154.914)" fill="#cccb00"/>
      <path id="Trazado_205" data-name="Trazado 205" d="M230.532,227.578c-.044-.1-.179-.276-.049-.391a.737.737,0,0,1,.707-.012C231.362,227.573,230.747,227.66,230.532,227.578Z" transform="translate(-201.9 -155.843)" fill="#cccb00"/>
      <path id="Trazado_206" data-name="Trazado 206" d="M257.275,209.934c.053-.845,1.292-1.555.6-2.2a1.66,1.66,0,0,0,1.345-.876,5.592,5.592,0,0,1-.019-1.7c.136.589,1.115.52.906,1.14C259.223,207.563,258.251,208.75,257.275,209.934Z" transform="translate(-211.177 -148.266)" fill="#cccb00"/>
      <path id="Trazado_207" data-name="Trazado 207" d="M307.781,188.989c-.086-.2.331-.2.459-.316.243.014.544.3.356.554C308.338,189.455,307.939,189.216,307.781,188.989Z" transform="translate(-228.625 -142.569)" fill="#cccb00"/>
      <path id="Trazado_208" data-name="Trazado 208" d="M230.89,216.4c1.081-.936-.084-2.262,1.275-2.967.037-.6.66-.814,1.052-.867a15.182,15.182,0,0,0,1.788,1.531c-.329.2-.522.575-.967.649a.931.931,0,0,0-1.439.387c-.421.535.128,1.122-.643,1.4A.756.756,0,0,1,230.89,216.4Z" transform="translate(-202.06 -150.826)" fill="#cccb00"/>
      <path id="Trazado_209" data-name="Trazado 209" d="M299.172,186.787c.344-.855.258-1.879,1.4-2.133.527.537.154,1.467-.249,2.05C299.938,187.049,299.586,186.784,299.172,186.787Z" transform="translate(-225.654 -141.18)" fill="#cccb00"/>
      <path id="Trazado_210" data-name="Trazado 210" d="M256.661,203.008a.78.78,0,0,1,.287-.712.387.387,0,0,1,.665.3.55.55,0,0,1,.007.707C257.256,203.7,256.817,203.235,256.661,203.008Z" transform="translate(-210.965 -147.236)" fill="#cccb00"/>
      <path id="Trazado_211" data-name="Trazado 211" d="M297.13,185.962l-.042-.1.7-.3.152.348C297.68,186.136,297.424,185.952,297.13,185.962Z" transform="translate(-224.934 -141.493)" fill="#cccb00"/>
      <path id="Trazado_212" data-name="Trazado 212" d="M225.494,214.714a1.42,1.42,0,0,1,.395-1.7c.3-.13.609-.38.9-.266A2.154,2.154,0,0,1,225.494,214.714Z" transform="translate(-200.149 -150.877)" fill="#cccb00"/>
      <path id="Trazado_213" data-name="Trazado 213" d="M211.306,214.4a4.948,4.948,0,0,1,3.1-3.694c-.55-.589-1.058.162-1.623.23-.636-1.2.961-2.183,1.081-3.414.94-1.817,2.751-2.719,3.368-4.872.55-.237.989-1.014,1.654-.709.391,1.6-1.584,2.389-2.014,3.873-.244-.012-.31.25-.394.465a3.822,3.822,0,0,1-1.239,2.775c-.294.007-.859.074-.7.594.243.012.221.374.357.553-.243.4-.179.55.2.739.184.983-.932,1.284-1.291,1.97a3.2,3.2,0,0,0-1.591,1.685A1.249,1.249,0,0,1,211.306,214.4Z" transform="translate(-195.293 -147.128)" fill="#cccb00"/>
      <path id="Trazado_214" data-name="Trazado 214" d="M278.251,190.941c-.379-1.014.294-2.071.925-2.813.344-.029.765-.567.959-.12.528.952-.8,1.05-1.189,1.514-.244-.012-.309.251-.4.466C279.4,190.154,278.888,190.9,278.251,190.941Z" transform="translate(-218.387 -142.278)" fill="#cccb00"/>
      <path id="Trazado_215" data-name="Trazado 215" d="M191.8,225.984c.444.338.529,1.364,1.482,1.366l-.1.456C192.725,227.295,191.424,227.032,191.8,225.984Z" transform="translate(-188.53 -155.461)" fill="#cccb00"/>
      <path id="Trazado_216" data-name="Trazado 216" d="M205.075,222.581a1.35,1.35,0,0,1,.042-1.552.636.636,0,0,1,.69-.061C206.256,221.6,205.626,222.343,205.075,222.581Z" transform="translate(-193.063 -153.702)" fill="#cccb00"/>
      <path id="Trazado_217" data-name="Trazado 217" d="M190.314,229.054c-.13-.3.221-.45.409-.7.243.012.2.326.355.552C190.958,229.307,190.535,229.018,190.314,229.054Z" transform="translate(-188.03 -156.278)" fill="#cccb00"/>
      <path id="Trazado_218" data-name="Trazado 218" d="M256.752,200.461c-.065-.147-.122-.42.1-.454l.35-.152.149.348Z" transform="translate(-210.977 -146.432)" fill="#cccb00"/>
      <path id="Trazado_219" data-name="Trazado 219" d="M186.991,226.507c.365.433.115,1.367-.124,2.055A5.908,5.908,0,0,1,186.991,226.507Z" transform="translate(-186.839 -155.642)" fill="#cccb00"/>
      <path id="Trazado_220" data-name="Trazado 220" d="M237.52,206.084c-.264-.475.289-.711.429-1.071l.352-.148C238.18,205.271,238.229,206.072,237.52,206.084Z" transform="translate(-204.327 -148.164)" fill="#cccb00"/>
      <path id="Trazado_221" data-name="Trazado 221" d="M188.777,208.87c.006-.12.087-.212-.008-.295-.937.172-1.075,1.645-1.389,2.429a48.381,48.381,0,0,1,2.268-11c-.155-1.465.69-2.537,1.2-3.821a58.731,58.731,0,0,1,3.357-8.342c1.245.82-1.225,2.12.62,2.679.028.344-.343.855.157,1.056,1.182-.57,1.633-2,2.092-3.143-.636-.787.522-.993.581-1.961.995.516,1.01-.966,1.654-1.126l.571,1.051c.266-.351.438-.778.932-.872.013.169.135.177.206.206a6.612,6.612,0,0,1-2.277,2.985c-.245.4-.095.747-.095,1.161,1.247-.008,2.678-1.094,3.774-.623a1.693,1.693,0,0,0,.938-1.408l-.044-.1a1.471,1.471,0,0,0,1.345-.458c-.036-.635.752-.739,1.1-1.181.4-2.236,3.214-1.5,4.4-3.018l.144.058c-.774.687-2.119,1.56-1.783,2.477.071.029.213.082.295-.007-.526.577-1.542,1.253-1.685,2.018a8.564,8.564,0,0,1-1.878,3.639c.022.464.536.42.866.63a.731.731,0,0,0,.493-.507c-.621-.616.3-.954.588-1.256l.7-.3c.356.966-.8,1.584-.883,2.5-.556.362-1.651-.111-2.154-.31-.951.411-.868,1.85-1.59,2.512-.623.622-.109,1.817-1.04,2.276l-.587,1.256c.944-1.116-.3-1.524-.069-2.5.08-.919,1.116-1.543.632-2.4-.186-.98,1.51-.766.686-1.709a6.031,6.031,0,0,0,.387-1.171c-.536-.418-.751.324-1.1.473.443,1.168-1.3,1.8-.689,2.953-.5,2.982-3.488,4.45-3.955,7.363-.346.854-.66,1.639-.976,2.426-.649-.546-.063-1.8-.634-2.439-.157-.64.973-1.186.293-1.662-.509-.075-.523.992-.952.411-.457-.922.8-1.171.638-2.1.238-.692,1.363-1.943.576-2.666-1.1-.761-1.717.15-2.348.893-.515,1.285-.933,2.939-2.291,3.229a3.174,3.174,0,0,0-.13,1.352c.658.425,1.381-.241,1.888-.577a1.974,1.974,0,0,1,1.01-.966c.122.83-.46,1.139-.746,1.852a3.112,3.112,0,0,0-2.5,2.2c.207,1.031-1.217,2-.675,3.12l.514.779a1.71,1.71,0,0,0-.989,1.427c.35.676-.107,1.4-.323,2.147C189.892,209.8,188.519,209.923,188.777,208.87Z" transform="translate(-187.026 -140.638)" fill="#cccb00"/>
      <path id="Trazado_222" data-name="Trazado 222" d="M354.488,152.626l.267-.35.247.3C354.832,152.6,354.646,152.853,354.488,152.626Z" transform="translate(-244.768 -129.992)" fill="#cccb00"/>
      <path id="Trazado_223" data-name="Trazado 223" d="M236.252,201.458c-.256-.594.488.029.5-.507.766-.565.7-2.656,2.141-2.335.379-.637,1.058-.162,1.618-.109l.042.1C239.123,199.572,237.849,200.89,236.252,201.458Z" transform="translate(-203.894 -145.891)" fill="#cccb00"/>
      <path id="Trazado_224" data-name="Trazado 224" d="M257.166,192.051c-.079-.321.281-.591.652-.693C258.111,191.762,257.525,192.192,257.166,192.051Z" transform="translate(-211.136 -143.496)" fill="#cccb00"/>
      <path id="Trazado_225" data-name="Trazado 225" d="M246.087,195.889c-.5-.2-.131-.715-.157-1.056.287-.3.436.049.65.134C246.873,195.372,246.322,195.611,246.087,195.889Z" transform="translate(-207.22 -144.656)" fill="#cccb00"/>
      <path id="Trazado_226" data-name="Trazado 226" d="M348.924,148.871c.023-.363.344-.445.645-.575.378.193.922.077,1.065.545a.492.492,0,0,1-.094.749A1.906,1.906,0,0,1,348.924,148.871Z" transform="translate(-242.846 -128.617)" fill="#cccb00"/>
      <path id="Trazado_227" data-name="Trazado 227" d="M189.561,219.127l.4-.171.192.446-.4.174Z" transform="translate(-187.779 -153.033)" fill="#cccb00"/>
      <path id="Trazado_228" data-name="Trazado 228" d="M231.506,201.29l.205.2-.349.152Z" transform="translate(-202.223 -146.928)" fill="#cccb00"/>
      <path id="Trazado_229" data-name="Trazado 229" d="M256.388,189.714c.093-.746,1.225-.882,1.6-1.516l.35-.152c-.044.726-1.076.816-1.311,1.509C256.78,189.663,256.573,189.869,256.388,189.714Z" transform="translate(-210.871 -142.352)" fill="#cccb00"/>
      <path id="Trazado_230" data-name="Trazado 230" d="M190.61,218.065a1.144,1.144,0,0,1,.658-.814c.387.07.05.394.106.662C191.1,217.971,190.847,218.2,190.61,218.065Z" transform="translate(-188.142 -152.444)" fill="#cccb00"/>
      <path id="Trazado_231" data-name="Trazado 231" d="M259.886,185.948l-.152-.348c.053-.433.475-.145.747-.2C260.751,185.749,260.229,186.329,259.886,185.948Z" transform="translate(-212.027 -141.423)" fill="#cccb00"/>
      <path id="Trazado_232" data-name="Trazado 232" d="M232.969,197.817a.258.258,0,0,0-.258-.186c.122-.406.308-.662.7-.712C234.471,197.17,233.39,197.694,232.969,197.817Z" transform="translate(-202.689 -145.418)" fill="#cccb00"/>
      <path id="Trazado_233" data-name="Trazado 233" d="M238.72,194.585c-.222-.789.752-.736,1.209-1.05a.249.249,0,0,1,.259.182A1.729,1.729,0,0,1,238.72,194.585Z" transform="translate(-204.755 -144.249)" fill="#cccb00"/>
      <path id="Trazado_234" data-name="Trazado 234" d="M345.847,147.2c-.314-.452-.049-.8.445-.9.252.3,1.2.307.721.986A.888.888,0,0,1,345.847,147.2Z" transform="translate(-241.736 -127.928)" fill="#cccb00"/>
      <path id="Trazado_235" data-name="Trazado 235" d="M250.343,187.129c-.043-.1-.014-.171.043-.314l.2-.087C250.845,186.915,250.622,187.36,250.343,187.129Z" transform="translate(-208.775 -141.897)" fill="#cccb00"/>
      <path id="Trazado_236" data-name="Trazado 236" d="M244.011,188.92c.164-.307.516-.87.888-.558C245.121,188.736,244.241,189.589,244.011,188.92Z" transform="translate(-206.594 -142.43)" fill="#cccb00"/>
      <path id="Trazado_237" data-name="Trazado 237" d="M252.371,185.322c.718-.545-.926-1.6.609-1.208C253.7,184.81,252.687,184.949,252.371,185.322Z" transform="translate(-209.458 -140.964)" fill="#cccb00"/>
      <path id="Trazado_238" data-name="Trazado 238" d="M287.929,169.646l-.451.606-.6.259Z" transform="translate(-221.406 -135.994)" fill="#cccb00"/>
      <path id="Trazado_239" data-name="Trazado 239" d="M202.035,204.786c.55-.237.918-1.043,1.6-.693-.393.467-.229,1.4-.837,1.777A3.448,3.448,0,0,1,202.035,204.786Z" transform="translate(-192.09 -147.867)" fill="#cccb00"/>
      <path id="Trazado_240" data-name="Trazado 240" d="M261.309,180.238a1.225,1.225,0,0,1,.3-1.371c.2-.085.408-.293.647-.158C262.341,179.321,262.218,180.553,261.309,180.238Z" transform="translate(-212.539 -139.111)" fill="#cccb00"/>
      <path id="Trazado_241" data-name="Trazado 241" d="M244.724,184.415l.565.347c-1.031.09-.831,1.657-1.9,1.936l-.41.708C243.664,186.228,243.134,184.867,244.724,184.415Z" transform="translate(-206.239 -141.097)" fill="#cccb00"/>
      <path id="Trazado_242" data-name="Trazado 242" d="M340.594,144.547c-.387-.482.195-.791.453-1.018a1.034,1.034,0,0,1,1.145.033C342.012,144.113,341.1,145.451,340.594,144.547Z" transform="translate(-239.923 -126.914)" fill="#cccb00"/>
      <path id="Trazado_243" data-name="Trazado 243" d="M281.158,169.21a3.538,3.538,0,0,1,2.025.012l-.042.313A5.213,5.213,0,0,1,281.158,169.21Z" transform="translate(-219.43 -135.791)" fill="#cccb00"/>
      <path id="Trazado_244" data-name="Trazado 244" d="M246.773,180.921c-.222-.376.366-.8-.121-1.243-.623.21-.623-.616-1.259-.578a1.72,1.72,0,0,0-.945,1.111c-.872-1.331-1.963,1.378-2.518-.327a3.749,3.749,0,0,0,2-.864,1.831,1.831,0,0,0-.157-1.465.981.981,0,0,0,1.089-1.058l-.615-1.149.2-.087c1.173,1.2,1.2,3.2,2.859,3.6A1.084,1.084,0,0,1,246.773,180.921Z" transform="translate(-205.875 -137.935)" fill="#cccb00"/>
      <path id="Trazado_245" data-name="Trazado 245" d="M235.529,186.942c.187-1.08,1.589-.448,1.94-1.423.414.41.041.924-.173,1.255A4.653,4.653,0,0,1,235.529,186.942Z" transform="translate(-203.663 -141.479)" fill="#cccb00"/>
      <path id="Trazado_246" data-name="Trazado 246" d="M241.13,185.383c-.179-.277-.014-.584-.264-.888C241.309,184.422,241.773,185.221,241.13,185.383Z" transform="translate(-205.507 -141.123)" fill="#cccb00"/>
      <path id="Trazado_247" data-name="Trazado 247" d="M202.568,199.03a.646.646,0,0,0-.965-.585c.308-1.077.967-1.893,1.275-2.97.616-.5,1.326-1.335,2.262-1.088.313,1.28-2.226.9-1.49,2.467l.808-.052C204.114,197.243,203.963,199.372,202.568,199.03Z" transform="translate(-191.94 -144.528)" fill="#cccb00"/>
      <path id="Trazado_248" data-name="Trazado 248" d="M227.872,189.655l.351-.152-.166.309C227.985,189.783,227.866,189.776,227.872,189.655Z" transform="translate(-201.017 -142.855)" fill="#cccb00"/>
      <path id="Trazado_249" data-name="Trazado 249" d="M203.332,199.4a.224.224,0,0,1,.064-.262l.2-.087C203.732,199.231,203.554,199.369,203.332,199.4Z" transform="translate(-192.531 -146.156)" fill="#cccb00"/>
      <path id="Trazado_250" data-name="Trazado 250" d="M231.582,185.012c.122-.406.058-.97.444-1.313.4.241,1.338-.34,1.317.435C232.764,184.442,232.231,186.384,231.582,185.012Z" transform="translate(-202.299 -140.85)" fill="#cccb00"/>
      <path id="Trazado_251" data-name="Trazado 251" d="M230.741,184.321a1.635,1.635,0,0,1,.495-.921C231.456,183.777,231.02,184.142,230.741,184.321Z" transform="translate(-202.009 -140.747)" fill="#cccb00"/>
      <path id="Trazado_252" data-name="Trazado 252" d="M213.592,191.379l.852-.367.148.345-.851.367Z" transform="translate(-196.083 -143.377)" fill="#cccb00"/>
      <path id="Trazado_253" data-name="Trazado 253" d="M201.333,196.054c.007-.533.587-.427.844-.658l.193.035C202.292,195.939,201.446,196.183,201.333,196.054Z" transform="translate(-191.847 -144.892)" fill="#cccb00"/>
      <path id="Trazado_254" data-name="Trazado 254" d="M277.869,161.643l-.149-.348c.2-.085.587-.015.544.3C278.163,161.637,277.984,161.772,277.869,161.643Z" transform="translate(-218.242 -133.097)" fill="#cccb00"/>
      <path id="Trazado_255" data-name="Trazado 255" d="M240.48,173.138c.279-.178.223-.861.744-.613.359.14,1.225-.057,1.01.684A3.6,3.6,0,0,0,240.48,173.138Z" transform="translate(-205.374 -136.97)" fill="#cccb00"/>
      <path id="Trazado_256" data-name="Trazado 256" d="M205.147,189.452c-.407-.118-.114-.541-.15-.76l.351-.152A.577.577,0,0,1,205.147,189.452Z" transform="translate(-193.089 -142.523)" fill="#cccb00"/>
      <path id="Trazado_257" data-name="Trazado 257" d="M244.582,172.417l-.043-.1c.179-.135.4-.175.507.075A.447.447,0,0,1,244.582,172.417Z" transform="translate(-206.777 -136.881)" fill="#cccb00"/>
      <path id="Trazado_258" data-name="Trazado 258" d="M258.145,164.181c.546-.94.651.548,1.209.6C258.97,164.712,258.316,164.58,258.145,164.181Z" transform="translate(-211.478 -133.998)" fill="#cccb00"/>
      <path id="Trazado_259" data-name="Trazado 259" d="M246.511,168.326a3.446,3.446,0,0,1,2.341-.775A2.269,2.269,0,0,1,246.511,168.326Z" transform="translate(-207.458 -135.27)" fill="#cccb00"/>
      <path id="Trazado_260" data-name="Trazado 260" d="M252.853,165.293c-.889-.681.493-.922.836-1.365l.452-.192C254.7,164.615,253.561,165.281,252.853,165.293Z" transform="translate(-209.548 -133.952)" fill="#cccb00"/>
      <path id="Trazado_261" data-name="Trazado 261" d="M258.588,153.579l-.149-.348a8.28,8.28,0,0,0,2.6-2.241l.35-.15c-.9,1.212.749,2.978-.833,3.719-.135.234-.086.627-.45.608C259.647,154.654,259.518,153.533,258.588,153.579Z" transform="translate(-211.58 -129.496)" fill="#cccb00"/>
      <path id="Trazado_262" data-name="Trazado 262" d="M297.058,139.327l.128-1.355c1.025.444,1.877-.748,2.806-.8.214.495-.243.813-.529,1.113C298.824,138.74,297.808,139.827,297.058,139.327Z" transform="translate(-224.924 -124.774)" fill="#cccb00"/>
      <path id="Trazado_263" data-name="Trazado 263" d="M252.327,156.688c-.694-.643-1.718.153-2.219-.87l-1.961.135c.93-.048-.276-2.708,1.44-1.622.407-.3.836-.124,1.274-.078.263,1.3,1.8.048,2.074,1.229a.984.984,0,0,0,.587-.017c.321.331.027.755-.181.961C253.02,156.506,252.548,156.239,252.327,156.688Z" transform="translate(-208.023 -130.612)" fill="#cccb00"/>
      <path id="Trazado_264" data-name="Trazado 264" d="M285.75,142.123c.051-.433.745-.615,1.159-.62.243.017.2.329.315.459C286.859,141.94,286.05,142.821,285.75,142.123Z" transform="translate(-221.017 -126.27)" fill="#cccb00"/>
      <path id="Trazado_265" data-name="Trazado 265" d="M291.856,135.838c-.014-.171-.272-.355-.115-.541l.251-.107C292.149,135.417,292.271,135.838,291.856,135.838Z" transform="translate(-223.069 -124.088)" fill="#cccb00"/>
      <path id="Trazado_266" data-name="Trazado 266" d="M272.606,140.956a5.07,5.07,0,0,1,1.5-.94C273.672,140.261,273.23,141.571,272.606,140.956Z" transform="translate(-216.475 -125.756)" fill="#cccb00"/>
      <path id="Trazado_267" data-name="Trazado 267" d="M271.045,140.826l.1-.046c.228.259-.087.215-.049.44C271.03,141.068,270.918,140.939,271.045,140.826Z" transform="translate(-215.915 -126.02)" fill="#cccb00"/>
      <path id="Trazado_268" data-name="Trazado 268" d="M253.72,136.4c-.707-.4-.033-1.458-1.079-1.54-.514.048-1.281,1.024-1.645.181l-.308-.162c.309-.664,1.954-.842,1.18-1.808a3.328,3.328,0,0,0,.99-2.666c1.446.321.568-1.719,1.734-1.63,1.631,1.711-1.927,2.834-.2,4.213,1.625-.642,3.35-1.328,4.817-1.781l.1-.457c-.5-.609-1.268.37-1.38-.584.629-.331,1.753.482,1.968-.672-.115-1.367-1.645-.234-1.939-1.463-.859-.75-1.662.008-2.561-.016-.257-.6.259-1.056.336-1.56a31.491,31.491,0,0,1,3.635.437c.679-.353,1.984-.916,2.6-.59.157.64-1,.845-1.281,1.437a.6.6,0,0,0,.056.686c.459.507,1.2-.812,1.353.238-.353.978-2.648.613-2,1.982-.359-.139-.6.259-.789.517-.05.435.408.944-.151,1.3a3.022,3.022,0,0,0-2.046.764c-.123,1.232-2.019,1.106-1.849,2.331C254.836,136.1,254.507,136.713,253.72,136.4Z" transform="translate(-208.901 -120.984)" fill="#cccb00"/>
      <path id="Trazado_269" data-name="Trazado 269" d="M269.579,129.652l.6-.261c.357.14.4.652.307.99C270.071,130.381,269.879,129.934,269.579,129.652Z" transform="translate(-215.429 -122.084)" fill="#cccb00"/>
      <path id="Trazado_270" data-name="Trazado 270" d="M270.564,126.436a2.579,2.579,0,0,1,.238-1.1c.42.287,1.207-.23,1.315.432C272.031,126.394,270.878,126.892,270.564,126.436Z" transform="translate(-215.769 -120.683)" fill="#cccb00"/>
    </g>
    <path id="Trazado_271" data-name="Trazado 271" d="M243.354,278.455c-24.492,0-57.685-17.906-69.687-45.694-6.755-15.643-2.516-41.491,10.8-65.852,14.63-26.768,36.605-44.923,58.782-48.566,28.61-4.7,45.824,7.032,55.225,17.7,12.394,14.067,19.573,28.688,20.214,41.169.008.158.016.318.023.475l.874-.16c6.287,34.256-.248,60.521-19.423,78.063-16.513,15.106-38.45,19.9-47.817,21.954A42.114,42.114,0,0,1,243.354,278.455ZM184.8,170.951c-11.75,22.881-15.349,46.526-9.123,60.943,13.156,30.461,52.445,48.709,76.2,43.511,19.1-4.177,75.737-16.568,66.9-88.737-.72,20.919-7.765,37.671-21,49.9-13.4,12.372-31.659,20.429-51.4,22.687-16.485,1.885-32.652-.66-41.192-6.482-7.382-5.032-17.076-16.24-22.141-32.6C179.526,208.828,177.245,191.485,184.8,170.951Zm70.04-48.414a66.855,66.855,0,0,0-15.072,1.747,74.051,74.051,0,0,0-50.348,41.188c-10.352,22.691-8.049,41.915-4.293,54.046,4.9,15.827,14.206,26.62,21.284,31.444,8.131,5.545,23.718,7.945,39.711,6.117,19.288-2.206,37.1-10.062,50.17-22.121,14.679-13.554,21.48-32.946,20.214-57.637-.327-6.361-2.447-13.33-6.168-20.517a50.2,50.2,0,0,1,2.751,21.235c-1.107,14.683-7.522,27.987-12.25,36.717-9.455,17.454-44.346,34.584-70.44,34.584-7.679,0-14.6-3.548-20.563-10.545-11.354-13.316-16.68-36.637-14.53-50.064,3.287-20.545,21.333-31.37,34.622-37.726,6.149-2.94,13.986-3.807,21.793-2.634a38.234,38.234,0,0,1,18.383,1.321c15.437,5.083,25.077,18.791,26.309,29.109l-2.171.26c-1.153-9.649-10.244-22.492-24.822-27.292a35.43,35.43,0,0,0-10.718-1.793,44.558,44.558,0,0,1,4.781,1.8,40.8,40.8,0,0,1,22.968,25.956c8.275,27.831-10.9,52.765-23.067,57.776-12.223,5.031-34.741-1-45.456-16.309a45.071,45.071,0,0,1-8.24-25.731,37.964,37.964,0,0,1,10.507-26.305c8.849-9.4,17.344-14.547,24.934-17.121a33.441,33.441,0,0,0-14.257,2.935c-20.413,9.763-31.029,21.233-33.406,36.1-2.029,12.68,3.236,35.635,14.035,48.3,5.531,6.488,11.89,9.778,18.9,9.778,25.437,0,59.376-16.564,68.517-33.44,18.285-33.759,16-59.354-6.972-78.247A57.968,57.968,0,0,0,254.838,122.537Zm-3.116,28.04c-10.184,1.854-20.422,7.975-29.937,18.086-14.407,15.309-11.172,36.279-2.069,49.285,10.149,14.5,31.36,20.263,42.832,15.54,11.55-4.755,29.714-28.525,21.8-55.13a38.64,38.64,0,0,0-21.759-24.58A43.755,43.755,0,0,0,251.722,150.577Zm3.12-30.227a60.209,60.209,0,0,1,37.821,12.888c-9.639-8.807-25.239-16.648-49.061-12.738a58.963,58.963,0,0,0-18.129,6.31,74.7,74.7,0,0,1,13.8-4.657A69.147,69.147,0,0,1,254.842,120.35Z" transform="translate(-170.496 -117.277)" fill="#161615"/>
    <g id="Grupo_2211" data-name="Grupo 2211" transform="translate(63.967 54.128)">
      <path id="Trazado_272" data-name="Trazado 272" d="M270.228,244.246l-1.991-.905a190.394,190.394,0,0,0,7.52-20.054,119.924,119.924,0,0,0,4.158-23.3l2.182.146a122.4,122.4,0,0,1-4.25,23.8q-.453,1.47-.922,2.9a46.873,46.873,0,0,1,4.025-4.751c7.723-7.939,15.8-9.5,16.144-9.566l.4,2.15c-.075.014-7.761,1.529-14.973,8.941a47.833,47.833,0,0,0-8.092,11.407l-4.2,9.238Z" transform="translate(-268.237 -199.983)" fill="#161615"/>
      <path id="Trazado_273" data-name="Trazado 273" d="M310.556,242.737c-5.908,0-10.064-3.793-13.755-7.16a31.284,31.284,0,0,0-4.536-3.684c-6.414-3.848-11.851,3.186-12.079,3.488l-1.746-1.317c2.334-3.1,8.464-7.937,14.951-4.046a32.772,32.772,0,0,1,4.885,3.944c3.738,3.411,7.6,6.949,13.1,6.561a22.9,22.9,0,0,0,15.986-8.565c4.209-5.407,5.645-12.623,4.153-20.868l2.152-.39c2.028,11.212-1.37,18.479-4.579,22.6a24.779,24.779,0,0,1-17.561,9.4C311.2,242.726,310.873,242.737,310.556,242.737Z" transform="translate(-271.763 -203.686)" fill="#161615"/>
    </g>
  </g>
</svg>
