<svg xmlns="http://www.w3.org/2000/svg" width="25.44" height="20.67" viewBox="0 0 25.44 20.67">
  <g id="Grupo_2192" data-name="Grupo 2192" transform="translate(-82 -6866.458)">
    <g id="gorjeo" transform="translate(82 6866.458)">
      <g id="Grupo_2192-2" data-name="Grupo 2192" transform="translate(0 0)">
        <path id="Trazado_65" data-name="Trazado 65" d="M25.44,50.447a10.874,10.874,0,0,1-3.005.824,5.186,5.186,0,0,0,2.294-2.883,10.423,10.423,0,0,1-3.307,1.262A5.215,5.215,0,0,0,12.4,53.217a5.37,5.37,0,0,0,.121,1.189,14.762,14.762,0,0,1-10.75-5.455,5.217,5.217,0,0,0,1.6,6.97,5.15,5.15,0,0,1-2.356-.642v.057A5.239,5.239,0,0,0,5.2,60.461a5.205,5.205,0,0,1-1.367.172,4.611,4.611,0,0,1-.987-.089,5.265,5.265,0,0,0,4.873,3.633A10.479,10.479,0,0,1,1.248,66.4,9.769,9.769,0,0,1,0,66.329a14.683,14.683,0,0,0,8,2.34A14.742,14.742,0,0,0,22.845,53.829c0-.231-.008-.453-.019-.674A10.4,10.4,0,0,0,25.44,50.447Z" transform="translate(0 -48)" fill="#fff"/>
      </g>
    </g>
  </g>
</svg>
