<svg xmlns="http://www.w3.org/2000/svg" width="535.333" height="137.953" viewBox="0 0 535.333 137.953">
  <g id="Grupo_2242" data-name="Grupo 2242" transform="translate(-693 -1542)">
    <g id="Grupo_2172" data-name="Grupo 2172" transform="translate(688.88 1140.5)">
      <g id="Grupo_2168" data-name="Grupo 2168" transform="translate(422.537 422.537)">
        <path id="Trazado_30" data-name="Trazado 30" d="M500.286,495.078l-2.825-5.724-2.825,5.724L488.32,496l4.571,4.455-1.079,6.291,5.65-2.97,5.65,2.97-1.079-6.291L506.6,496Z" transform="translate(-466.118 -466.638)"/>
        <path id="Trazado_31" data-name="Trazado 31" d="M538.879,495.733l-1.275-.765a1,1,0,0,1,.092-1.757l1.349-.628a1,1,0,0,0,0-1.806l-1.349-.628a1,1,0,0,1-.092-1.758l1.275-.765a1,1,0,0,0-.189-1.8l-1.407-.483a1,1,0,0,1-.275-1.738l1.189-.894a1,1,0,0,0-.376-1.767l-1.45-.333a1,1,0,0,1-.455-1.7L537,477.9a1,1,0,0,0-.558-1.718l-1.477-.18a1,1,0,0,1-.63-1.643l.977-1.121a1,1,0,0,0-.735-1.65l-1.487-.025a1,1,0,0,1-.8-1.568l.854-1.218a1,1,0,0,0-.9-1.564l-1.482.131a1,1,0,0,1-.958-1.476l.722-1.3a1,1,0,0,0-1.062-1.461l-1.46.285a1,1,0,0,1-1.108-1.368l.582-1.369a1,1,0,0,0-1.208-1.342l-1.422.436a1,1,0,0,1-1.245-1.245l.436-1.422a1,1,0,0,0-1.342-1.208l-1.369.582a1,1,0,0,1-1.368-1.108l.285-1.46a1,1,0,0,0-1.461-1.062l-1.3.722a1,1,0,0,1-1.476-.958l.131-1.482a1,1,0,0,0-1.564-.9l-1.218.854a1,1,0,0,1-1.568-.8l-.025-1.487a1,1,0,0,0-1.65-.735l-1.122.977a1,1,0,0,1-1.643-.63l-.18-1.477a1,1,0,0,0-1.718-.558l-1.013,1.088a1,1,0,0,1-1.7-.455l-.333-1.45a1,1,0,0,0-1.767-.376l-.894,1.189a1,1,0,0,1-1.738-.275l-.483-1.406a1,1,0,0,0-1.8-.189l-.765,1.275a1,1,0,0,1-1.757-.092l-.628-1.349a1,1,0,0,0-1.806,0l-.628,1.349a1,1,0,0,1-1.758.092l-.765-1.275a1,1,0,0,0-1.8.189l-.483,1.406a1,1,0,0,1-1.738.275l-.894-1.189a1,1,0,0,0-1.767.376l-.333,1.45a1,1,0,0,1-1.7.455l-1.013-1.088a1,1,0,0,0-1.718.558l-.18,1.477a1,1,0,0,1-1.643.63l-1.121-.977a1,1,0,0,0-1.65.735l-.025,1.487a1,1,0,0,1-1.568.8l-1.218-.854a1,1,0,0,0-1.564.9l.131,1.482a1,1,0,0,1-1.476.958l-1.3-.722a1,1,0,0,0-1.461,1.062l.285,1.46a1,1,0,0,1-1.368,1.108l-1.369-.582a1,1,0,0,0-1.342,1.208l.436,1.422a1,1,0,0,1-1.245,1.245l-1.422-.436a1,1,0,0,0-1.208,1.342l.582,1.369a1,1,0,0,1-1.108,1.368l-1.46-.285a1,1,0,0,0-1.062,1.461l.722,1.3a1,1,0,0,1-.958,1.476l-1.482-.131a1,1,0,0,0-.9,1.564l.854,1.218a1,1,0,0,1-.8,1.568l-1.487.025a1,1,0,0,0-.735,1.65l.977,1.121a1,1,0,0,1-.63,1.643l-1.477.18a1,1,0,0,0-.558,1.718l1.088,1.013a1,1,0,0,1-.455,1.7l-1.45.333a1,1,0,0,0-.376,1.767l1.189.894a1,1,0,0,1-.275,1.738l-1.406.483a1,1,0,0,0-.189,1.8l1.275.765a1,1,0,0,1-.092,1.758l-1.349.628a1,1,0,0,0,0,1.806l1.349.628a1,1,0,0,1,.092,1.757l-1.275.765a1,1,0,0,0,.189,1.8l1.406.483a1,1,0,0,1,.275,1.738l-1.189.894a1,1,0,0,0,.376,1.767l1.45.333a1,1,0,0,1,.455,1.7l-1.088,1.013a1,1,0,0,0,.558,1.718l1.477.18a1,1,0,0,1,.63,1.643l-.977,1.122a1,1,0,0,0,.735,1.65l1.487.025a1,1,0,0,1,.8,1.568l-.854,1.218a1,1,0,0,0,.9,1.564l1.482-.131a1,1,0,0,1,.958,1.476l-.722,1.3a1,1,0,0,0,1.062,1.461l1.46-.285a1,1,0,0,1,1.108,1.368l-.582,1.369a1,1,0,0,0,1.208,1.342l1.422-.436a1,1,0,0,1,1.245,1.245l-.436,1.422a1,1,0,0,0,1.342,1.208l1.369-.582a1,1,0,0,1,1.368,1.108l-.285,1.46a1,1,0,0,0,1.461,1.062l1.3-.722a1,1,0,0,1,1.476.958l-.131,1.482a1,1,0,0,0,1.564.9L470,532.3a1,1,0,0,1,1.568.8l.025,1.487a1,1,0,0,0,1.65.735l1.121-.977a1,1,0,0,1,1.643.63l.18,1.477A1,1,0,0,0,477.9,537l1.013-1.088a1,1,0,0,1,1.7.455l.333,1.45a1,1,0,0,0,1.767.376l.894-1.189a1,1,0,0,1,1.738.275l.483,1.407a1,1,0,0,0,1.8.189l.765-1.275a1,1,0,0,1,1.758.092l.628,1.349a1,1,0,0,0,1.806,0l.628-1.349a1,1,0,0,1,1.757-.092l.765,1.275a1,1,0,0,0,1.8-.189l.483-1.407a1,1,0,0,1,1.738-.275l.894,1.189a1,1,0,0,0,1.767-.376l.333-1.45a1,1,0,0,1,1.7-.455L505.458,537a1,1,0,0,0,1.718-.558l.18-1.477a1,1,0,0,1,1.643-.63l1.122.977a1,1,0,0,0,1.65-.735l.025-1.487a1,1,0,0,1,1.568-.8l1.218.854a1,1,0,0,0,1.564-.9l-.131-1.482a1,1,0,0,1,1.476-.958l1.3.722a1,1,0,0,0,1.461-1.062l-.285-1.46a1,1,0,0,1,1.368-1.108l1.369.582a1,1,0,0,0,1.342-1.208l-.436-1.422a1,1,0,0,1,1.245-1.245l1.422.436a1,1,0,0,0,1.208-1.342l-.582-1.369a1,1,0,0,1,1.108-1.368l1.46.285a1,1,0,0,0,1.062-1.461l-.722-1.3a1,1,0,0,1,.958-1.476l1.482.131a1,1,0,0,0,.9-1.564l-.854-1.218a1,1,0,0,1,.8-1.568l1.487-.025a1,1,0,0,0,.735-1.65L534.34,509a1,1,0,0,1,.63-1.643l1.477-.18a1,1,0,0,0,.558-1.718l-1.088-1.013a1,1,0,0,1,.455-1.7l1.45-.333a1,1,0,0,0,.376-1.767l-1.189-.894a1,1,0,0,1,.275-1.738l1.407-.483A1,1,0,0,0,538.879,495.733Zm-49.006-41.8v35.943H453.93A37.8,37.8,0,0,1,489.873,453.93Zm1.807,75.545a37.794,37.794,0,0,1-37.75-35.987h75.5A37.794,37.794,0,0,1,491.68,529.475Zm1.807-39.6V453.93a37.8,37.8,0,0,1,35.943,35.943Z" transform="translate(-443.741 -443.741)"/>
      </g>
      <g id="Grupo_2169" data-name="Grupo 2169" transform="translate(422.998 409.669)">
        <path id="Trazado_32" data-name="Trazado 32" d="M444.667,461.163l1.465-1.707a3.6,3.6,0,0,1,.76-.682,2.237,2.237,0,0,1,.8-.335,1.74,1.74,0,0,1,.788.026,1.907,1.907,0,0,1,.743.409,2.051,2.051,0,0,1,.586.771,1.852,1.852,0,0,1,.137.848,2.436,2.436,0,0,1-.24.874,3.793,3.793,0,0,1-.553.84l-.478.556,1.769,1.518-.908,1.058Zm3.194.9.371-.432a2.674,2.674,0,0,0,.293-.412,1.148,1.148,0,0,0,.148-.423.836.836,0,0,0-.05-.411.986.986,0,0,0-.293-.385.832.832,0,0,0-.775-.222,1.459,1.459,0,0,0-.734.5l-.444.517Z" transform="translate(-444.667 -438.234)"/>
        <path id="Trazado_33" data-name="Trazado 33" d="M453.995,451.179l1.786-1.652a2.654,2.654,0,0,1,.805-.53,1.97,1.97,0,0,1,.794-.153,1.74,1.74,0,0,1,.732.183,2.169,2.169,0,0,1,.63.478,1.861,1.861,0,0,1,.516,1.165,1.825,1.825,0,0,1-.042.538,2.867,2.867,0,0,1-.147.462l2.92.848-1.173,1.085-2.508-.9-.545.5,1.6,1.733-1.016.94Zm3.042,1.249.4-.373a1.652,1.652,0,0,0,.509-.776.814.814,0,0,0-.247-.784.9.9,0,0,0-.686-.329,1.193,1.193,0,0,0-.771.374l-.515.477Z" transform="translate(-449.349 -433.434)"/>
        <path id="Trazado_34" data-name="Trazado 34" d="M467.9,439.8a3.485,3.485,0,0,1,1.158-.55,2.8,2.8,0,0,1,1.188-.052,2.984,2.984,0,0,1,1.14.469,3.915,3.915,0,0,1,1.015,1.013,3.7,3.7,0,0,1,.6,1.269,3.049,3.049,0,0,1,.055,1.236,2.921,2.921,0,0,1-.444,1.122,3.447,3.447,0,0,1-.9.921,3.543,3.543,0,0,1-1.155.554,2.741,2.741,0,0,1-1.185.056,3,3,0,0,1-1.137-.465,3.861,3.861,0,0,1-1.012-1.009,3.744,3.744,0,0,1-.607-1.274,3.092,3.092,0,0,1-.061-1.243,2.889,2.889,0,0,1,.441-1.126A3.439,3.439,0,0,1,467.9,439.8Zm.529,3.709a3.2,3.2,0,0,0,.687.729,2.094,2.094,0,0,0,.71.357,1.5,1.5,0,0,0,.685.024,1.62,1.62,0,0,0,.623-.275,1.6,1.6,0,0,0,.455-.493,1.408,1.408,0,0,0,.193-.65,2.139,2.139,0,0,0-.117-.779,3.821,3.821,0,0,0-1.17-1.635,2.084,2.084,0,0,0-.713-.361,1.439,1.439,0,0,0-.683-.02,1.687,1.687,0,0,0-.62.279,1.537,1.537,0,0,0-.456.5,1.474,1.474,0,0,0-.186.651,2.141,2.141,0,0,0,.12.782A3.375,3.375,0,0,0,468.427,443.511Z" transform="translate(-455.636 -428.573)"/>
        <path id="Trazado_35" data-name="Trazado 35" d="M480.838,431.824a4.478,4.478,0,0,1,1.289-.457,2.877,2.877,0,0,1,1.2.027,2.59,2.59,0,0,1,1.045.538,3.461,3.461,0,0,1,.833,1.074,3.62,3.62,0,0,1,.444,1.462,2.927,2.927,0,0,1-.2,1.279,3.126,3.126,0,0,1-.734,1.068,4.887,4.887,0,0,1-1.141.816l-1.74.911-2.975-5.681Zm1.726,5.117.424-.222a3.224,3.224,0,0,0,.685-.48,1.787,1.787,0,0,0,.457-.652,1.815,1.815,0,0,0,.112-.84,2.819,2.819,0,0,0-.345-1.055,1.931,1.931,0,0,0-1.174-1.057,2.075,2.075,0,0,0-1.546.229l-.586.307Z" transform="translate(-461.828 -424.636)"/>
        <path id="Trazado_36" data-name="Trazado 36" d="M493.211,425.456l1.31-.477,1.314,3.605a1.932,1.932,0,0,0,.715,1.023,1.177,1.177,0,0,0,1.073.047,1.09,1.09,0,0,0,.756-.719,1.825,1.825,0,0,0-.092-1.115l-1.355-3.72,1.31-.478,1.321,3.624a2.348,2.348,0,0,1-1.573,3.412,2.829,2.829,0,0,1-2.092.058,2.657,2.657,0,0,1-1.383-1.684Z" transform="translate(-469.035 -420.774)"/>
        <path id="Trazado_37" data-name="Trazado 37" d="M513.144,425.835a3.3,3.3,0,0,0,.756-.256,1.981,1.981,0,0,0,.5-.343l.5.929a2.7,2.7,0,0,1-.618.4,4.577,4.577,0,0,1-1.037.351,3.768,3.768,0,0,1-1.351.073,2.926,2.926,0,0,1-2.077-1.281,4.04,4.04,0,0,1-.616-2.683,3.005,3.005,0,0,1,.423-1.166,2.923,2.923,0,0,1,.88-.884,3.9,3.9,0,0,1,1.3-.536,3.954,3.954,0,0,1,1.074-.119,3.582,3.582,0,0,1,.729.106l-.08,1.072a3.154,3.154,0,0,0-.624-.1,2.5,2.5,0,0,0-.721.065,2.465,2.465,0,0,0-.737.293,1.644,1.644,0,0,0-.538.524,1.87,1.87,0,0,0-.268.771,3.39,3.39,0,0,0,.445,1.976,1.9,1.9,0,0,0,.567.586,1.74,1.74,0,0,0,.707.262A2.171,2.171,0,0,0,513.144,425.835Z" transform="translate(-477.043 -419.115)"/>
        <path id="Trazado_38" data-name="Trazado 38" d="M526.107,418.342l.124,1.093-1.8.2.6,5.279-1.385.157-.6-5.279-1.76.2-.124-1.092Z" transform="translate(-483.066 -418.123)"/>
        <path id="Trazado_39" data-name="Trazado 39" d="M537.506,417.9a3.483,3.483,0,0,1,1.258.245,2.806,2.806,0,0,1,.987.662,2.982,2.982,0,0,1,.64,1.054,3.915,3.915,0,0,1,.217,1.418,3.714,3.714,0,0,1-.267,1.38,3.059,3.059,0,0,1-.689,1.027,2.926,2.926,0,0,1-1.023.64,3.456,3.456,0,0,1-1.271.209,3.555,3.555,0,0,1-1.258-.24,2.741,2.741,0,0,1-.987-.657,2.984,2.984,0,0,1-.639-1.049,3.868,3.868,0,0,1-.217-1.413,3.745,3.745,0,0,1,.267-1.385,3.091,3.091,0,0,1,.689-1.037,2.88,2.88,0,0,1,1.023-.645A3.456,3.456,0,0,1,537.506,417.9Zm-1.774,3.3a3.215,3.215,0,0,0,.122.995,2.08,2.08,0,0,0,.36.708,1.489,1.489,0,0,0,.538.426,1.628,1.628,0,0,0,.664.148,1.609,1.609,0,0,0,.658-.127,1.41,1.41,0,0,0,.541-.408,2.137,2.137,0,0,0,.367-.7,3.809,3.809,0,0,0,.027-2.01,2.09,2.09,0,0,0-.36-.713,1.45,1.45,0,0,0-.538-.421,1.692,1.692,0,0,0-.664-.143,1.553,1.553,0,0,0-.664.132,1.463,1.463,0,0,0-.536.414,2.125,2.125,0,0,0-.368.7A3.393,3.393,0,0,0,535.732,421.2Z" transform="translate(-489.638 -417.902)"/>
        <path id="Trazado_40" data-name="Trazado 40" d="M559.59,425.756a3.339,3.339,0,0,0,.8.068,2.014,2.014,0,0,0,.591-.116l.091,1.053a2.728,2.728,0,0,1-.728.121,4.539,4.539,0,0,1-1.091-.093,3.772,3.772,0,0,1-1.268-.473,2.928,2.928,0,0,1-1.392-2,4.047,4.047,0,0,1,.508-2.706,3.014,3.014,0,0,1,.854-.9,2.934,2.934,0,0,1,1.16-.459,4.444,4.444,0,0,1,2.436.348,3.532,3.532,0,0,1,.625.388l-.5.951a3.168,3.168,0,0,0-.531-.344,2.636,2.636,0,0,0-1.48-.254,1.647,1.647,0,0,0-.7.265,1.876,1.876,0,0,0-.553.6,2.92,2.92,0,0,0-.345.976,2.97,2.97,0,0,0-.037,1.014,1.905,1.905,0,0,0,.286.764,1.748,1.748,0,0,0,.543.522A2.183,2.183,0,0,0,559.59,425.756Z" transform="translate(-500.82 -419.054)"/>
        <path id="Trazado_41" data-name="Trazado 41" d="M568.472,428.472l1.967-6.1,1.327.428-.78,2.422,2.315.747.78-2.422,1.327.427-1.967,6.1-1.327-.428.849-2.635-2.315-.746-.85,2.635Z" transform="translate(-506.814 -420.144)"/>
        <path id="Trazado_42" data-name="Trazado 42" d="M585.92,428.158l-2.554,5.882-1.278-.556,2.554-5.881Z" transform="translate(-513.649 -422.772)"/>
        <path id="Trazado_43" data-name="Trazado 43" d="M591.293,430.828l1.23.656-2.5,4.687,2.28,1.217-.517.97-3.511-1.874Z" transform="translate(-516.754 -424.391)"/>
        <path id="Trazado_44" data-name="Trazado 44" d="M601.175,436.681l3.461,2.331-.6.9-2.3-1.552-.818,1.215,2.085,1.4-.6.887-2.085-1.4-.961,1.426,2.33,1.569-.6.895L597.594,442Z" transform="translate(-521.433 -427.329)"/>
        <path id="Trazado_45" data-name="Trazado 45" d="M611.32,444.2l.963.832-.539,4q-.057.409-.131.782t-.133.565l.016.013q.387-.541.816-1.037l.869-1,1.258-1.455.978.845-4.193,4.851-.963-.832.481-3.7q.033-.241.08-.49c.031-.166.063-.324.1-.476s.063-.289.093-.411a2.356,2.356,0,0,1,.087-.295l-.016-.013q-.42.565-.839,1.057t-.858,1l-1.271,1.471-.985-.852Z" transform="translate(-526.218 -431.105)"/>
        <path id="Trazado_46" data-name="Trazado 46" d="M625.837,458.293a3.475,3.475,0,0,1,.665,1.1,2.805,2.805,0,0,1,.173,1.176,3,3,0,0,1-.35,1.182,3.923,3.923,0,0,1-.9,1.114,3.69,3.69,0,0,1-1.2.731,3.056,3.056,0,0,1-1.223.181,2.92,2.92,0,0,1-1.162-.327,3.451,3.451,0,0,1-1.009-.8,3.552,3.552,0,0,1-.669-1.092,2.75,2.75,0,0,1-.177-1.172,2.991,2.991,0,0,1,.347-1.179,3.859,3.859,0,0,1,.9-1.111,3.739,3.739,0,0,1,1.2-.734,3.092,3.092,0,0,1,1.231-.188,2.882,2.882,0,0,1,1.166.324A3.434,3.434,0,0,1,625.837,458.293Zm-3.636.906a3.232,3.232,0,0,0-.654.758,2.087,2.087,0,0,0-.282.743,1.483,1.483,0,0,0,.046.684,1.661,1.661,0,0,0,.874.994,1.41,1.41,0,0,0,.666.126,2.144,2.144,0,0,0,.763-.2,3.819,3.819,0,0,0,1.506-1.331,2.079,2.079,0,0,0,.286-.747,1.442,1.442,0,0,0-.05-.681,1.676,1.676,0,0,0-.341-.588,1.555,1.555,0,0,0-.544-.4,1.471,1.471,0,0,0-.667-.118,2.126,2.126,0,0,0-.766.2A3.4,3.4,0,0,0,622.2,459.2Z" transform="translate(-532.667 -437.611)"/>
      </g>
      <g id="Grupo_2171" data-name="Grupo 2171" transform="translate(432.31 513.754)">
        <g id="Grupo_2170" data-name="Grupo 2170" transform="translate(0 0)">
          <path id="Trazado_47" data-name="Trazado 47" d="M467.824,626.9l1.1.757-1.33,4.506q-.092.328-.183.636t-.195.615l.018.012c.166-.136.331-.266.492-.389s.343-.259.544-.408l3.715-2.859,1.1.757-3.472,6.1-.841-.58,1.87-3.216q.273-.472.56-.928l.585-.925-.018-.013q-.437.36-.879.716t-.9.7l-3.121,2.352-.768-.53,1.1-3.762q.167-.573.332-1.086t.36-1.068l-.018-.013q-.327.436-.668.861t-.687.849l-2.326,2.9-.822-.568Z" transform="translate(-463.365 -626.899)"/>
          <path id="Trazado_48" data-name="Trazado 48" d="M483.95,641.008q.3,0,.554.006a3.435,3.435,0,0,1,.495.052,3.5,3.5,0,0,1,.473.122,4.029,4.029,0,0,1,.493.206,3.15,3.15,0,0,1,.67.436,1.553,1.553,0,0,1,.418.559,1.47,1.47,0,0,1,.105.7,2.459,2.459,0,0,1-.271.875l-1.5,3.046-.727-.359.146-.572-.02-.01a2.021,2.021,0,0,1-.908.134,2.554,2.554,0,0,1-.885-.264,2.193,2.193,0,0,1-.576-.4,1.673,1.673,0,0,1-.36-.512,1.322,1.322,0,0,1-.115-.583,1.471,1.471,0,0,1,.161-.614,1.4,1.4,0,0,1,1.135-.833,3.076,3.076,0,0,1,1.727.377l.9.442.2-.4a.888.888,0,0,0,.083-.82,1.312,1.312,0,0,0-.606-.528,2.69,2.69,0,0,0-.634-.208,3.62,3.62,0,0,0-.921-.052Zm1.622,3.412-.747-.343a2.058,2.058,0,0,0-1.191-.26.814.814,0,0,0-.606.438.9.9,0,0,0-.1.388.628.628,0,0,0,.074.315.845.845,0,0,0,.212.247,1.644,1.644,0,0,0,.306.194,1.79,1.79,0,0,0,.744.175,1.763,1.763,0,0,0,.841-.2Z" transform="translate(-472.688 -633.981)"/>
          <path id="Trazado_49" data-name="Trazado 49" d="M500.775,642.877l.922.325-2.622,7.435-.775-.274.077-.585-.031-.011a2.353,2.353,0,0,1-.826.256,2.113,2.113,0,0,1-.886-.142,2.077,2.077,0,0,1-.714-.428,2.04,2.04,0,0,1-.5-.706,2.479,2.479,0,0,1-.193-.957,3.412,3.412,0,0,1,.219-1.189,3.631,3.631,0,0,1,.521-.994,2.5,2.5,0,0,1,.719-.653,1.985,1.985,0,0,1,.872-.269,2.447,2.447,0,0,1,.995.151,2.393,2.393,0,0,1,.7.38,1.937,1.937,0,0,1,.5.581Zm-1.3,3.7a1.6,1.6,0,0,0-.967-.965,1.663,1.663,0,0,0-.585-.094,1.29,1.29,0,0,0-.584.153,1.76,1.76,0,0,0-.529.449,2.572,2.572,0,0,0-.417.783,2.925,2.925,0,0,0-.186.894,1.778,1.778,0,0,0,.106.685,1.271,1.271,0,0,0,.323.485,1.343,1.343,0,0,0,.461.28,1.6,1.6,0,0,0,1.518-.23Z" transform="translate(-479.359 -634.92)"/>
          <path id="Trazado_50" data-name="Trazado 50" d="M514.149,653.914l-3.653-.807-.01.043a1.79,1.79,0,0,0,.173,1.4,1.746,1.746,0,0,0,1.151.732,3.786,3.786,0,0,0,.747.1,4.174,4.174,0,0,0,.747-.062l.04.748a3.628,3.628,0,0,1-.793.064,4.758,4.758,0,0,1-.935-.116,3.527,3.527,0,0,1-1-.38,2.427,2.427,0,0,1-.747-.659,2.258,2.258,0,0,1-.4-.947,3.129,3.129,0,0,1,.052-1.239,3.209,3.209,0,0,1,.418-1.045,2.42,2.42,0,0,1,.688-.718,2.321,2.321,0,0,1,.9-.358,2.772,2.772,0,0,1,1.078.039,2.363,2.363,0,0,1,.848.358,2,2,0,0,1,.577.605,2.046,2.046,0,0,1,.278.8,2.677,2.677,0,0,1-.05.944Zm-.836-.9a1.934,1.934,0,0,0,.046-.541,1.266,1.266,0,0,0-.122-.476,1.068,1.068,0,0,0-.31-.376,1.307,1.307,0,0,0-.529-.231,1.336,1.336,0,0,0-1.054.165,1.76,1.76,0,0,0-.681.9Z" transform="translate(-486.487 -638.812)"/>
          <path id="Trazado_51" data-name="Trazado 51" d="M531.174,655.9l.328-5.208.975.061-.328,5.208Zm.9-6.519a.616.616,0,0,1-.426-.2.562.562,0,0,1-.156-.438.583.583,0,0,1,.21-.421.623.623,0,0,1,.869.055.569.569,0,0,1,.161.444.553.553,0,0,1-.215.415A.623.623,0,0,1,532.074,649.385Z" transform="translate(-497.404 -637.579)"/>
          <path id="Trazado_52" data-name="Trazado 52" d="M540.23,658.627l-.977.03-.159-5.216.766-.023.166.717a3,3,0,0,1,.8-.619,2.248,2.248,0,0,1,.976-.236,1.708,1.708,0,0,1,1.268.411,1.678,1.678,0,0,1,.493,1.235l.11,3.6-.977.029-.106-3.451a1.1,1.1,0,0,0-.272-.753.963.963,0,0,0-.768-.26,2.011,2.011,0,0,0-1.433.744Z" transform="translate(-501.379 -640.141)"/>
          <path id="Trazado_53" data-name="Trazado 53" d="M564.545,652.24a3.409,3.409,0,0,0,.8-.271,2.075,2.075,0,0,0,.513-.354l.59,1.108a3.033,3.033,0,0,1-.64.417,4.758,4.758,0,0,1-1.157.4,4.324,4.324,0,0,1-1.53.082,3.349,3.349,0,0,1-1.308-.452,3.277,3.277,0,0,1-.992-.949,3.97,3.97,0,0,1-.6-1.408,4.068,4.068,0,0,1-.071-1.5,3.2,3.2,0,0,1,.475-1.279,3.351,3.351,0,0,1,.988-.973,4.415,4.415,0,0,1,1.465-.6,4.244,4.244,0,0,1,1.2-.126,4.068,4.068,0,0,1,.771.117l-.1,1.285a3.21,3.21,0,0,0-.646-.116,2.527,2.527,0,0,0-.777.061,2.664,2.664,0,0,0-.785.307,1.763,1.763,0,0,0-.572.544,1.926,1.926,0,0,0-.287.8,3.462,3.462,0,0,0,.456,2.054,2.021,2.021,0,0,0,.6.622,1.848,1.848,0,0,0,.752.28A2.359,2.359,0,0,0,564.545,652.24Z" transform="translate(-511.933 -636.65)"/>
          <path id="Trazado_54" data-name="Trazado 54" d="M577.106,649.417l-1.54.572-2.764-7.442,1.54-.572,1.055,2.842a2.708,2.708,0,0,1,.531-.612,2.454,2.454,0,0,1,.768-.451,2.229,2.229,0,0,1,.842-.158,1.558,1.558,0,0,1,.693.175,1.718,1.718,0,0,1,.542.456,2.523,2.523,0,0,1,.383.7l1.218,3.279-1.541.572-1.125-3.029a1.062,1.062,0,0,0-.466-.632.81.81,0,0,0-.644,0,1.343,1.343,0,0,0-.468.3,1.558,1.558,0,0,0-.336.468Z" transform="translate(-518.3 -634.467)"/>
          <path id="Trazado_55" data-name="Trazado 55" d="M588.048,638.137a.833.833,0,0,1-.683.072.809.809,0,0,1-.453-.414.8.8,0,0,1-.05-.613.838.838,0,0,1,.466-.5.852.852,0,0,1,.675-.075.8.8,0,0,1,.461.416.808.808,0,0,1,.057.617A.848.848,0,0,1,588.048,638.137Zm2.093,6.076-2.366-4.776,1.473-.73,2.365,4.776Z" transform="translate(-525.338 -631.753)"/>
          <path id="Trazado_56" data-name="Trazado 56" d="M597.456,639.975l-4.035-6.837,1.4-.824,4.035,6.837Z" transform="translate(-528.65 -629.617)"/>
          <path id="Trazado_57" data-name="Trazado 57" d="M609.424,631.992l-2.782,2.026.026.036a.872.872,0,0,0,.827.4,2.11,2.11,0,0,0,1.029-.434,3.209,3.209,0,0,0,.595-.542,2.748,2.748,0,0,0,.342-.51l.909.739a3.861,3.861,0,0,1-.464.654,4.931,4.931,0,0,1-.846.753,3.971,3.971,0,0,1-1.015.54,2.671,2.671,0,0,1-1.053.156,2.382,2.382,0,0,1-1.018-.3,2.859,2.859,0,0,1-.912-.848,3.33,3.33,0,0,1-.526-1.052,2.61,2.61,0,0,1-.088-1.055,2.432,2.432,0,0,1,.343-.971,2.82,2.82,0,0,1,.763-.81,2.348,2.348,0,0,1,1.81-.494,2.593,2.593,0,0,1,1.648,1.149Zm-2.015.08a1.489,1.489,0,0,0-.252-.27.984.984,0,0,0-.3-.174.706.706,0,0,0-.329-.036.733.733,0,0,0-.34.145.846.846,0,0,0-.361.6,1.213,1.213,0,0,0,.193.773Z" transform="translate(-534.175 -628.58)"/>
        </g>
      </g>
      <path id="Trazado_58" data-name="Trazado 58" d="M470.476,539.453a68.976,68.976,0,1,1,68.976-68.976A69.055,69.055,0,0,1,470.476,539.453Zm0-136.459a67.482,67.482,0,1,0,67.482,67.482A67.559,67.559,0,0,0,470.476,402.994Z"/>
      <path id="Trazado_59" data-name="Trazado 59" d="M436.823,544.533a1.446,1.446,0,0,1-1.114-.521,58.74,58.74,0,0,1-3.59-70.44,1.45,1.45,0,1,1,2.4,1.623,55.842,55.842,0,0,0,3.414,66.959,1.45,1.45,0,0,1-1.113,2.379Z" transform="translate(-10.335 -35.858)"/>
      <path id="Trazado_60" data-name="Trazado 60" d="M626.865,544.533a1.45,1.45,0,0,1-1.112-2.379,55.841,55.841,0,0,0,3.414-66.96,1.45,1.45,0,1,1,2.4-1.624,58.74,58.74,0,0,1-3.59,70.441A1.445,1.445,0,0,1,626.865,544.533Z" transform="translate(-112.4 -35.857)"/>
      <path id="Trazado_61" data-name="Trazado 61" d="M635.158,561.576a1,1,0,0,0,.959,1.476l1.481-.131" transform="translate(-117.227 -80.354)"/>
    </g>
    <g id="Grupo_2228" data-name="Grupo 2228" transform="translate(693 1542.063)">
      <g id="Grupo_2197" data-name="Grupo 2197" transform="translate(61.207 12.847)">
        <g id="Grupo_2196" data-name="Grupo 2196" transform="translate(0)">
          <path id="Trazado_69" data-name="Trazado 69" d="M52.521,911.668l-.467,1.134c-4.248,0-5.035-8.44-12.109-8.44-.349,0-3.375-.146-3.375,1.89v6.55H35.2V891.465H36.57v11.992a10.276,10.276,0,0,0,2.619-.7h.03c5.383-2.1,10.419-7.335,10.419-10.975l1.4-.321c0,4.687-4.977,9.344-9.374,11.528C48.5,904.419,49.115,911.668,52.521,911.668Z" transform="translate(-35.201 -890.171)"/>
          <path id="Trazado_70" data-name="Trazado 70" d="M125.726,911.668l-.467,1.134c-4.248,0-5.035-8.44-12.108-8.44-.349,0-3.376-.146-3.376,1.89v6.55h-1.369V891.465h1.369v11.992a10.271,10.271,0,0,0,2.618-.7h.03c5.385-2.1,10.42-7.335,10.42-10.975l1.4-.321c0,4.687-4.977,9.344-9.373,11.528C121.708,904.419,122.32,911.668,125.726,911.668Z" transform="translate(-63.218 -890.171)"/>
          <path id="Trazado_71" data-name="Trazado 71" d="M87.16,901.323a11.947,11.947,0,0,1-20.4,8.454,11.948,11.948,0,1,1,16.894-16.9A11.529,11.529,0,0,1,87.16,901.323Zm-11.954-10.18a10.214,10.214,0,1,0,7.217,3A9.795,9.795,0,0,0,75.205,891.143Z" transform="translate(-45.936 -889.369)"/>
          <path id="Trazado_72" data-name="Trazado 72" d="M159.359,901.323a11.964,11.964,0,1,1-3.5-8.447A11.518,11.518,0,0,1,159.359,901.323ZM147.4,891.143a10.213,10.213,0,1,0,7.218,3A9.794,9.794,0,0,0,147.4,891.143Z" transform="translate(-73.568 -889.369)"/>
          <path id="Trazado_73" data-name="Trazado 73" d="M186.472,905.743c-.177.025-.352.041-.528.051v.059H179.7v7.206h-1.631V890.708h7.878v.026a7.546,7.546,0,0,1,4.9,12.865,7.416,7.416,0,0,1-2.709,1.762l4.435,7.7h-1.882Zm-.852-1.509V904.2a5.937,5.937,0,0,0,.312-11.859H179.7v11.9Z" transform="translate(-89.878 -889.881)"/>
          <path id="Trazado_74" data-name="Trazado 74" d="M229.657,901.323a11.967,11.967,0,1,1-3.5-8.447A11.519,11.519,0,0,1,229.657,901.323ZM217.7,891.143a10.214,10.214,0,1,0,7.217,3A9.791,9.791,0,0,0,217.7,891.143Z" transform="translate(-100.473 -889.369)"/>
        </g>
        <path id="Trazado_75" data-name="Trazado 75" d="M252.234,906.772v7.206H250.6V891.627h7.985v1.631h-6.354v11.883h3.3v1.631Z" transform="translate(-117.639 -890.233)"/>
        <path id="Trazado_76" data-name="Trazado 76" d="M289,902.241a11.965,11.965,0,1,1-3.5-8.446A11.516,11.516,0,0,1,289,902.241Zm-11.954-10.18a10.214,10.214,0,1,0,7.22,3A9.792,9.792,0,0,0,277.044,892.062Z" transform="translate(-123.184 -889.72)"/>
        <path id="Trazado_77" data-name="Trazado 77" d="M331.615,902.242a11.963,11.963,0,1,1-3.5-8.446A11.516,11.516,0,0,1,331.615,902.242Zm-11.954-10.18a10.215,10.215,0,1,0,7.22,3A9.795,9.795,0,0,0,319.66,892.062Z" transform="translate(-139.493 -889.721)"/>
        <path id="Trazado_78" data-name="Trazado 78" d="M352.212,913.882l.025-22.351h2.014a11.091,11.091,0,0,1,7.593,3.225,11.481,11.481,0,0,1,3.034,7.984,11.085,11.085,0,0,1-3.082,7.917,11.364,11.364,0,0,1-7.2,3.224Zm1.631-20.625v19.028a8.916,8.916,0,0,0,6.681-2.791,9.363,9.363,0,0,0,2.7-6.753,9.7,9.7,0,0,0-2.612-6.785,8.274,8.274,0,0,0-6.37-2.709C354.111,893.246,353.979,893.248,353.843,893.257Z" transform="translate(-156.526 -890.196)"/>
        <path id="Trazado_79" data-name="Trazado 79" d="M386.343,893.493a3.063,3.063,0,0,0-2.182-.936h-.119a3.351,3.351,0,0,0-3.214,3.333,13.152,13.152,0,0,0,.335,2.075l2.241,9.041a14.343,14.343,0,0,1,.337,2.013,5.036,5.036,0,0,1-1.469,3.544,4.963,4.963,0,0,1-3.482,1.589h-.217a4.616,4.616,0,0,1-3.323-1.391l1.237-1.27a3.043,3.043,0,0,0,2.182.936h.12a3.233,3.233,0,0,0,2.277-1.032,3.284,3.284,0,0,0,.936-2.3,15.158,15.158,0,0,0-.326-1.979q-2.59-9.782-2.59-11.15a5.214,5.214,0,0,1,4.939-5.133h.217a4.668,4.668,0,0,1,3.346,1.391Z" transform="translate(-165.344 -889.928)"/>
      </g>
      <path id="Trazado_80" data-name="Trazado 80" d="M-18.264,887.015c-.2-3.843-2.417-8.343-6.231-12.672-2.9-3.289-8.206-6.906-17.028-5.457-6.838,1.123-13.614,6.721-18.125,14.975-4.1,7.511-5.412,15.481-3.33,20.3,3.7,8.568,13.935,14.089,21.487,14.089a12.988,12.988,0,0,0,2.772-.281c2.6-.57,9.521-2.083,14.606-6.842C-18.3,905.688-16.33,897.574-18.264,887.015Zm-23.15-17.463c7.345-1.206,12.155,1.212,15.127,3.927a18.566,18.566,0,0,0-11.661-3.973,21.331,21.331,0,0,0-4.8.556A23.059,23.059,0,0,0-47,871.5,18.189,18.189,0,0,1-41.414,869.552Zm-1.183,1.167a20.621,20.621,0,0,1,4.647-.539,17.876,17.876,0,0,1,11.441,3.987c7.085,5.825,7.788,13.717,2.149,24.126-2.819,5.2-13.283,10.31-21.126,10.31a7.575,7.575,0,0,1-5.827-3.014c-3.33-3.905-4.954-10.983-4.328-14.892.733-4.583,4.006-8.12,10.3-11.131a10.3,10.3,0,0,1,4.4-.9,19.136,19.136,0,0,0-7.688,5.28,11.706,11.706,0,0,0-3.24,8.111,13.9,13.9,0,0,0,2.541,7.934c3.3,4.722,10.247,6.58,14.016,5.028,2.383-.981,5.636-4.441,7.04-9.032a7.544,7.544,0,0,0,1.719-1.6,8.453,8.453,0,0,0,1.412-6.969h0c-.438-3.167-3.394-7.309-8.1-8.857a11.81,11.81,0,0,0-5.668-.407,11.805,11.805,0,0,0-6.72.812c-4.1,1.96-9.662,5.3-10.675,11.632-.663,4.14.979,11.331,4.48,15.436a8.219,8.219,0,0,0,6.341,3.252c8.046,0,18.8-5.282,21.719-10.664a29.039,29.039,0,0,0,3.777-11.321,15.486,15.486,0,0,0-.848-6.547,15.775,15.775,0,0,1,1.9,6.326c.391,7.613-1.706,13.592-6.233,17.772a27.459,27.459,0,0,1-15.468,6.82c-4.931.564-9.738-.176-12.244-1.886a18.618,18.618,0,0,1-6.563-9.7,23.051,23.051,0,0,1,1.324-16.664A22.831,22.831,0,0,1-42.6,870.718Zm16.8,16.889h0a7.875,7.875,0,0,1-1.293,6.357,6.632,6.632,0,0,1-.9.942A14.942,14.942,0,0,0-28.2,887.2a12.581,12.581,0,0,0-7.082-8,13.731,13.731,0,0,0-1.474-.556,10.931,10.931,0,0,1,3.3.553C-28.959,880.673-26.156,884.633-25.8,887.608Zm-9.758-7.8a11.914,11.914,0,0,1,6.709,7.579,14.441,14.441,0,0,1,.02,8.139,7.077,7.077,0,0,1-3.19,1.075c-1.7.119-2.886-.971-4.039-2.023a10.1,10.1,0,0,0-1.506-1.216,2.978,2.978,0,0,0-2.9-.134c.2-.235.407-.471.633-.7a9.713,9.713,0,0,1,4.617-2.756l-.122-.663a10.193,10.193,0,0,0-4.978,2.949,14.468,14.468,0,0,0-1.241,1.465q.144-.44.285-.893a37.734,37.734,0,0,0,1.31-7.339l-.672-.045a37.047,37.047,0,0,1-1.282,7.185,58.719,58.719,0,0,1-2.319,6.183l.614.279,1.294-2.849a12.424,12.424,0,0,1,.611-1.086l.078.059c.07-.093,1.747-2.262,3.725-1.075a9.636,9.636,0,0,1,1.4,1.136c1.138,1.038,2.42,2.208,4.241,2.208.1,0,.2,0,.3-.01a7.462,7.462,0,0,0,2.839-.8c-1.427,4.03-4.3,7.026-6.439,7.907-3.538,1.456-10.078-.319-13.207-4.792-2.807-4.01-3.8-10.476.638-15.2,2.934-3.117,6.091-5,9.231-5.577A13.505,13.505,0,0,1-35.558,879.812Zm-3.3,37.5c-7.327,1.6-19.439-4.024-23.5-13.416-1.92-4.446-.81-11.736,2.813-18.791a23.386,23.386,0,0,0-.543,15.174,19.32,19.32,0,0,0,6.827,10.053c2.633,1.8,7.619,2.58,12.7,2a28.135,28.135,0,0,0,15.849-7,20.5,20.5,0,0,0,6.378-13.766C-16.646,912.457-33.187,916.073-38.862,917.314Z" transform="translate(63.955 -868.557)"/>
    </g>
    <g id="Grupo_2229" data-name="Grupo 2229" transform="translate(693 1610.777)">
      <path id="Trazado_81" data-name="Trazado 81" d="M-944.373,735.241s-2.936.1-2.349-2.447,2.056-3.034,2.741-2.251S-942.806,733.088-944.373,735.241Z" transform="translate(977.053 -719.394)"/>
      <path id="Trazado_82" data-name="Trazado 82" d="M-929.086,735.659s-2.839.391-1.175-3.133,4.307-.83,3.426.613A10.876,10.876,0,0,1-929.086,735.659Z" transform="translate(965.683 -719.812)"/>
      <g id="Grupo_2199" data-name="Grupo 2199" transform="translate(0 0)">
        <path id="Trazado_83" data-name="Trazado 83" d="M-914.3,715.277c.1.106.148.167.148.167S-914.076,715.341-914.3,715.277Z" transform="translate(953.98 -708.798)"/>
        <path id="Trazado_84" data-name="Trazado 84" d="M-894.7,731.4s1.566,17.131-27.8,21.047-52.862,3.916-81.74-3.72-37.493-20.557-37.493-20.557,5.678-23.494,18.5-26.626c9.023-2.2,11.261-2.276,11.8-2.125-1.037-1.136-7.464-7.58-15.613-2.476-8.908,5.58-16.837,29.074-16.837,29.074l-.881-.1s6.559-26.235,4.405-28.682-5.091-6.559-6.363-2.741-5.873,17.424-2.252,28.388c-1.957,10.866-2.921,22.711-1.363,25.354s4.456,2.643,4.818,0,2.81-16.348,3.2-17.131c0,0,21.536,23.592,62.357,27.214s58.833.293,69.895-2.643c0,0-26.431,7.929-52.96,5.09,0,0,35.143,4.209,51.785-2.252S-885.2,735.119-894.7,731.4Zm-150.362-35.535c1.175.2-2.545,21.634-2.545,21.634C-1049.854,709.178-1046.233,695.669-1045.058,695.865Zm-2.839,48.554c-1.077-3.818,3.068-15.565,3.068-15.565S-1046.82,748.237-1047.9,744.419Z" transform="translate(1051.112 -692.939)"/>
      </g>
      <path id="Trazado_85" data-name="Trazado 85" d="M-852.983,719.315c-2.741-.489-4.5,3.427-5.091,4.6s-1.077-.2-1.077-.2c-2.35-5.776-5.188-4.209-4.5-3.034s-.979,8.419-1.175,10.67-5.286,10.377-9.4,14.586-.1-10.181.726-13.9.058-3.328-2.586-3.328-5.286,8.712-9.4,14,5.677-14.879,7.44-18.11,3.23.489,1.958.881-.881,2.447.979,2.447,2.937-2.937-1.566-8.027-13.02,15.956-14,21.144,2.643,6.265,3.23,6.951.489,1.077-4.5-.483-8.712-9.11-8.712-9.11a22.757,22.757,0,0,0,4.209-.2c7.929-3.622,8.223-9.4,5.081-12.628s-8.214,2.252-10.563,4.5-.49-2.545-.49-2.545c7.048-5.08,16.25-20.557,7.44-22.319s-15.173,30.542-15.173,30.542a52.892,52.892,0,0,0-6.461,8.908c-2.741,4.894-5.874,3.524-2.643-4.5s1.371-13.215-1.468-16.446-7.342,4.5-7.342,4.5c1.175-6.852-1.86-9.4-4.6-11.062s-6.167,8.027-6.167,8.027a6.119,6.119,0,0,0-4.21-5.971c-2.741-.979-1.272,1.468-1.272,1.468,2.839,12.138-7.048,23.69-9.1,22.417s1.86-13.313,3.328-17.62-3.426-7.734-3.133-6.461-3.72,17.914-8.615,22.613.294-9.887,1.371-16.348-4.894-7.244-4.894-7.244c1.468,2.643-.2,8.712-1.762,14.292s-1.86,10.768,1.762,13.215,6.95-4.9,6.95-4.9c-.881,2.535,1.469,6.275,4.21,6.177s7.733-6.853,7.733-6.853c-1.664,4.6,2.154,6.167,2.741,6.657s.587-2.545.587-2.545c.979-10.573,5.776-16.837,8.517-21.634s2.153,5.678.391,12.824,1.37,8.712,2.447,9.594.758-.294.758-.294c-.612-6.853,6.976-18.8,8.737-17.718s-1.077,9.887-2.349,13.792-.2,8.331,3.035,9.806,6.363-2.845,9.006-7.642,2.252-2.164,2.252-2.164-.489,5.2,2.545,5.688,2.545-7.146,2.545-7.146c7.44,10.377,12.334,11.355,16.543,11.258s10.866-16.642,10.866-16.642-1.566,5.874-2.741,9.2,2.35,6.852,4.8,6.558,7.342-7.831,7.342-7.831.489,3.622,1.762,5.286,1.664-.2,1.664-.2c-.979-10.572,8.908-23.886,10.866-23.788s-.783,4.8-.685,5.482,2.937,1.762,4.4-.391S-850.242,719.8-852.983,719.315Zm-41.7-8.516c1.86.881-2.839,10.67-6.363,12.334C-901.048,723.133-896.544,709.918-894.685,710.8Zm-8.223,23.788s1.762-3.818,4.209-5.384,5.286-1.532,5.58-.472-1.273,3.213-4.992,5.073S-902.908,734.586-902.908,734.586Z" transform="translate(992.267 -701.608)"/>
      <path id="Trazado_86" data-name="Trazado 86" d="M-556.2,773.438c-7.146,5.09-3.231-5.776-3.231-5.776,3.458,2.426,6.657-4.014,8.419-7.831a7.5,7.5,0,0,0-2.056-8.81c-1.762-1.37-4.307.783-7.832,8.419s-4.013,17.522,1.175,18.795,12.237-14.506,12.237-14.506C-549.25,762.438-549.054,768.348-556.2,773.438Zm2.937-18.5c1.468,1.175-.979,6.363-2.643,9.006s-2.447,3.035-2.937,2.447S-553.264,754.937-553.264,754.937Z" transform="translate(704.98 -733.902)"/>
    </g>
  </g>
</svg>
