<svg id="Grupo_2228" data-name="Grupo 2228" xmlns="http://www.w3.org/2000/svg" width="283.454" height="49.697" viewBox="0 0 283.454 49.697">
  <g id="Grupo_2197" data-name="Grupo 2197" transform="translate(61.207 12.847)">
    <g id="Grupo_2196" data-name="Grupo 2196" transform="translate(0)">
      <path id="Trazado_69" data-name="Trazado 69" d="M52.521,911.668l-.467,1.134c-4.248,0-5.035-8.44-12.109-8.44-.349,0-3.375-.146-3.375,1.89v6.55H35.2V891.465H36.57v11.992a10.276,10.276,0,0,0,2.619-.7h.03c5.383-2.1,10.419-7.335,10.419-10.975l1.4-.321c0,4.687-4.977,9.344-9.374,11.528C48.5,904.419,49.115,911.668,52.521,911.668Z" transform="translate(-35.201 -890.171)"/>
      <path id="Trazado_70" data-name="Trazado 70" d="M125.726,911.668l-.467,1.134c-4.248,0-5.035-8.44-12.108-8.44-.349,0-3.376-.146-3.376,1.89v6.55h-1.369V891.465h1.369v11.992a10.271,10.271,0,0,0,2.618-.7h.03c5.385-2.1,10.42-7.335,10.42-10.975l1.4-.321c0,4.687-4.977,9.344-9.373,11.528C121.708,904.419,122.32,911.668,125.726,911.668Z" transform="translate(-63.218 -890.171)"/>
      <path id="Trazado_71" data-name="Trazado 71" d="M87.16,901.323a11.947,11.947,0,0,1-20.4,8.454,11.948,11.948,0,1,1,16.894-16.9A11.529,11.529,0,0,1,87.16,901.323Zm-11.954-10.18a10.214,10.214,0,1,0,7.217,3A9.795,9.795,0,0,0,75.205,891.143Z" transform="translate(-45.936 -889.369)"/>
      <path id="Trazado_72" data-name="Trazado 72" d="M159.359,901.323a11.964,11.964,0,1,1-3.5-8.447A11.518,11.518,0,0,1,159.359,901.323ZM147.4,891.143a10.213,10.213,0,1,0,7.218,3A9.794,9.794,0,0,0,147.4,891.143Z" transform="translate(-73.568 -889.369)"/>
      <path id="Trazado_73" data-name="Trazado 73" d="M186.472,905.743c-.177.025-.352.041-.528.051v.059H179.7v7.206h-1.631V890.708h7.878v.026a7.546,7.546,0,0,1,4.9,12.865,7.416,7.416,0,0,1-2.709,1.762l4.435,7.7h-1.882Zm-.852-1.509V904.2a5.937,5.937,0,0,0,.312-11.859H179.7v11.9Z" transform="translate(-89.878 -889.881)"/>
      <path id="Trazado_74" data-name="Trazado 74" d="M229.657,901.323a11.967,11.967,0,1,1-3.5-8.447A11.519,11.519,0,0,1,229.657,901.323ZM217.7,891.143a10.214,10.214,0,1,0,7.217,3A9.791,9.791,0,0,0,217.7,891.143Z" transform="translate(-100.473 -889.369)"/>
    </g>
    <path id="Trazado_75" data-name="Trazado 75" d="M252.234,906.772v7.206H250.6V891.627h7.985v1.631h-6.354v11.883h3.3v1.631Z" transform="translate(-117.639 -890.233)"/>
    <path id="Trazado_76" data-name="Trazado 76" d="M289,902.241a11.965,11.965,0,1,1-3.5-8.446A11.516,11.516,0,0,1,289,902.241Zm-11.954-10.18a10.214,10.214,0,1,0,7.22,3A9.792,9.792,0,0,0,277.044,892.062Z" transform="translate(-123.184 -889.72)"/>
    <path id="Trazado_77" data-name="Trazado 77" d="M331.615,902.242a11.963,11.963,0,1,1-3.5-8.446A11.516,11.516,0,0,1,331.615,902.242Zm-11.954-10.18a10.215,10.215,0,1,0,7.22,3A9.795,9.795,0,0,0,319.66,892.062Z" transform="translate(-139.493 -889.721)"/>
    <path id="Trazado_78" data-name="Trazado 78" d="M352.212,913.882l.025-22.351h2.014a11.091,11.091,0,0,1,7.593,3.225,11.481,11.481,0,0,1,3.034,7.984,11.085,11.085,0,0,1-3.082,7.917,11.364,11.364,0,0,1-7.2,3.224Zm1.631-20.625v19.028a8.916,8.916,0,0,0,6.681-2.791,9.363,9.363,0,0,0,2.7-6.753,9.7,9.7,0,0,0-2.612-6.785,8.274,8.274,0,0,0-6.37-2.709C354.111,893.246,353.979,893.248,353.843,893.257Z" transform="translate(-156.526 -890.196)"/>
    <path id="Trazado_79" data-name="Trazado 79" d="M386.343,893.493a3.063,3.063,0,0,0-2.182-.936h-.119a3.351,3.351,0,0,0-3.214,3.333,13.152,13.152,0,0,0,.335,2.075l2.241,9.041a14.343,14.343,0,0,1,.337,2.013,5.036,5.036,0,0,1-1.469,3.544,4.963,4.963,0,0,1-3.482,1.589h-.217a4.616,4.616,0,0,1-3.323-1.391l1.237-1.27a3.043,3.043,0,0,0,2.182.936h.12a3.233,3.233,0,0,0,2.277-1.032,3.284,3.284,0,0,0,.936-2.3,15.158,15.158,0,0,0-.326-1.979q-2.59-9.782-2.59-11.15a5.214,5.214,0,0,1,4.939-5.133h.217a4.668,4.668,0,0,1,3.346,1.391Z" transform="translate(-165.344 -889.928)"/>
  </g>
  <path id="Trazado_80" data-name="Trazado 80" d="M-18.264,887.015c-.2-3.843-2.417-8.343-6.231-12.672-2.9-3.289-8.206-6.906-17.028-5.457-6.838,1.123-13.614,6.721-18.125,14.975-4.1,7.511-5.412,15.481-3.33,20.3,3.7,8.568,13.935,14.089,21.487,14.089a12.988,12.988,0,0,0,2.772-.281c2.6-.57,9.521-2.083,14.606-6.842C-18.3,905.688-16.33,897.574-18.264,887.015Zm-23.15-17.463c7.345-1.206,12.155,1.212,15.127,3.927a18.566,18.566,0,0,0-11.661-3.973,21.331,21.331,0,0,0-4.8.556A23.059,23.059,0,0,0-47,871.5,18.189,18.189,0,0,1-41.414,869.552Zm-1.183,1.167a20.621,20.621,0,0,1,4.647-.539,17.876,17.876,0,0,1,11.441,3.987c7.085,5.825,7.788,13.717,2.149,24.126-2.819,5.2-13.283,10.31-21.126,10.31a7.575,7.575,0,0,1-5.827-3.014c-3.33-3.905-4.954-10.983-4.328-14.892.733-4.583,4.006-8.12,10.3-11.131a10.3,10.3,0,0,1,4.4-.9,19.136,19.136,0,0,0-7.688,5.28,11.706,11.706,0,0,0-3.24,8.111,13.9,13.9,0,0,0,2.541,7.934c3.3,4.722,10.247,6.58,14.016,5.028,2.383-.981,5.636-4.441,7.04-9.032a7.544,7.544,0,0,0,1.719-1.6,8.453,8.453,0,0,0,1.412-6.969h0c-.438-3.167-3.394-7.309-8.1-8.857a11.81,11.81,0,0,0-5.668-.407,11.805,11.805,0,0,0-6.72.812c-4.1,1.96-9.662,5.3-10.675,11.632-.663,4.14.979,11.331,4.48,15.436a8.219,8.219,0,0,0,6.341,3.252c8.046,0,18.8-5.282,21.719-10.664a29.039,29.039,0,0,0,3.777-11.321,15.486,15.486,0,0,0-.848-6.547,15.775,15.775,0,0,1,1.9,6.326c.391,7.613-1.706,13.592-6.233,17.772a27.459,27.459,0,0,1-15.468,6.82c-4.931.564-9.738-.176-12.244-1.886a18.618,18.618,0,0,1-6.563-9.7,23.051,23.051,0,0,1,1.324-16.664A22.831,22.831,0,0,1-42.6,870.718Zm16.8,16.889h0a7.875,7.875,0,0,1-1.293,6.357,6.632,6.632,0,0,1-.9.942A14.942,14.942,0,0,0-28.2,887.2a12.581,12.581,0,0,0-7.082-8,13.731,13.731,0,0,0-1.474-.556,10.931,10.931,0,0,1,3.3.553C-28.959,880.673-26.156,884.633-25.8,887.608Zm-9.758-7.8a11.914,11.914,0,0,1,6.709,7.579,14.441,14.441,0,0,1,.02,8.139,7.077,7.077,0,0,1-3.19,1.075c-1.7.119-2.886-.971-4.039-2.023a10.1,10.1,0,0,0-1.506-1.216,2.978,2.978,0,0,0-2.9-.134c.2-.235.407-.471.633-.7a9.713,9.713,0,0,1,4.617-2.756l-.122-.663a10.193,10.193,0,0,0-4.978,2.949,14.468,14.468,0,0,0-1.241,1.465q.144-.44.285-.893a37.734,37.734,0,0,0,1.31-7.339l-.672-.045a37.047,37.047,0,0,1-1.282,7.185,58.719,58.719,0,0,1-2.319,6.183l.614.279,1.294-2.849a12.424,12.424,0,0,1,.611-1.086l.078.059c.07-.093,1.747-2.262,3.725-1.075a9.636,9.636,0,0,1,1.4,1.136c1.138,1.038,2.42,2.208,4.241,2.208.1,0,.2,0,.3-.01a7.462,7.462,0,0,0,2.839-.8c-1.427,4.03-4.3,7.026-6.439,7.907-3.538,1.456-10.078-.319-13.207-4.792-2.807-4.01-3.8-10.476.638-15.2,2.934-3.117,6.091-5,9.231-5.577A13.505,13.505,0,0,1-35.558,879.812Zm-3.3,37.5c-7.327,1.6-19.439-4.024-23.5-13.416-1.92-4.446-.81-11.736,2.813-18.791a23.386,23.386,0,0,0-.543,15.174,19.32,19.32,0,0,0,6.827,10.053c2.633,1.8,7.619,2.58,12.7,2a28.135,28.135,0,0,0,15.849-7,20.5,20.5,0,0,0,6.378-13.766C-16.646,912.457-33.187,916.073-38.862,917.314Z" transform="translate(63.955 -868.557)"/>
</svg>
