<svg xmlns="http://www.w3.org/2000/svg" width="398" height="69.78" viewBox="0 0 398 69.78">
  <g id="Grupo_2244" data-name="Grupo 2244" transform="translate(-278 -2633.063)">
    <g id="Grupo_2197" data-name="Grupo 2197" transform="translate(363.941 2651.101)">
      <g id="Grupo_2196" data-name="Grupo 2196" transform="translate(0)">
        <path id="Trazado_69" data-name="Trazado 69" d="M59.52,919.831l-.656,1.593c-5.965,0-7.07-11.851-17-11.851-.49,0-4.739-.205-4.739,2.654v9.2H35.2V891.465h1.922V908.3a14.427,14.427,0,0,0,3.678-.979h.042c7.559-2.945,14.63-10.3,14.63-15.41l1.963-.451c0,6.581-6.988,13.12-13.162,16.187C53.878,909.653,54.737,919.831,59.52,919.831Z" transform="translate(-35.201 -889.648)" fill="#fff"/>
        <path id="Trazado_70" data-name="Trazado 70" d="M132.725,919.831l-.655,1.593c-5.965,0-7.07-11.851-17-11.851-.491,0-4.74-.205-4.74,2.654v9.2h-1.922V891.465h1.922V908.3a14.42,14.42,0,0,0,3.677-.979h.043c7.561-2.945,14.631-10.3,14.631-15.41l1.961-.451c0,6.581-6.988,13.12-13.16,16.187C127.084,909.653,127.943,919.831,132.725,919.831Z" transform="translate(-44.957 -889.648)" fill="#fff"/>
        <path id="Trazado_71" data-name="Trazado 71" d="M96.821,906.154a16.783,16.783,0,0,1-16.785,16.785,16.785,16.785,0,1,1,11.869-28.645A16.187,16.187,0,0,1,96.821,906.154ZM80.036,891.86a14.342,14.342,0,1,0,10.134,4.209A13.753,13.753,0,0,0,80.036,891.86Z" transform="translate(-38.939 -889.369)" fill="#fff"/>
        <path id="Trazado_72" data-name="Trazado 72" d="M169.02,906.154a16.8,16.8,0,1,1-4.915-11.86A16.172,16.172,0,0,1,169.02,906.154ZM152.235,891.86a14.34,14.34,0,1,0,10.135,4.209A13.752,13.752,0,0,0,152.235,891.86Z" transform="translate(-48.561 -889.369)" fill="#fff"/>
        <path id="Trazado_73" data-name="Trazado 73" d="M189.869,911.819c-.248.036-.495.058-.741.071v.083h-8.771v10.117h-2.291V890.708h11.062v.036a10.595,10.595,0,0,1,6.885,18.063,10.413,10.413,0,0,1-3.8,2.475l6.227,10.809h-2.643Zm-1.2-2.119v-.051A8.336,8.336,0,0,0,189.112,893h-8.755v16.7Z" transform="translate(-54.24 -889.547)" fill="#fff"/>
        <path id="Trazado_74" data-name="Trazado 74" d="M239.318,906.154a16.8,16.8,0,1,1-4.918-11.86A16.175,16.175,0,0,1,239.318,906.154ZM222.533,891.86a14.342,14.342,0,1,0,10.134,4.209A13.747,13.747,0,0,0,222.533,891.86Z" transform="translate(-57.93 -889.369)" fill="#fff"/>
      </g>
      <path id="Trazado_75" data-name="Trazado 75" d="M252.893,912.892V923.01H250.6V891.627h11.211v2.29h-8.921V910.6h4.629v2.291Z" transform="translate(-63.907 -889.67)" fill="#fff"/>
      <path id="Trazado_76" data-name="Trazado 76" d="M298.659,907.072a16.8,16.8,0,1,1-4.915-11.859A16.17,16.17,0,0,1,298.659,907.072Zm-16.785-14.293a14.342,14.342,0,1,0,10.137,4.209A13.749,13.749,0,0,0,281.874,892.779Z" transform="translate(-65.838 -889.491)" fill="#fff"/>
      <path id="Trazado_77" data-name="Trazado 77" d="M341.276,907.072a16.8,16.8,0,1,1-4.915-11.86A16.171,16.171,0,0,1,341.276,907.072Zm-16.785-14.294a14.342,14.342,0,1,0,10.137,4.209A13.753,13.753,0,0,0,324.491,892.779Z" transform="translate(-71.517 -889.492)" fill="#fff"/>
      <path id="Trazado_78" data-name="Trazado 78" d="M352.212,922.914l.035-31.383h2.827q6.768.455,10.661,4.529a16.121,16.121,0,0,1,4.26,11.21,15.564,15.564,0,0,1-4.327,11.117,15.956,15.956,0,0,1-10.105,4.527Zm2.29-28.959v26.717a12.519,12.519,0,0,0,9.381-3.919,13.146,13.146,0,0,0,3.786-9.482A13.626,13.626,0,0,0,364,897.744a11.617,11.617,0,0,0-8.944-3.8C354.879,893.94,354.694,893.942,354.5,893.954Z" transform="translate(-77.449 -889.657)" fill="#fff"/>
      <path id="Trazado_79" data-name="Trazado 79" d="M390.825,894.569a4.3,4.3,0,0,0-3.063-1.315H387.6a4.7,4.7,0,0,0-4.512,4.68,18.468,18.468,0,0,0,.47,2.914l3.147,12.7a20.135,20.135,0,0,1,.473,2.826,7.071,7.071,0,0,1-2.063,4.976,6.968,6.968,0,0,1-4.889,2.232h-.3a6.481,6.481,0,0,1-4.666-1.953l1.737-1.784a4.272,4.272,0,0,0,3.064,1.314h.169a4.539,4.539,0,0,0,3.2-1.449,4.611,4.611,0,0,0,1.315-3.233,21.271,21.271,0,0,0-.458-2.779q-3.636-13.736-3.636-15.656a7.321,7.321,0,0,1,6.936-7.208h.3a6.554,6.554,0,0,1,4.7,1.954Z" transform="translate(-80.519 -889.564)" fill="#fff"/>
    </g>
    <path id="Trazado_80" data-name="Trazado 80" d="M.2,894.473c-.288-5.4-3.394-11.714-8.75-17.792-4.07-4.618-11.521-9.7-23.909-7.662-9.6,1.577-19.115,9.437-25.449,21.026-5.764,10.546-7.6,21.736-4.675,28.509,5.2,12.03,19.566,19.782,30.17,19.782a18.235,18.235,0,0,0,3.892-.4c3.657-.8,13.368-2.924,20.509-9.607C.152,920.693,2.915,909.3.2,894.473ZM-32.3,869.953c10.313-1.694,17.067,1.7,21.24,5.514a26.068,26.068,0,0,0-16.373-5.579,29.954,29.954,0,0,0-6.741.78,32.378,32.378,0,0,0-5.975,2.016A25.539,25.539,0,0,1-32.3,869.953Zm-1.661,1.638a28.957,28.957,0,0,1,6.525-.757,25.1,25.1,0,0,1,16.064,5.6c9.947,8.179,10.935,19.26,3.018,33.875-3.957,7.306-18.65,14.477-29.663,14.477-3.034,0-5.787-1.424-8.182-4.232-4.676-5.484-6.956-15.422-6.077-20.911,1.03-6.436,5.625-11.4,14.463-15.629a14.468,14.468,0,0,1,6.172-1.271,26.869,26.869,0,0,0-10.794,7.413,16.437,16.437,0,0,0-4.549,11.388,19.516,19.516,0,0,0,3.567,11.14c4.639,6.63,14.388,9.239,19.68,7.06,3.346-1.377,7.913-6.235,9.884-12.682a10.592,10.592,0,0,0,2.413-2.25c1.389-1.785,2.86-4.931,1.982-9.785h0c-.615-4.446-4.765-10.263-11.367-12.437a16.582,16.582,0,0,0-7.958-.572,16.575,16.575,0,0,0-9.435,1.141c-5.752,2.752-13.566,7.438-14.988,16.333-.931,5.813,1.375,15.91,6.29,21.674,2.584,3.029,5.578,4.566,8.9,4.566,11.3,0,26.4-7.417,30.5-14.973,2.047-3.78,4.824-9.539,5.3-15.9a21.745,21.745,0,0,0-1.191-9.193,22.15,22.15,0,0,1,2.67,8.882c.549,10.69-2.4,19.085-8.751,24.953a38.555,38.555,0,0,1-21.719,9.576c-6.924.792-13.673-.247-17.192-2.648-3.065-2.089-7.094-6.761-9.215-13.614a32.366,32.366,0,0,1,1.859-23.4A32.058,32.058,0,0,1-33.965,871.592Zm23.584,23.715h.005a11.058,11.058,0,0,1-1.815,8.926,9.317,9.317,0,0,1-1.26,1.323,20.981,20.981,0,0,0-.3-10.822A17.665,17.665,0,0,0-23.7,883.495a19.276,19.276,0,0,0-2.07-.78,15.348,15.348,0,0,1,4.64.776C-14.816,885.568-10.881,891.129-10.381,895.306Zm-13.7-10.946A16.728,16.728,0,0,1-14.662,895a20.276,20.276,0,0,1,.029,11.428,9.937,9.937,0,0,1-4.478,1.509c-2.38.167-4.052-1.363-5.671-2.84a14.19,14.19,0,0,0-2.115-1.708,4.182,4.182,0,0,0-4.069-.188c.276-.329.571-.661.888-.987a13.639,13.639,0,0,1,6.482-3.87l-.172-.931a14.311,14.311,0,0,0-6.989,4.141,20.318,20.318,0,0,0-1.742,2.057q.2-.618.4-1.254a52.983,52.983,0,0,0,1.839-10.3l-.944-.063A52.017,52.017,0,0,1-33,902.08a82.447,82.447,0,0,1-3.256,8.682l.862.392,1.817-4a17.456,17.456,0,0,1,.858-1.525l.11.083c.1-.131,2.453-3.176,5.23-1.51a13.531,13.531,0,0,1,1.963,1.595c1.6,1.458,3.4,3.1,5.955,3.1.137,0,.276-.005.419-.015a10.477,10.477,0,0,0,3.987-1.117c-2,5.659-6.039,9.865-9.042,11.1-4.967,2.045-14.15-.448-18.544-6.728-3.941-5.631-5.342-14.709.9-21.337,4.12-4.377,8.552-7.027,12.961-7.83A18.961,18.961,0,0,1-24.083,884.36Zm-4.64,52.656c-10.287,2.25-27.3-5.65-32.99-18.838-2.7-6.242-1.137-16.479,3.95-26.384a32.837,32.837,0,0,0-.763,21.306c2.193,7.085,6.39,11.937,9.585,14.116,3.7,2.521,10.7,3.623,17.834,2.806A39.505,39.505,0,0,0-8.853,920.2C-3.609,915.36-.609,908.876.1,900.872,2.471,930.2-20.754,935.274-28.722,937.017Z" transform="translate(341.955 1764.505)" fill="#fff"/>
  </g>
</svg>
