<svg id="Grupo_2201" data-name="Grupo 2201" xmlns="http://www.w3.org/2000/svg" width="272.795" height="117.79" viewBox="0 0 272.795 117.79">
  <path id="Trazado_81" data-name="Trazado 81" d="M-942.667,738.783s-5,.167-4-4.167,3.5-5.167,4.668-3.834S-940,735.116-942.667,738.783Z" transform="translate(998.315 -711.799)" fill="#d5441c"/>
  <path id="Trazado_82" data-name="Trazado 82" d="M-927.893,739.082s-4.835.667-2-5.335,7.334-1.414,5.834,1.043A18.523,18.523,0,0,1-927.893,739.082Z" transform="translate(990.209 -712.097)" fill="#d5441c"/>
  <g id="Grupo_2199" data-name="Grupo 2199">
    <path id="Trazado_83" data-name="Trazado 83" d="M-914.3,715.277c.165.18.251.284.251.284S-913.918,715.385-914.3,715.277Z" transform="translate(981.866 -704.245)" fill="#d5441c"/>
    <path id="Trazado_84" data-name="Trazado 84" d="M-784.77,758.428s2.667,29.171-47.34,35.838-90.012,6.668-139.185-6.334-63.842-35-63.842-35,9.668-40.005,31.5-45.339c15.364-3.753,19.175-3.875,20.084-3.618-1.766-1.935-12.71-12.908-26.586-4.217-15.168,9.5-28.67,49.506-28.67,49.506l-1.5-.167s11.168-44.673,7.5-48.84-8.668-11.168-10.835-4.667-10,29.67-3.834,48.339c-3.333,18.5-4.974,38.672-2.321,43.173s7.587,4.5,8.2,0,4.784-27.837,5.451-29.171c0,0,36.672,40.172,106.18,46.34s100.18.5,119.016-4.5c0,0-45.006,13.5-90.178,8.668,0,0,59.841,7.168,88.178-3.834S-768.6,764.763-784.77,758.428ZM-1040.8,697.921c2,.333-4.334,36.838-4.334,36.838C-1048.971,720.59-1042.8,697.587-1040.8,697.921Zm-4.834,82.677c-1.834-6.5,5.224-26.5,5.224-26.5S-1043.8,787.1-1045.637,780.6Z" transform="translate(1051.112 -692.939)" fill="#d5441c"/>
  </g>
  <path id="Trazado_85" data-name="Trazado 85" d="M-771.99,729.27c-4.668-.833-7.668,5.835-8.668,7.835s-1.833-.333-1.833-.333c-4-9.834-8.835-7.168-7.668-5.167s-1.667,14.335-2,18.169-9,17.669-16,24.837-.167-17.336,1.236-23.67.1-5.667-4.4-5.667-9,14.835-16,23.836,9.668-25.337,12.668-30.837,5.5.833,3.333,1.5-1.5,4.167,1.667,4.167,5-5-2.667-13.669-22.17,27.17-23.836,36,4.5,10.668,5.5,11.835.833,1.833-7.668-.823-14.835-15.512-14.835-15.512a38.734,38.734,0,0,0,7.168-.333c13.5-6.167,14-16,8.652-21.5s-13.986,3.834-17.986,7.667-.834-4.333-.834-4.333c12-8.651,27.67-35,12.669-38.005s-25.837,52.007-25.837,52.007a90.071,90.071,0,0,0-11,15.168c-4.667,8.334-10,6-4.5-7.668s2.334-22.5-2.5-28-12.5,7.668-12.5,7.668c2-11.668-3.167-16-7.834-18.836s-10.5,13.668-10.5,13.668a10.42,10.42,0,0,0-7.168-10.168c-4.667-1.667-2.167,2.5-2.167,2.5,4.834,20.669-12,40.339-15.5,38.171s3.167-22.669,5.667-30-5.834-13.169-5.334-11-6.334,30.5-14.669,38.5.5-16.835,2.334-27.836-8.334-12.335-8.334-12.335c2.5,4.5-.334,14.835-3,24.336s-3.167,18.335,3,22.5,11.835-8.351,11.835-8.351c-1.5,4.316,2.5,10.685,7.168,10.519s13.168-11.669,13.168-11.669c-2.834,7.835,3.667,10.5,4.667,11.335s1-4.333,1-4.333c1.667-18,9.835-28.671,14.5-36.839s3.667,9.668.667,21.836,2.333,14.835,4.167,16.336,1.291-.5,1.291-.5c-1.042-11.668,11.878-32,14.878-30.17s-1.833,16.835-4,23.485-.333,14.186,5.168,16.7S-878,777.444-873.5,769.276s3.834-3.685,3.834-3.685-.833,8.852,4.334,9.685S-861,763.108-861,763.108c12.668,17.669,21,19.336,28.17,19.17s18.5-28.337,18.5-28.337-2.667,10-4.668,15.669,4,11.668,8.168,11.168,12.5-13.335,12.5-13.335.833,6.168,3,9,2.834-.333,2.834-.333c-1.667-18,15.168-40.672,18.5-40.505s-1.333,8.168-1.167,9.335,5,3,7.5-.667S-767.323,730.1-771.99,729.27Zm-71.01-14.5c3.167,1.5-4.834,18.169-10.835,21C-853.834,735.771-846.166,713.269-843,714.769Zm-14,40.505s3-6.5,7.168-9.168,9-2.609,9.5-.8-2.167,5.471-8.5,8.638S-857,755.274-857,755.274Z" transform="translate(1009.161 -699.119)" fill="#d5441c"/>
  <path id="Trazado_86" data-name="Trazado 86" d="M-551.011,789.464c-12.168,8.668-5.5-9.835-5.5-9.835,5.888,4.132,11.335-6.834,14.336-13.335a12.764,12.764,0,0,0-3.5-15c-3-2.333-7.335,1.333-13.335,14.336s-6.834,29.837,2,32,20.836-24.7,20.836-24.7C-539.177,770.733-538.843,780.8-551.011,789.464Zm5-31.5c2.5,2-1.667,10.835-4.5,15.335s-4.167,5.167-5,4.167S-546.011,757.96-546.011,757.96Z" transform="translate(804.351 -722.142)" fill="#d5441c"/>
</svg>
