<svg xmlns="http://www.w3.org/2000/svg" width="25" height="25" viewBox="0 0 25 25">
  <g id="Grupo_2193" data-name="Grupo 2193" transform="translate(-46 -645.062)">
    <g id="logotipo-de-instagram" transform="translate(46 645.062)">
      <path id="Trazado_66" data-name="Trazado 66" d="M18.1,0H6.9A6.907,6.907,0,0,0,0,6.9V18.1A6.907,6.907,0,0,0,6.9,25H18.1A6.907,6.907,0,0,0,25,18.1V6.9A6.907,6.907,0,0,0,18.1,0Zm4.681,18.1A4.686,4.686,0,0,1,18.1,22.782H6.9A4.686,4.686,0,0,1,2.218,18.1V6.9A4.686,4.686,0,0,1,6.9,2.218H18.1A4.686,4.686,0,0,1,22.782,6.9V18.1Z" fill="#fff"/>
      <path id="Trazado_67" data-name="Trazado 67" d="M47.41,40.97a6.442,6.442,0,1,0,6.442,6.442A6.449,6.449,0,0,0,47.41,40.97Zm0,10.665a4.224,4.224,0,1,1,4.224-4.223A4.228,4.228,0,0,1,47.41,51.635Z" transform="translate(-34.91 -34.912)" fill="#fff"/>
      <path id="Trazado_68" data-name="Trazado 68" d="M120.548,28.251a1.626,1.626,0,1,0,1.15.476A1.633,1.633,0,0,0,120.548,28.251Z" transform="translate(-101.336 -24.073)" fill="#fff"/>
    </g>
  </g>
</svg>
