<svg xmlns="http://www.w3.org/2000/svg" width="224.945" height="97.13" viewBox="0 0 224.945 97.13">
  <g id="Grupo_2245" data-name="Grupo 2245" transform="translate(-365 -2725.333)">
    <path id="Trazado_81" data-name="Trazado 81" d="M-943.392,737.278s-4.123.138-3.3-3.436,2.887-4.261,3.849-3.161S-941.193,734.254-943.392,737.278Z" transform="translate(1354.278 2010.306)" fill="#fff"/>
    <path id="Trazado_82" data-name="Trazado 82" d="M-928.4,737.627s-3.987.55-1.65-4.4,6.048-1.166,4.811.86A15.269,15.269,0,0,1-928.4,737.627Z" transform="translate(1344.785 2009.958)" fill="#fff"/>
    <g id="Grupo_2199" data-name="Grupo 2199" transform="translate(365 2725.333)">
      <path id="Trazado_83" data-name="Trazado 83" d="M-914.3,715.277c.136.149.207.234.207.234S-913.985,715.366-914.3,715.277Z" transform="translate(970.014 -706.18)" fill="#fff"/>
      <path id="Trazado_84" data-name="Trazado 84" d="M-831.488,746.941s2.2,24.054-39.036,29.552-74.223,5.5-114.771-5.223-52.644-28.864-52.644-28.864,7.972-32.988,25.978-37.386c12.669-3.095,15.812-3.2,16.562-2.983-1.456-1.6-10.481-10.644-21.922-3.477-12.508,7.835-23.641,40.823-23.641,40.823l-1.237-.137s9.209-36.837,6.186-40.273-7.148-9.209-8.935-3.848-8.247,24.466-3.162,39.86c-2.748,15.257-4.1,31.888-1.913,35.6s6.256,3.711,6.766,0,3.945-22.954,4.495-24.054c0,0,30.239,33.126,87.556,38.212s82.608.412,98.14-3.711c0,0-37.112,11.133-74.361,7.147,0,0,49.345,5.91,72.712-3.161S-818.155,752.164-831.488,746.941Zm-211.124-49.894c1.65.275-3.574,30.376-3.574,30.376C-1049.346,715.74-1044.261,696.772-1042.612,697.047Zm-3.986,68.175c-1.512-5.361,4.308-21.855,4.308-21.855S-1045.086,770.583-1046.6,765.222Z" transform="translate(1051.112 -692.939)" fill="#fff"/>
    </g>
    <path id="Trazado_85" data-name="Trazado 85" d="M-806.411,725.039c-3.849-.687-6.323,4.811-7.148,6.46s-1.512-.275-1.512-.275c-3.3-8.109-7.285-5.911-6.323-4.261s-1.374,11.821-1.649,14.982-7.422,14.57-13.2,20.48-.137-14.295,1.019-19.518.081-4.673-3.631-4.673-7.422,12.233-13.195,19.655S-844.073,737-841.6,732.462s4.536.687,2.749,1.237-1.237,3.436,1.375,3.436,4.123-4.124-2.2-11.271-18.281,22.4-19.655,29.689,3.711,8.8,4.536,9.759.687,1.512-6.323-.679-12.233-12.791-12.233-12.791a31.947,31.947,0,0,0,5.91-.275c11.134-5.085,11.546-13.2,7.134-17.731s-11.533,3.161-14.831,6.323-.688-3.573-.688-3.573c9.9-7.133,22.817-28.865,10.446-31.339s-21.3,42.885-21.3,42.885a74.27,74.27,0,0,0-9.072,12.508c-3.849,6.872-8.247,4.948-3.711-6.323s1.925-18.555-2.062-23.092-10.309,6.323-10.309,6.323c1.649-9.621-2.612-13.2-6.46-15.532s-8.659,11.271-8.659,11.271a8.592,8.592,0,0,0-5.911-8.384c-3.848-1.374-1.787,2.062-1.787,2.062,3.986,17.044-9.9,33.263-12.783,31.476s2.611-18.693,4.673-24.741-4.811-10.859-4.4-9.072-5.223,25.153-12.1,31.751.413-13.882,1.924-22.954-6.872-10.171-6.872-10.171c2.061,3.711-.275,12.233-2.474,20.068s-2.612,15.119,2.474,18.555,9.759-6.887,9.759-6.887c-1.237,3.559,2.062,8.811,5.911,8.674s10.858-9.622,10.858-9.622c-2.337,6.46,3.024,8.66,3.849,9.347s.825-3.573.825-3.573c1.374-14.845,8.109-23.642,11.958-30.377s3.023,7.972.549,18.006,1.924,12.233,3.436,13.47,1.064-.413,1.064-.413c-.859-9.622,9.794-26.39,12.268-24.878s-1.512,13.882-3.3,19.366-.275,11.7,4.261,13.768,8.934-3.994,12.645-10.73,3.161-3.038,3.161-3.038-.687,7.3,3.574,7.986,3.574-10.034,3.574-10.034c10.446,14.57,17.319,15.944,23.229,15.807s15.257-23.367,15.257-23.367-2.2,8.247-3.849,12.921,3.3,9.621,6.735,9.209,10.309-11,10.309-11,.687,5.086,2.474,7.422,2.337-.275,2.337-.275c-1.375-14.845,12.508-33.538,15.257-33.4s-1.1,6.735-.962,7.7,4.123,2.474,6.185-.55S-802.563,725.727-806.411,725.039Zm-58.554-11.958c2.612,1.237-3.986,14.982-8.934,17.319C-873.9,730.4-867.576,711.844-864.965,713.082Zm-11.546,33.4s2.474-5.361,5.911-7.56,7.422-2.151,7.835-.663-1.787,4.512-7.01,7.123S-876.511,746.482-876.511,746.482Z" transform="translate(1366.981 2025.156)" fill="#fff"/>
    <path id="Trazado_86" data-name="Trazado 86" d="M-553.216,782.654c-10.034,7.147-4.536-8.109-4.536-8.109,4.856,3.407,9.347-5.636,11.821-11a10.525,10.525,0,0,0-2.887-12.371c-2.474-1.924-6.048,1.1-11,11.821s-5.635,24.6,1.65,26.39,17.181-20.369,17.181-20.369C-543.458,767.207-543.183,775.506-553.216,782.654Zm4.123-25.978c2.062,1.65-1.374,8.934-3.711,12.646s-3.436,4.261-4.124,3.436S-549.093,756.675-549.093,756.675Z" transform="translate(1127.119 1998.194)" fill="#fff"/>
  </g>
</svg>
