<svg xmlns="http://www.w3.org/2000/svg" width="335" height="40" viewBox="0 0 335 40">
  <g id="Grupo_2243" data-name="Grupo 2243" transform="translate(-278 -20.365)">
    <g id="Grupo_2232" data-name="Grupo 2232" transform="translate(278 23.063)">
      <g id="Grupo_2197" data-name="Grupo 2197" transform="translate(43.106 9.047)">
        <g id="Grupo_2196" data-name="Grupo 2196" transform="translate(0)">
          <path id="Trazado_69" data-name="Trazado 69" d="M47.4,905.693l-.329.8c-2.992,0-3.546-5.944-8.528-5.944-.246,0-2.377-.1-2.377,1.331v4.613H35.2V891.465h.964v8.446a7.235,7.235,0,0,0,1.845-.491h.021c3.791-1.477,7.338-5.166,7.338-7.729l.985-.226c0,3.3-3.505,6.581-6.6,8.119C44.569,900.588,45,905.693,47.4,905.693Z" transform="translate(-35.201 -890.554)" fill="#393939"/>
          <path id="Trazado_70" data-name="Trazado 70" d="M120.6,905.693l-.329.8c-2.992,0-3.546-5.944-8.527-5.944-.246,0-2.378-.1-2.378,1.331v4.613h-.964V891.465h.964v8.446a7.232,7.232,0,0,0,1.844-.491h.021c3.792-1.477,7.339-5.166,7.339-7.729l.984-.226c0,3.3-3.505,6.581-6.6,8.119C117.775,900.588,118.205,905.693,120.6,905.693Z" transform="translate(-76.581 -890.554)" fill="#393939"/>
          <path id="Trazado_71" data-name="Trazado 71" d="M80.089,897.788a8.427,8.427,0,1,1-2.466-5.949A8.115,8.115,0,0,1,80.089,897.788Zm-8.419-7.17a7.194,7.194,0,1,0,5.083,2.111A6.9,6.9,0,0,0,71.67,890.618Z" transform="translate(-51.057 -889.369)" fill="#393939"/>
          <path id="Trazado_72" data-name="Trazado 72" d="M152.288,897.788a8.426,8.426,0,1,1-2.465-5.949A8.112,8.112,0,0,1,152.288,897.788Zm-8.419-7.17a7.193,7.193,0,1,0,5.083,2.111A6.9,6.9,0,0,0,143.869,890.618Z" transform="translate(-91.868 -889.369)" fill="#393939"/>
          <path id="Trazado_73" data-name="Trazado 73" d="M183.986,901.3c-.124.018-.248.029-.372.036v.042h-4.4v5.075h-1.149V890.708h5.549v.018a5.314,5.314,0,0,1,3.454,9.06,5.223,5.223,0,0,1-1.908,1.241l3.124,5.422h-1.326Zm-.6-1.063v-.026a4.181,4.181,0,0,0,.22-8.352h-4.391v8.377Z" transform="translate(-115.957 -890.126)" fill="#393939"/>
          <path id="Trazado_74" data-name="Trazado 74" d="M222.587,897.788a8.428,8.428,0,1,1-2.467-5.949A8.113,8.113,0,0,1,222.587,897.788Zm-8.419-7.17a7.194,7.194,0,1,0,5.083,2.111A6.9,6.9,0,0,0,214.168,890.618Z" transform="translate(-131.606 -889.369)" fill="#393939"/>
        </g>
        <path id="Trazado_75" data-name="Trazado 75" d="M251.752,902.293v5.075H250.6V891.627h5.623v1.149h-4.475v8.369h2.322v1.149Z" transform="translate(-156.96 -890.645)" fill="#393939"/>
        <path id="Trazado_76" data-name="Trazado 76" d="M281.928,898.706a8.426,8.426,0,1,1-2.465-5.949A8.111,8.111,0,0,1,281.928,898.706Zm-8.419-7.169a7.194,7.194,0,1,0,5.085,2.111A6.9,6.9,0,0,0,273.509,891.537Z" transform="translate(-165.15 -889.888)" fill="#393939"/>
        <path id="Trazado_77" data-name="Trazado 77" d="M324.544,898.707a8.425,8.425,0,1,1-2.465-5.949A8.111,8.111,0,0,1,324.544,898.707Zm-8.419-7.169a7.194,7.194,0,1,0,5.085,2.111A6.9,6.9,0,0,0,316.125,891.537Z" transform="translate(-189.238 -889.889)" fill="#393939"/>
        <path id="Trazado_78" data-name="Trazado 78" d="M352.212,907.272l.017-15.741h1.418a7.811,7.811,0,0,1,5.347,2.272,8.086,8.086,0,0,1,2.137,5.623,7.807,7.807,0,0,1-2.17,5.576,8,8,0,0,1-5.069,2.271Zm1.149-14.525v13.4a6.279,6.279,0,0,0,4.706-1.966,6.594,6.594,0,0,0,1.9-4.756,6.834,6.834,0,0,0-1.839-4.778,5.827,5.827,0,0,0-4.486-1.908C353.55,892.739,353.457,892.74,353.361,892.746Z" transform="translate(-214.396 -890.591)" fill="#393939"/>
        <path id="Trazado_79" data-name="Trazado 79" d="M383.063,892.705a2.157,2.157,0,0,0-1.536-.659h-.083a2.36,2.36,0,0,0-2.263,2.348,9.26,9.26,0,0,0,.236,1.462l1.579,6.368a10.093,10.093,0,0,1,.237,1.418,3.546,3.546,0,0,1-1.035,2.5,3.5,3.5,0,0,1-2.452,1.119h-.153a3.251,3.251,0,0,1-2.34-.98l.871-.895a2.143,2.143,0,0,0,1.537.659h.085a2.277,2.277,0,0,0,1.6-.727,2.313,2.313,0,0,0,.66-1.622,10.68,10.68,0,0,0-.23-1.394,63.678,63.678,0,0,1-1.824-7.853,3.672,3.672,0,0,1,3.479-3.615h.153a3.287,3.287,0,0,1,2.356.98Z" transform="translate(-227.42 -890.195)" fill="#393939"/>
      </g>
      <path id="Trazado_80" data-name="Trazado 80" d="M-31.776,881.556c-.144-2.707-1.7-5.875-4.389-8.924-2.042-2.316-5.779-4.864-11.992-3.843-4.816.791-9.588,4.733-12.765,10.546-2.891,5.29-3.812,10.9-2.345,14.3,2.606,6.034,9.814,9.922,15.133,9.922a9.146,9.146,0,0,0,1.952-.2c1.834-.4,6.705-1.467,10.287-4.819C-31.8,894.707-30.414,888.993-31.776,881.556Zm-16.3-12.3c5.173-.849,8.56.853,10.654,2.766a13.075,13.075,0,0,0-8.213-2.8,15.023,15.023,0,0,0-3.381.391,16.24,16.24,0,0,0-3,1.011A12.809,12.809,0,0,1-48.08,869.258Zm-.833.822a14.521,14.521,0,0,1,3.273-.38,12.589,12.589,0,0,1,8.057,2.808c4.989,4.1,5.485,9.661,1.514,16.991-1.985,3.665-9.355,7.261-14.878,7.261a5.335,5.335,0,0,1-4.1-2.123A15.321,15.321,0,0,1-58.1,884.149c.516-3.228,2.821-5.719,7.254-7.839a7.257,7.257,0,0,1,3.1-.637,13.477,13.477,0,0,0-5.414,3.718,8.245,8.245,0,0,0-2.282,5.712,9.789,9.789,0,0,0,1.789,5.588c2.327,3.325,7.217,4.634,9.871,3.541,1.678-.691,3.969-3.127,4.958-6.361a5.313,5.313,0,0,0,1.21-1.129,5.954,5.954,0,0,0,.994-4.908h0a8.458,8.458,0,0,0-5.7-6.238,8.318,8.318,0,0,0-3.992-.287,8.314,8.314,0,0,0-4.733.572c-2.885,1.38-6.8,3.731-7.518,8.192a15.621,15.621,0,0,0,3.155,10.871,5.788,5.788,0,0,0,4.466,2.29c5.666,0,13.243-3.72,15.3-7.51a20.451,20.451,0,0,0,2.66-7.973,10.907,10.907,0,0,0-.6-4.611,11.11,11.11,0,0,1,1.339,4.455c.275,5.362-1.2,9.573-4.39,12.516a19.338,19.338,0,0,1-10.894,4.8c-3.473.4-6.858-.124-8.623-1.328a13.112,13.112,0,0,1-4.622-6.828,16.234,16.234,0,0,1,.933-11.736A16.079,16.079,0,0,1-48.912,870.079Zm11.829,11.895h0a5.546,5.546,0,0,1-.91,4.477,4.67,4.67,0,0,1-.632.664,10.523,10.523,0,0,0-.152-5.428,8.86,8.86,0,0,0-4.988-5.636,9.67,9.67,0,0,0-1.038-.391,7.7,7.7,0,0,1,2.328.39A7.925,7.925,0,0,1-37.083,881.974Zm-6.872-5.49a8.391,8.391,0,0,1,4.725,5.338,10.17,10.17,0,0,1,.014,5.732,4.985,4.985,0,0,1-2.246.757,3.885,3.885,0,0,1-2.844-1.425,7.117,7.117,0,0,0-1.061-.857,2.1,2.1,0,0,0-2.041-.094c.139-.165.286-.331.446-.5a6.841,6.841,0,0,1,3.251-1.941l-.086-.467a7.178,7.178,0,0,0-3.506,2.077,10.18,10.18,0,0,0-.874,1.032q.1-.31.2-.629a26.575,26.575,0,0,0,.923-5.169l-.473-.031a26.091,26.091,0,0,1-.9,5.06,41.356,41.356,0,0,1-1.633,4.355l.433.2.911-2.006a8.743,8.743,0,0,1,.43-.765l.055.042c.05-.066,1.23-1.593,2.623-.757a6.788,6.788,0,0,1,.985.8,4.5,4.5,0,0,0,2.987,1.555c.069,0,.139,0,.21-.007a5.256,5.256,0,0,0,2-.56c-1,2.838-3.029,4.948-4.535,5.569-2.491,1.026-7.1-.225-9.3-3.375-1.977-2.824-2.679-7.378.449-10.7a12.177,12.177,0,0,1,6.5-3.927A9.513,9.513,0,0,1-43.956,876.484ZM-46.283,902.9c-5.16,1.128-13.691-2.834-16.547-9.449-1.352-3.131-.57-8.265,1.981-13.234a16.47,16.47,0,0,0-.383,10.687,13.606,13.606,0,0,0,4.808,7.08c1.854,1.265,5.366,1.817,8.945,1.408a19.815,19.815,0,0,0,11.162-4.926,14.44,14.44,0,0,0,4.492-9.695C-30.637,899.474-42.286,902.021-46.283,902.9Z" transform="translate(63.955 -868.557)" fill="#393939"/>
    </g>
    <g id="Grupo_2233" data-name="Grupo 2233" transform="translate(520.363 20.365)">
      <path id="Trazado_81" data-name="Trazado 81" d="M-945.4,733.116s-1.7.057-1.358-1.415,1.189-1.755,1.585-1.3A2.147,2.147,0,0,1-945.4,733.116Z" transform="translate(964.293 -723.952)" fill="#393939"/>
      <path id="Trazado_82" data-name="Trazado 82" d="M-929.8,733.606s-1.642.226-.679-1.812,2.491-.48,1.981.354A6.291,6.291,0,0,1-929.8,733.606Z" transform="translate(950.964 -724.442)" fill="#393939"/>
      <g id="Grupo_2199" data-name="Grupo 2199" transform="translate(0 0)">
        <path id="Trazado_83" data-name="Trazado 83" d="M-914.3,715.277c.056.061.085.1.085.1S-914.171,715.314-914.3,715.277Z" transform="translate(937.245 -711.531)" fill="#393939"/>
        <path id="Trazado_84" data-name="Trazado 84" d="M-960.666,715.178s.906,9.906-16.076,12.17-30.567,2.264-47.265-2.151-21.68-11.887-21.68-11.887,3.283-13.585,10.7-15.4c5.218-1.275,6.512-1.316,6.82-1.229-.6-.657-4.316-4.383-9.028-1.432-5.151,3.227-9.736,16.812-9.736,16.812l-.51-.057s3.792-15.17,2.547-16.585-2.943-3.793-3.68-1.585-3.4,10.076-1.3,16.415c-1.132,6.283-1.689,13.132-.788,14.661s2.577,1.528,2.786,0,1.625-9.453,1.851-9.906c0,0,12.453,13.642,36.057,15.736s34.02.17,40.416-1.528c0,0-15.283,4.585-30.623,2.943,0,0,20.321,2.434,29.944-1.3S-955.175,717.329-960.666,715.178Zm-86.945-20.547c.679.113-1.472,12.51-1.472,12.51C-1050.385,702.329-1048.291,694.517-1047.611,694.631Zm-1.642,28.076c-.623-2.208,1.774-9,1.774-9S-1048.63,724.914-1049.253,722.707Z" transform="translate(1051.112 -692.939)" fill="#393939"/>
      </g>
      <path id="Trazado_85" data-name="Trazado 85" d="M-901.589,713.34c-1.585-.283-2.6,1.981-2.944,2.661s-.622-.113-.622-.113c-1.359-3.34-3-2.434-2.6-1.755s-.566,4.868-.679,6.17-3.057,6-5.434,8.434-.057-5.887.42-8.038.033-1.924-1.5-1.924-3.056,5.038-5.434,8.094,3.283-8.6,4.3-10.472,1.868.283,1.132.51-.509,1.415.566,1.415,1.7-1.7-.906-4.642-7.529,9.227-8.094,12.227,1.528,3.623,1.868,4.019.283.623-2.6-.28-5.038-5.268-5.038-5.268a13.151,13.151,0,0,0,2.434-.113c4.585-2.094,4.755-5.434,2.938-7.3s-4.749,1.3-6.108,2.6-.283-1.471-.283-1.471c4.076-2.938,9.4-11.887,4.3-12.906s-8.774,17.661-8.774,17.661A30.584,30.584,0,0,0-938.382,728c-1.585,2.83-3.4,2.038-1.528-2.6s.793-7.641-.849-9.51-4.245,2.6-4.245,2.6c.679-3.962-1.076-5.434-2.66-6.4s-3.566,4.642-3.566,4.642a3.538,3.538,0,0,0-2.434-3.453c-1.585-.566-.736.849-.736.849,1.642,7.019-4.076,13.7-5.264,12.962s1.075-7.7,1.924-10.189-1.981-4.472-1.811-3.736-2.151,10.359-4.981,13.076.17-5.717.792-9.453a3.374,3.374,0,0,0-2.83-4.189c.849,1.528-.113,5.038-1.019,8.264s-1.076,6.226,1.019,7.642,4.019-2.836,4.019-2.836c-.509,1.466.849,3.629,2.434,3.572s4.472-3.962,4.472-3.962a2.946,2.946,0,0,0,1.585,3.849c.34.283.34-1.472.34-1.472.566-6.113,3.34-9.736,4.925-12.51s1.245,3.283.226,7.415.792,5.038,1.415,5.547.438-.17.438-.17c-.354-3.962,4.034-10.868,5.052-10.245s-.623,5.717-1.359,7.975-.113,4.817,1.755,5.67,3.679-1.645,5.208-4.419,1.3-1.251,1.3-1.251-.283,3.006,1.472,3.289,1.472-4.132,1.472-4.132c4.3,6,7.132,6.566,9.566,6.51s6.283-9.623,6.283-9.623-.906,3.4-1.585,5.321a3.055,3.055,0,0,0,2.774,3.792c1.415-.17,4.246-4.528,4.246-4.528a8.245,8.245,0,0,0,1.019,3.057c.736.962.962-.113.962-.113-.566-6.113,5.151-13.812,6.283-13.755s-.453,2.774-.4,3.17,1.7,1.019,2.547-.226S-900,713.623-901.589,713.34Zm-24.114-4.924c1.076.509-1.641,6.17-3.679,7.132C-929.382,715.548-926.778,707.906-925.7,708.416Zm-4.755,13.755a8.624,8.624,0,0,1,2.434-3.113c1.415-.906,3.057-.886,3.226-.273s-.736,1.858-2.887,2.933S-930.458,722.171-930.458,722.171Z" transform="translate(982.129 -703.101)" fill="#393939"/>
      <path id="Trazado_86" data-name="Trazado 86" d="M-559.314,763.821c-4.132,2.943-1.868-3.34-1.868-3.34,2,1.4,3.849-2.321,4.868-4.528a4.334,4.334,0,0,0-1.189-5.095c-1.019-.792-2.491.453-4.529,4.868s-2.321,10.132.679,10.868,7.076-8.388,7.076-8.388C-555.3,757.46-555.182,760.877-559.314,763.821Zm1.7-10.7c.849.679-.566,3.679-1.528,5.208s-1.415,1.755-1.7,1.415S-557.616,753.123-557.616,753.123Z" transform="translate(645.345 -740.959)" fill="#393939"/>
    </g>
  </g>
</svg>
