<svg xmlns="http://www.w3.org/2000/svg" width="129" height="134" viewBox="0 0 129 134">
  <g id="Grupo_2176" data-name="Grupo 2176" transform="translate(-243.981 -235.5)">
    <g id="Grupo_2174" data-name="Grupo 2174" transform="translate(243.981 235.5)">
      <ellipse id="Elipse_7" data-name="Elipse 7" cx="64.5" cy="67" rx="64.5" ry="67" transform="translate(0 0)"/>
      <g id="Grupo_2173" data-name="Grupo 2173" transform="translate(41.129 87.277)">
        <path id="Trazado_279" data-name="Trazado 279" d="M-8.24-10.256A5.464,5.464,0,0,1-6.256-9.9,4.4,4.4,0,0,1-4.688-8.888a4.7,4.7,0,0,1,1.032,1.64A6.153,6.153,0,0,1-3.28-5.024a5.819,5.819,0,0,1-.384,2.176A4.791,4.791,0,0,1-4.72-1.216,4.586,4.586,0,0,1-6.312-.184,5.419,5.419,0,0,1-8.3.176a5.577,5.577,0,0,1-1.984-.344,4.313,4.313,0,0,1-1.568-1.008,4.717,4.717,0,0,1-1.032-1.632,6.089,6.089,0,0,1-.376-2.216,5.881,5.881,0,0,1,.384-2.184,4.862,4.862,0,0,1,1.056-1.648A4.531,4.531,0,0,1-10.232-9.9,5.419,5.419,0,0,1-8.24-10.256Zm-2.7,5.232a5.056,5.056,0,0,0,.216,1.56,3.284,3.284,0,0,0,.584,1.1,2.349,2.349,0,0,0,.856.656,2.56,2.56,0,0,0,1.048.216A2.522,2.522,0,0,0-7.208-1.7a2.214,2.214,0,0,0,.84-.656,3.354,3.354,0,0,0,.56-1.1A5.237,5.237,0,0,0-5.6-5.024a5.255,5.255,0,0,0-.216-1.6A3.275,3.275,0,0,0-6.4-7.736a2.27,2.27,0,0,0-.856-.648A2.645,2.645,0,0,0-8.3-8.592a2.429,2.429,0,0,0-1.04.224,2.309,2.309,0,0,0-.832.664,3.345,3.345,0,0,0-.56,1.112A5.318,5.318,0,0,0-10.944-5.024ZM5.184-10.08v1.7H.976v2.672H4.832v1.68H.976V0H-1.216V-10.08Zm8.272,0v1.7H9.248v2.672H13.1v1.68H9.248V0H7.056V-10.08Z" transform="translate(20.871 23.723)" fill="#fff"/>
        <rect id="Rectángulo_48" data-name="Rectángulo 48" width="48" height="6" transform="translate(-0.129 -0.277)" fill="#fff"/>
      </g>
      <path id="Trazado_278" data-name="Trazado 278" d="M32.477,29.22a13.315,13.315,0,0,0-3.9.605A11.8,11.8,0,0,0,24.5,32.19l-1.265-1.925a12.808,12.808,0,0,1,4.812-2.722,16.969,16.969,0,0,1,4.427-.632,12.556,12.556,0,0,1,4.483.743,8.617,8.617,0,0,1,3.217,2.063A8.831,8.831,0,0,1,42.1,32.85a11.506,11.506,0,0,1,.66,3.96,12.247,12.247,0,0,1-.687,3.988,19.41,19.41,0,0,1-2.062,4.153,42.492,42.492,0,0,1-3.465,4.592q-2.09,2.447-4.895,5.307L26.7,59.69H44.137V62H23.292L22.8,60.185l4.675-4.565q3.465-3.52,5.8-6.1a46.45,46.45,0,0,0,3.8-4.7,16.667,16.667,0,0,0,2.09-3.96,12.029,12.029,0,0,0,.632-3.933,8.157,8.157,0,0,0-1.842-5.637A6.96,6.96,0,0,0,32.477,29.22ZM62.4,26.91a11.979,11.979,0,0,1,5,1.073,10.933,10.933,0,0,1,4.1,3.272,16.748,16.748,0,0,1,2.75,5.555,27.208,27.208,0,0,1,1.018,7.865,27.142,27.142,0,0,1-1.018,7.893A16.457,16.457,0,0,1,71.472,58.1a11.225,11.225,0,0,1-4.1,3.272A11.794,11.794,0,0,1,62.4,62.44a11.979,11.979,0,0,1-5.005-1.072A11.393,11.393,0,0,1,53.24,58.1a16.156,16.156,0,0,1-2.805-5.528,27.142,27.142,0,0,1-1.017-7.893,26,26,0,0,1,1.017-7.645,16.824,16.824,0,0,1,2.805-5.555,12.011,12.011,0,0,1,4.153-3.41A11.26,11.26,0,0,1,62.4,26.91ZM52.277,44.675a25.8,25.8,0,0,0,.853,7.15,14.531,14.531,0,0,0,2.283,4.785,8.527,8.527,0,0,0,3.272,2.695,9.256,9.256,0,0,0,3.823.825,8.213,8.213,0,0,0,3.767-.908,8.7,8.7,0,0,0,3.135-2.805A15.619,15.619,0,0,0,71.582,51.6a25.644,25.644,0,0,0,.825-6.93,25.862,25.862,0,0,0-.853-7.123,14.182,14.182,0,0,0-2.283-4.785,8.942,8.942,0,0,0-3.245-2.7,8.824,8.824,0,0,0-3.795-.853,8.213,8.213,0,0,0-3.768.908A8.92,8.92,0,0,0,55.3,32.932a15.215,15.215,0,0,0-2.2,4.813A25.644,25.644,0,0,0,52.277,44.675ZM87.478,62l24.035-41.25h2.475L89.952,62Zm33.5-9.845a13.966,13.966,0,0,1-.55,3.96,9.95,9.95,0,0,1-1.622,3.273,7.651,7.651,0,0,1-2.75,2.228,8.681,8.681,0,0,1-3.878.825,8.2,8.2,0,0,1-3.768-.825,7.782,7.782,0,0,1-2.695-2.228,9.949,9.949,0,0,1-1.623-3.273,13.966,13.966,0,0,1-.55-3.96,13.077,13.077,0,0,1,.577-3.932,10.094,10.094,0,0,1,1.677-3.245,7.976,7.976,0,0,1,2.75-2.228,8.376,8.376,0,0,1,3.795-.825,8.2,8.2,0,0,1,3.768.825,7.782,7.782,0,0,1,2.695,2.228,9.988,9.988,0,0,1,1.622,3.245A13.682,13.682,0,0,1,120.973,52.155Zm-2.53,0a15.069,15.069,0,0,0-.33-3.217,7.464,7.464,0,0,0-1.073-2.612,5.373,5.373,0,0,0-1.9-1.733,6.208,6.208,0,0,0-2.805-.687,5.308,5.308,0,0,0-2.695.55,5.5,5.5,0,0,0-1.952,1.732,8.317,8.317,0,0,0-1.21,2.64,12.626,12.626,0,0,0-.412,3.327,10.794,10.794,0,0,0,1.512,5.968,5.1,5.1,0,0,0,4.592,2.337,5.435,5.435,0,0,0,4.675-2.173A10.214,10.214,0,0,0,118.443,52.155ZM97.213,30.98a13.966,13.966,0,0,1-.55,3.96,9.949,9.949,0,0,1-1.623,3.273,7.651,7.651,0,0,1-2.75,2.228,8.681,8.681,0,0,1-3.877.825,8.2,8.2,0,0,1-3.768-.825,7.782,7.782,0,0,1-2.695-2.228,9.949,9.949,0,0,1-1.623-3.273,13.966,13.966,0,0,1-.55-3.96,13.077,13.077,0,0,1,.577-3.932A10.094,10.094,0,0,1,82.033,23.8a7.976,7.976,0,0,1,2.75-2.227,8.376,8.376,0,0,1,3.795-.825,8.2,8.2,0,0,1,3.768.825A7.782,7.782,0,0,1,95.04,23.8a9.988,9.988,0,0,1,1.623,3.245A13.683,13.683,0,0,1,97.213,30.98Zm-2.53,0a15.068,15.068,0,0,0-.33-3.217A7.464,7.464,0,0,0,93.28,25.15a5.373,5.373,0,0,0-1.9-1.732,6.208,6.208,0,0,0-2.805-.687,5.308,5.308,0,0,0-2.695.55,5.5,5.5,0,0,0-1.952,1.733,8.317,8.317,0,0,0-1.21,2.64,12.626,12.626,0,0,0-.412,3.327,10.794,10.794,0,0,0,1.512,5.968,5.1,5.1,0,0,0,4.593,2.337,5.435,5.435,0,0,0,4.675-2.172A10.214,10.214,0,0,0,94.683,30.98Z" transform="translate(-6 13)" fill="#fff"/>
    </g>
  </g>
</svg>
