<svg xmlns="http://www.w3.org/2000/svg" width="302" height="18.267" viewBox="0 0 302 18.267">
  <g id="Grupo_2203" data-name="Grupo 2203" transform="translate(-36 -605.867)">
    <g id="Grupo_2146" data-name="Grupo 2146" transform="translate(705.3 813.949)">
      <path id="Trazado_3" data-name="Trazado 3" d="M-527.364-208.082a2.777,2.777,0,0,0-2.763,2.763v12.741a2.777,2.777,0,0,0,2.763,2.763h19.218a2.77,2.77,0,0,0,2.755-2.763v-12.741a2.77,2.77,0,0,0-2.755-2.763Zm0,1.546h19.218a1.194,1.194,0,0,1,1.209,1.217v1.546h-21.644v-1.546A1.2,1.2,0,0,1-527.364-206.536Zm-1.217,4.309h21.644v1.449h-21.644Zm0,3h21.644v6.654a1.193,1.193,0,0,1-1.209,1.215h-19.218a1.2,1.2,0,0,1-1.217-1.215Zm2.2,2.141a.774.774,0,0,0-.715.829.774.774,0,0,0,.8.717h5.4a.773.773,0,0,0,.79-.756.773.773,0,0,0-.756-.79H-526.3A.793.793,0,0,0-526.378-197.091Zm.08,2.316a.773.773,0,0,0-.79.756.773.773,0,0,0,.756.79h2.34a.773.773,0,0,0,.79-.756.773.773,0,0,0-.756-.79h-2.34Z"/>
    </g>
    <rect id="Rect치ngulo_30" data-name="Rect치ngulo 30" width="127" height="3" transform="translate(36 612)"/>
    <rect id="Rect치ngulo_35" data-name="Rect치ngulo 35" width="127" height="3" transform="translate(211 612)"/>
  </g>
</svg>
